<svg xmlns="http://www.w3.org/2000/svg" xmlns:xlink="http://www.w3.org/1999/xlink" width="14" height="14" viewBox="0 0 14 14">
  <defs>
    <clipPath id="clip-path">
      <rect id="矩形_745" data-name="矩形 745" width="14" height="14" transform="translate(-1 3.615)" fill="#fff"/>
    </clipPath>
  </defs>
  <g id="icon_head_user" transform="translate(1 -3.615)" clip-path="url(#clip-path)">
    <path id="路径_15" data-name="路径 15" d="M15,15H13.625V13.667a2.032,2.032,0,0,0-2.062-2H7.438a2.032,2.032,0,0,0-2.062,2V15H4V13.667a3.387,3.387,0,0,1,3.438-3.333h4.125A3.387,3.387,0,0,1,15,13.667ZM9.5,9A4.064,4.064,0,0,1,5.375,5,4.064,4.064,0,0,1,9.5,1a4.064,4.064,0,0,1,4.125,4A4.064,4.064,0,0,1,9.5,9Zm0-1.333A2.709,2.709,0,0,0,12.25,5a2.751,2.751,0,0,0-5.5,0A2.709,2.709,0,0,0,9.5,7.667Z" transform="translate(-3.5 2.615)" fill="#2e2f33"/>
  </g>
</svg>
