<svg xmlns="http://www.w3.org/2000/svg" xmlns:xlink="http://www.w3.org/1999/xlink" width="14" height="14" viewBox="0 0 14 14">
  <defs>
    <clipPath id="clip-path">
      <rect id="矩形_749" data-name="矩形 749" width="14" height="14" transform="translate(1722 93)" fill="#145be9"/>
    </clipPath>
  </defs>
  <g id="icon_top_password" transform="translate(-1722 -93)" clip-path="url(#clip-path)">
    <path id="路径_661" data-name="路径 661" d="M4.82,4.64a3.64,3.64,0,1,1,7.28,0v.607h.91a.91.91,0,0,1,.91.91V8.28H12.707V6.46H4.213v6.067H9.067V13.74H3.91A.91.91,0,0,1,3,12.83V6.157a.91.91,0,0,1,.91-.91h.91Zm6.067,0a2.427,2.427,0,1,0-4.853,0v.607h4.853ZM13.7,12.645l.306,1.787-1.6-.844-1.6.844.306-1.787-1.3-1.265,1.794-.261.8-1.626.8,1.626L15,11.38Z" transform="translate(1720 92.3)" fill="#2e2e33"/>
  </g>
</svg>
