<svg xmlns="http://www.w3.org/2000/svg" width="18" height="18" viewBox="0 0 18 18">
  <path id="icon_appointment" d="M6.286,2.714V1H8V2.714h5.143V1h1.714V2.714h3.429a.857.857,0,0,1,.857.857V7.857H17.429V4.429H14.857V6.143H13.143V4.429H8V6.143H6.286V4.429H3.714v12H8.857v1.714h-6A.857.857,0,0,1,2,17.286V3.571a.857.857,0,0,1,.857-.857Zm8.571,7.714a3.429,3.429,0,1,0,3.429,3.429A3.429,3.429,0,0,0,14.857,10.429ZM9.714,13.857A5.143,5.143,0,1,1,14.857,19,5.143,5.143,0,0,1,9.714,13.857ZM14,11.286v2.926l1.965,1.965,1.212-1.212L15.714,13.5V11.286Z" transform="translate(-2 -1)" fill="#fff"/>
</svg>
