<svg xmlns="http://www.w3.org/2000/svg" width="31" height="33" viewBox="0 0 31 33">
  <g id="icon_head_logo" transform="translate(0.5 0.5)">
    <path id="路径_657" data-name="路径 657" d="M825.478-664h-7.826a.66.66,0,0,0-.652.667v30.667a.66.66,0,0,0,.652.667h7.826a.66.66,0,0,0,.652-.667v-30.667A.66.66,0,0,0,825.478-664Zm-3.913,28.667a1.979,1.979,0,0,1-1.956-2,1.979,1.979,0,0,1,1.956-2,1.979,1.979,0,0,1,1.957,2A1.979,1.979,0,0,1,821.565-635.333ZM824.5-642h-5.87v-16h5.87Zm0-17.333h-5.87v-2h5.87Z" transform="translate(-817 664)" fill="#145be9" stroke="rgba(0,0,0,0)" stroke-miterlimit="10" stroke-width="1"/>
    <path id="路径_658" data-name="路径 658" d="M985.478-664h-7.826a.66.66,0,0,0-.652.667v30.667a.66.66,0,0,0,.652.667h7.826a.66.66,0,0,0,.652-.667v-30.667A.66.66,0,0,0,985.478-664Zm-3.913,28.667a1.979,1.979,0,0,1-1.956-2,1.979,1.979,0,0,1,1.956-2,1.979,1.979,0,0,1,1.957,2A1.979,1.979,0,0,1,981.565-635.333ZM984.5-642h-5.87v-16h5.87Zm0-17.333h-5.87v-2h5.87Z" transform="translate(-966.565 664)" fill="#ff8000" stroke="rgba(0,0,0,0)" stroke-miterlimit="10" stroke-width="1"/>
    <path id="路径_659" data-name="路径 659" d="M1145.478-664h-7.826a.66.66,0,0,0-.652.667v30.667a.66.66,0,0,0,.652.667h7.826a.659.659,0,0,0,.652-.667v-30.667A.659.659,0,0,0,1145.478-664Zm-3.913,28.667a1.979,1.979,0,0,1-1.957-2,1.979,1.979,0,0,1,1.957-2,1.979,1.979,0,0,1,1.957,2A1.979,1.979,0,0,1,1141.565-635.333ZM1144.5-642h-5.87v-16h5.87Zm0-17.333h-5.87v-2h5.87Z" transform="translate(-1116.13 664)" fill="#145be9" stroke="rgba(0,0,0,0)" stroke-miterlimit="10" stroke-width="1"/>
  </g>
</svg>
