<svg xmlns="http://www.w3.org/2000/svg" width="179.647" height="54.67" viewBox="0 0 179.647 54.67">
  <path id="item_nav_title" d="M-2078.223,23.2V14.969q-.14-.914.633-.562a.2.2,0,0,0,.14.07,4.921,4.921,0,0,0,1.407.563h3.938q.14,0,.351-.352a1.62,1.62,0,0,1,.422-.491q.282-.142,2.11,1.054,1.125-1.476.281-1.687h-10.2a1.81,1.81,0,0,1-.7,2.18q-.844.493-1.336,0a1.129,1.129,0,0,1-.141-1.406l.422-.422a1.3,1.3,0,0,0,.422-1.828q-2.18,1.688-1.547.843a13.076,13.076,0,0,0,2.672-5.273q.141-.774.773-.562,3.094.563,1.829.914a.758.758,0,0,0-.282.14,8.8,8.8,0,0,1-.562.7c-.234.328-.375.516-.422.563h2.11q.07,0,.422-.492.421-.7.563-.7a4.05,4.05,0,0,1,1.2.633,2.9,2.9,0,0,1,.422.282q.281-.563.07-.141a6.589,6.589,0,0,0,.422-1.265.408.408,0,0,0,.07-.281.452.452,0,0,1,.633-.352q2.952.351,1.828.843a2.143,2.143,0,0,0-.281.212,12.1,12.1,0,0,0-1.125,1.265h2.671a2.74,2.74,0,0,0,.563-.633q.423-.563.492-.562.423-.07,1.477.985a.575.575,0,0,1,.21.351c-.047.094-.187.141-.422.141h-4.148q1.547.772,1.617,1.616a1.248,1.248,0,0,1-.773,1.2q-.844.351-1.125-.282a2.161,2.161,0,0,1-.141-.914,1.208,1.208,0,0,0-.843-1.406,3.365,3.365,0,0,0-.492.422,8.97,8.97,0,0,1-.985.7q1.688,1.054.633,2.25h3.727q.141,0,.422-.422.281-.562.563-.633a4.452,4.452,0,0,1,2.39,2.11q0,.211-.492.211a4.8,4.8,0,0,0-2.742.914q0,.07-.422.351l-.21.211V17.5a.844.844,0,0,1-.7.844q1.688,1.054,1.688,1.265a.686.686,0,0,1-.14.352.862.862,0,0,0-.212.492v2.109q.07.7-1.335.844-.774.07-.774-.7v-.774h-5.133v.914q.07.493-1.055.773a1.787,1.787,0,0,1-.4.053Q-2078.276,23.67-2078.223,23.2Zm1.9-1.617h5.133V19.539h-5.133Zm0-2.391h4.711a3.444,3.444,0,0,1,.492-.7l.07-.07a.769.769,0,0,0-.282-.14c-.281-.094-.422-.235-.422-.422V17.5h-4.57Zm0-3.3v1.265h4.57V15.321h-3.937a1.325,1.325,0,0,0-.134-.007Q-2076.388,15.313-2076.325,15.883Zm-3.937-4.009a.874.874,0,0,1,.141.212,8.809,8.809,0,0,1,.913,1.2h4.64a4.128,4.128,0,0,1,.071-.633,1.433,1.433,0,0,0-.562-1.477q-.282-.351.843-.211.423-.774.7-1.265h-4.078q1.757,1.335,1.547,2.25a1.147,1.147,0,0,1-1.2.843q-.773-.14-.7-1.055v-.211q.072-1.266-.562-1.547A23.155,23.155,0,0,1-2080.263,11.875ZM-2108.4,22.562a4.038,4.038,0,0,0-2.461-2.109,9.478,9.478,0,0,1-4.851,2.742q-.985.211-.844.07,3.515-1.687,4.148-3.3.916-1.758.7-6.68v-.14q-.14-.774.563-.7,2.249.072,1.546.634a.725.725,0,0,0-.14.281q-.14,5.414-.914,6.82,3.163.423,3.866,1.125a1.3,1.3,0,0,1,.563,1.407,1.1,1.1,0,0,1-1.125.843Q-2107.979,23.547-2108.4,22.562Zm89.226.352a8.621,8.621,0,0,0,2.953-1.968,9.917,9.917,0,0,0,1.055-5.344,2.977,2.977,0,0,0-.492.07,1.149,1.149,0,0,1-.281.07q-.211-.07-.562-1.055-.281-.844-.14-.984a2.212,2.212,0,0,1,.492-.141,1.5,1.5,0,0,0,.913-.351,14.686,14.686,0,0,0,1.617-2.742h-2.6a.572.572,0,0,1-.421-.14c-.094-.094-.07-.141.07-.141h3.867a2.243,2.243,0,0,1-.352-1.546,1.53,1.53,0,0,0-.562-1.337q-.14-.07-.14-.14,2.179-.14,2.883,1.265a1.569,1.569,0,0,1-.562,1.758h1.758q.14,0,.7-.7a2.763,2.763,0,0,1,.563-.633,3.343,3.343,0,0,1,1.477,1.125c.187.234.257.375.211.422a1.419,1.419,0,0,1-.633.07h-3.3q.423.281-.562.843a23.011,23.011,0,0,0-3.3,2.532h4.922a5.281,5.281,0,0,0-1.2-1.547q-.211-.211-.14-.211A4.906,4.906,0,0,1-2007.5,13.7a1.711,1.711,0,0,1,.211,1.546,1.176,1.176,0,0,1-1.125.7q-.773,0-.984-1.477l-2.321.352q2.884.562,1.759,1.125c-.094.047-.141.094-.141.14v4.781q-.07.633.844.634.844,0,1.476-1.336c.141-.281.235-.422.282-.422s.07.071.07.211a2.087,2.087,0,0,0,.282,1.265.8.8,0,0,0,.281.282q.493.211.422.633-.211,1.125-3.024,1.125a4.87,4.87,0,0,1-2.25-.422q-.491-.281-.421-1.477V14.9l-1.9.422q2.04.421,1.2,1.054c-.094.095-.141.165-.141.212q-.421,3.445-1.758,4.851a10.032,10.032,0,0,1-5.133,1.9Q-2019.878,23.266-2019.175,22.914Zm-16.987-.07q-.14-1.054-1.687-1.407-.562-.211.563-.211a4.454,4.454,0,0,0,1.477-.14.68.68,0,0,0,.351-.774V17.149l-3.3.492q3.093,1.758,1.546,1.828a5.208,5.208,0,0,0-.562.211q-3.586,2.321-4.64,1.969a14.664,14.664,0,0,0,3.375-3.937,4.414,4.414,0,0,0-.843.281.91.91,0,0,1-.634.141,5.84,5.84,0,0,1-.491-1.969q-.142-.563.633-.492a1.529,1.529,0,0,0,.843-.07c.14-.094.188-.117.14-.07q2.531-1.477,4.782-2.953a16.836,16.836,0,0,0-4.148,1.055,1.619,1.619,0,0,1-.492.14q-.282-.211-.422-1.477-.07-.774.352-.773a1,1,0,0,0,.563-.14,15.492,15.492,0,0,0,1.9-2.11q-1.9.14-3.657.14a3.5,3.5,0,0,1-1.054-.07q-.071-.07.773-.282,7.874-1.265,9.7-2.039a2.738,2.738,0,0,1,.352-.14q.844-.7,2.109.633,2.179,1.968.07,1.476a9.981,9.981,0,0,0-1.407-.14q-.351,0-1.265.07-2.391.14-3.023.14,1.195.493-.282.985a18.178,18.178,0,0,0-3.164,1.828h4.009a15.59,15.59,0,0,0,1.968-1.758.617.617,0,0,1,1.055-.07q2.461,1.828,1.055,1.758a1,1,0,0,0-.422.141q-4.149,2.179-7.945,3.726l7.664.07a4.018,4.018,0,0,0-1.336-1.9,4.386,4.386,0,0,1,3.445,1.758,1.743,1.743,0,0,1-.07,1.969q-1.054.844-1.758,0a1.754,1.754,0,0,1-.07-.634,4.21,4.21,0,0,1-.07-.633l-3.024.492v4.64q-.07,1.688-2.741,1.688C-2036.093,23.125-2036.163,23.031-2036.163,22.844Zm-63.126-.352V8.008q0-.844,1.758,0a3.143,3.143,0,0,0,.773.281h5.133c.047,0,.165-.117.352-.352q.491-.772.7-.773a5.989,5.989,0,0,1,2.462,1.688c0,.094-.141.258-.422.492-.14.094-.211.164-.211.211V22.141q.212.562-1.476.7-.844.07-.844-.422V20.8h-6.117v1.547q.07.563-1.406.7c-.047,0-.091.007-.134.007A.5.5,0,0,1-2099.289,22.492Zm2.109-2.039h6.117V16.516h-6.117Zm0-4.219h6.117V12.578h-6.117Zm0-6.75v2.742h6.117V8.571h-5.133Q-2097.18,8.571-2097.18,9.484ZM-2057.58,22a.283.283,0,0,1-.281-.14q-.07-.211.07-.211h4.992V18.414h-3.375a.284.284,0,0,1-.282-.14c-.047-.14,0-.211.14-.211h3.516V15.109h-1.547v.633q.14.493-.985.633-.844.282-.773-.562V13.774h-2.6v4.218q3.515-.844,2.532-.281a25.805,25.805,0,0,0-4.922,3.235,1.735,1.735,0,0,1-.633.351q-.352-.07-.774-1.828-.351-.774.915-.914a5.16,5.16,0,0,0,.984-.211v-4.57h-1.617a.473.473,0,0,1-.422-.212c0-.094.094-.14.282-.14h1.758V9.062h-1.336q-.281,0-.351-.14t.211-.14h3.3q.07,0,.281-.422.491-.774.633-.773.351-.07,1.2.563.351.211.563.351V7.937q0-.421.141-.491c.094-.048.3.023.633.211.14.047.188.07.14.07a2.806,2.806,0,0,0,1.125.422h4.29c.047,0,.117-.094.21-.282q.282-.632.563-.633,1.9.423,2.181,1.547c0,.047-.071.117-.212.211q-.281.212-.281.282v5.906q.14.774-1.336.985-.844.281-.773-.562v-.562h-1.547v3.023h1.336c.047,0,.211-.187.492-.562a2.765,2.765,0,0,1,.563-.7q.423,0,1.688,1.125c.141.188.188.305.141.352,0,.094-.118.14-.352.14h-3.867v3.235h1.9c.047,0,.188-.164.422-.492q.422-.774.633-.844.493,0,1.759,1.2.351.281.281.421a1.7,1.7,0,0,1-.7.07Zm6.61-7.241h1.547V11.8h-1.547Zm-3.375,0h1.547V11.8h-1.547Zm-3.445-2.391a3.467,3.467,0,0,1,1.266.7q.352.281.422.351V8.992l-2.039.07q-.633-.07-.562.634v3.656c.047,0,.165-.14.352-.422q.379-.569.532-.569A.068.068,0,0,1-2057.791,12.367Zm3.445-3.3v2.462h1.547V8.429h-.914c-.047,0-.091-.006-.133-.006Q-2054.474,8.423-2054.345,9.062Zm3.375-.07v2.462h1.547V8.429h-1.055a.854.854,0,0,0-.106-.007Q-2051.034,8.422-2050.97,8.992Zm21.207,12.516a4.551,4.551,0,0,1-.211-.634,3.529,3.529,0,0,0-2.039-2.6q-.422-.211.633-.14,3.235.491,3.867,1.968a1.35,1.35,0,0,1-.562,1.617,1.582,1.582,0,0,1-.779.237A1.209,1.209,0,0,1-2029.764,21.508Zm7.214-.562q-.281-.774-.07-.985a1.224,1.224,0,0,1,.492-.14q1.195-.142,2.813-.492,1.054-.212,2.39-.492c.609-.14.891-.188.844-.14q.07.07-1.337.773-1.054.563-1.758.914a21.883,21.883,0,0,0-2.25,1.336,1.527,1.527,0,0,1-.422.211Q-2022.2,21.789-2022.55,20.946Zm-86.273-1.759V11.734h-3.094q-.844-.07-.773.844V18.7q.14.562-1.336.914-.7.07-.7-.563V11.594q0-.7.774-.633.211.07.563.211a4.966,4.966,0,0,0,.843.212h.7a14.441,14.441,0,0,0,0-2.884h-3.023a.48.48,0,0,1-.352-.14c-.047-.14,0-.211.141-.211h6.258q.211,0,.773-.774.352-.491.492-.491a4.722,4.722,0,0,1,1.758,1.125q.352.281.282.351c-.047.094-.235.14-.562.14h-2.6q.07.142-.14.282a4.678,4.678,0,0,0-1.969,2.672h1.617c.094,0,.235-.118.422-.352.14-.281.281-.446.422-.492a3.27,3.27,0,0,1,2.25,1.477q0,.211-.352.422c-.234.187-.352.351-.352.491v5.907q.072.563-1.054.7a2.381,2.381,0,0,1-.457.053Q-2108.876,19.662-2108.823,19.187Zm-12.657.422a4.285,4.285,0,0,1-.984-2.32q.07-.14,1.266-.281.844-.142,1.406-.212V9.414h-1.9c-.187,0-.305-.047-.352-.14s0-.14.141-.14h4.078q.14,0,.492-.634c.281-.421.446-.633.492-.633a3.618,3.618,0,0,1,1.758,1.266q.211.211.14.281a.557.557,0,0,1-.352.07h-2.109a.373.373,0,0,0-.422.422v6.68a16.27,16.27,0,0,1,2.32-.212q.7,0,.211.212-3.093,1.617-4.289,2.25a4.829,4.829,0,0,1-1.758.81A.232.232,0,0,1-2121.48,19.609Zm99.844-1.125a2.176,2.176,0,0,1-.7-1.9q0-.07.351-.14a1.919,1.919,0,0,0,.914-.282,8.157,8.157,0,0,0,1.688-2.812,8.47,8.47,0,0,0-2.18.773,1.6,1.6,0,0,1-.492.141,2.5,2.5,0,0,1-.633-1.9h.211q.774-.07.844-.351A24.4,24.4,0,0,0-2020.23,7.8a1.224,1.224,0,0,1,.141-.492,2.6,2.6,0,0,1,1.476.282q1.126.491,1.055.773c0,.047-.07.117-.211.212a19.6,19.6,0,0,0-3.3,3.938h2.11q.211-.493.491-1.266a2.437,2.437,0,0,1,.492-.843,3.879,3.879,0,0,1,2.532,1.265,1.614,1.614,0,0,1-.352.211q-.7,0-4.57,4.782h2.11a9.39,9.39,0,0,1,1.828,0,9.309,9.309,0,0,1-2.18.7q-1.405.493-2.461.985a1.218,1.218,0,0,1-.475.158A.2.2,0,0,1-2021.636,18.484Zm27.051-26.539q4.969-1.5,6.188-3,1.5-1.407,1.407-5.156,0-.844.75-.75,4.031.186,2.437,1.219c-.125.125-.187.219-.187.281a22.072,22.072,0,0,1-.656,3,25.014,25.014,0,0,1,3.093.374v-6h-6.468q-1.126-.094-1.031.937v4.313q.188,1.219-1.687,1.312-1.031.282-.938-.843V-17.9q-1.124.093-1.312.094-.188-.093.469-.375,7.312-2.156,8.156-8.343h-.469q-3.375,4.5-4.5,4.125a17.026,17.026,0,0,0,2.719-6.75q0-.938.844-.656,3.843.468,2.25,1.406l-.282.282q-.468.749-.75,1.219h4.875q.186,0,.468-.656t.563-.751q3,.938,3.469,2.625-.188.281-.844.282-.656.093-1.125.187a4.655,4.655,0,0,0-2.156,1.406q-.656.656-.281-.187a8.421,8.421,0,0,0,.469-2.531h-3.188q1.593.468,1.5.843a1.185,1.185,0,0,1-.282.469.564.564,0,0,0-.375.375q1.219,3.187,6.844,3.938.562.093-.094.468a.267.267,0,0,1-.187.094,4.232,4.232,0,0,0-1.406,1.688q-.282.937-.938.656-2.812-1.219-4.875-5.813-1.875,3.563-6.75,5.344h6.563q.188,0,.375-.469a1.109,1.109,0,0,1,.656-.656q2.531.563,3.093,2.063c0,.062-.094.124-.281.187q-.282.188-.282.375v4.031q.094.937-1.312,1.031a3.964,3.964,0,0,1,2.719,1.968,1.4,1.4,0,0,1-.562,1.875,1.507,1.507,0,0,1-1.969-.374,5.635,5.635,0,0,1-.469-.562q-1.125-1.97-4.5-3a8.3,8.3,0,0,1-5.25,3.563,15.2,15.2,0,0,1-3.656.75q-.344.016-.6.016Q-1995.6-7.664-1994.585-8.055Zm-38.55-.281a1.837,1.837,0,0,0-1.407-1.594l-.187-.094q-1.5-.468.563-.375a4.59,4.59,0,0,0,1.781-.187q.375-.188.375-1.312v-9.657h-10.969a.85.85,0,0,0-.75.844v4.781a13.089,13.089,0,0,0,2.719-4.031q.281-1.312,1.125-.75,2.437,1.219,2.25,1.594a2.192,2.192,0,0,1-.562.281,7.269,7.269,0,0,0-.938.375q-.937.468-4.594,3v5.813q.093,1.125-1.406,1.312a.833.833,0,0,1-1.031-.844V-22.867q0-.937,2.531.563a2.625,2.625,0,0,0,.656.375h2.063q-.656-.282-.656-1.5a3.457,3.457,0,0,0-1.407-2.812h-4.031a1.009,1.009,0,0,1-.562-.187q-.093-.188.282-.188h9.281q-.562-.281-.562-1.5a2.609,2.609,0,0,0-.656-1.219,1.142,1.142,0,0,1-.281-.562,3.926,3.926,0,0,1,1.781,0,2.306,2.306,0,0,1,1.406.468q1.407,1.407-.281,2.719h5.625q.188,0,.656-.75.656-1.219,1.031-1.219a5.393,5.393,0,0,1,1.875,1.219l.282.281q.562.47.468.657-.188.281-1.031.281h-6.938q2.813.937,2.625,1.5c0,.125-.187.249-.562.374a8.625,8.625,0,0,0-3.094,2.438h3.094q.281,0,.843-.751.47-.749.75-.75a4.558,4.558,0,0,1,2.625,2.063q0,.188-.562.563-.374.374-.375.469v9q.093,2.061-.469,2.624A3.7,3.7,0,0,1-2032.2-7.68a1.62,1.62,0,0,1-.177.01A.684.684,0,0,1-2033.134-8.336Zm-8.25-17.813q2.719.844,2.719,2.438a2.225,2.225,0,0,1-.938,1.781h3.094q.093-.375.281-1.407.282-2.063.469-2.906h-5.906A.727.727,0,0,1-2041.385-26.149Zm-82.388,18.375a5.643,5.643,0,0,1,1.5-.562q6-2.25,6.844-6.469.188-1.5.282-3.469t0-5.719q-.188-1.312.843-1.031h.375q1.781.095,2.063.563a.967.967,0,0,1-.188.375,1.168,1.168,0,0,0-.281.469q-.282,7.968-.751,9.563a13.527,13.527,0,0,1,5.157,1.968q2.156,1.875.843,3.469-2.063,1.594-2.906-1.781a6.018,6.018,0,0,0-3.188-3.375q-1.968,4.594-9.094,6a9.938,9.938,0,0,1-1.125.094Q-2123.772-7.679-2123.772-7.773Zm117.976-.469V-29.148q-.188-.751,1.031-.562,2.624.093,1.781,1.219a.958.958,0,0,0-.187.375V-8.711q.093.844-1.594.938a2.22,2.22,0,0,1-.523.077Q-2005.865-7.7-2005.8-8.242Zm-132.469-.281a2.092,2.092,0,0,0-1.593-1.688,3.134,3.134,0,0,1-.751-.282h1.5q1.968,0,1.875-1.219V-27.18h-8.062q-.844.094-2.437,2.907a13.936,13.936,0,0,1-.844,1.406,3.366,3.366,0,0,0-.562,1.031q0,.188.563.656a8.431,8.431,0,0,1,2.063,2.25,3.874,3.874,0,0,1,.469,3.562,3.383,3.383,0,0,1-2.625,2.156q-.469,0-.562-.562a1.6,1.6,0,0,0-1.219-1.406v5.625q.281,1.5-1.781,1.594-.751.093-.751-.844V-28.586q-.093-.563.375-.562a7.941,7.941,0,0,1,2.25.843h1.406a4.608,4.608,0,0,1,.282-.468q.188-.657.563-.469a11.112,11.112,0,0,1,3,1.688h9.094c.063,0,.219-.188.469-.562q.844-1.219,1.219-1.219a5.84,5.84,0,0,1,2.438,1.875q0,.281-.656.281h-1.407q-.468,0-.469.938v16.032q.094,2.437-3.281,2.437Q-2138.172-7.773-2138.266-8.523Zm-12.187-18.563v11.437q2.719.375,2.437-2.625a6.3,6.3,0,0,0-1.406-3.093c-.188-.188-.282-.313-.282-.375a8.059,8.059,0,0,1,.282-1.219q.374-1.782.563-2.812v-.187a12.118,12.118,0,0,1,.374-1.969h-1.406Q-2150.453-27.93-2150.453-27.086ZM-2016.3-8.149q-.281-.093-.469-.75a2.285,2.285,0,0,0-1.687-1.594q-.468-.188-.374-.375c.062-.125.312-.156.75-.094a5.232,5.232,0,0,0,2.906-.281,1.975,1.975,0,0,0,1.031-1.687,49.832,49.832,0,0,0,.75-5.062h-3.843c-.063,0-.219.156-.469.469q-.375.656-.656.75a4,4,0,0,1-2.719-1.031.77.77,0,0,1,.281-.469,4.158,4.158,0,0,0,.375-1.031q.188-1.5.375-3.281,0-1.219.187-1.125a7.161,7.161,0,0,1,2.25.563,2.867,2.867,0,0,1,.656.187h3.375v-4.406h-7.406a.636.636,0,0,1-.469-.187q-.093-.188.187-.188h7.125q.093,0,.469-.562.468-.749.656-.75a5.25,5.25,0,0,1,3.094,1.781q.093.188-.562.751c-.188.124-.282.219-.282.281v4.5a.843.843,0,0,1-.281.75,3.128,3.128,0,0,1-1.407.282q-1.219.188-1.125-.75v-1.031h-2.531q-1.407-.094-1.407,1.031,0,.468-.281,3.093h3.938q.093,0,.563-.562.469-.656.656-.656a4.92,4.92,0,0,1,2.906,2.156c0,.125-.125.249-.375.374a1.648,1.648,0,0,0-.562.657,2.775,2.775,0,0,1-.094.656,43.619,43.619,0,0,1-1.031,5.25,3.118,3.118,0,0,1-1.687,1.781,4.388,4.388,0,0,1-2.144.633A3.17,3.17,0,0,1-2016.3-8.149Zm-49.331-.843v-8.531q0-.751.187-.844.188-.188.75.094a17.412,17.412,0,0,1,1.781.656,1.538,1.538,0,0,0,.375.094h3.562q.094,0,.375-.469a1.583,1.583,0,0,1,.656-.656q2.907.749,3.281,1.968a1.973,1.973,0,0,1-.375.469q-.281.188-.281.281v6q0,.751-.282.938a3.143,3.143,0,0,1-1.5.469q-1.126.186-1.219-.657V-10.4h-4.5v1.031q.188.937-1.875,1.125-.093.009-.177.009A.671.671,0,0,1-2065.628-8.992Zm2.813-6.938v5.251h4.5v-6.376h-3.469c-.053,0-.1-.007-.154-.007Q-2062.9-17.062-2062.815-15.93Zm-9.938,7.5a.747.747,0,0,1-.094-.469q-.094-1.219-1.594-1.594-1.031-.563.563-.469,2.063-.093,2.063-.656v-5.625q-.656.375-1.5.938-.656.468-.938.374-.374-.093-.843-2.156c.062.062.062,0,0-.188q-.282-.656.937-.843a14.345,14.345,0,0,0,2.344-.562v-4.5h-2.812a.542.542,0,0,1-.375-.188.165.165,0,0,1,.187-.187h3v-4.5q-.187-1.031.937-.938,2.907.094,1.875,1.031c-.125.125-.188.219-.188.282v3.938a6.665,6.665,0,0,0,.469-.656,4.583,4.583,0,0,1,.844-.938,7.058,7.058,0,0,1,2.344,1.781q.375.468-.938.469h-2.719v3.75q3-1.031,3.188-.844t-1.594,1.219q-1.031.656-1.594,1.031v7.313a3.71,3.71,0,0,1-.75,2.532,4.277,4.277,0,0,1-1.5.656,4.911,4.911,0,0,1-.844.094A.876.876,0,0,1-2072.753-8.429Zm-27.806-.562a7.136,7.136,0,0,0,2.625-3.844,31.946,31.946,0,0,0,.75-7.5V-28.4q0-1.031.188-1.125.093-.188,1.125-.094,3,.375,1.781,1.407a1.435,1.435,0,0,0-.375.656v4.218q2.626,1.594,2.906,3.188a1.676,1.676,0,0,1-.656,1.968q-1.312.563-1.781-.562a5.109,5.109,0,0,1,0-1.406,2.3,2.3,0,0,0-.562-2.344q0,6.75-1.031,9.281a7.033,7.033,0,0,1-4.125,4.126l-.562.281a3.244,3.244,0,0,1-.8.333Q-2101.237-8.471-2100.56-8.992Zm15.938-1.125V-28.586q-.188-1.5,1.125-1.125h.187q3.188.281,1.875,1.219-.281.281-.281.375v17.906q.188,1.593-1.407,1.593a2.189,2.189,0,0,1-.58.09Q-2084.773-8.527-2084.621-10.117Zm-6.563-1.313V-27.648q-.187-1.314,1.219-.938,2.907.468,1.781,1.312c-.187.188-.281.312-.281.375v3.656q3.281,1.219,3.562,3.188a1.844,1.844,0,0,1-1.125,1.969q-1.312.374-1.594-.844a2.364,2.364,0,0,1,0-.938,3.886,3.886,0,0,0-.843-3.093V-11.8q.093,1.312-1.313,1.406a2.315,2.315,0,0,1-.453.05Q-2091.184-10.349-2091.184-11.43Zm49.706.375v-5.438q0-.937,1.969-.187a3.861,3.861,0,0,0,.656.187h1.688q.093,0,.375-.374.938-1.031,1.5-.469a3.661,3.661,0,0,1-.375-.844,3.311,3.311,0,0,0-.281-.937,4.06,4.06,0,0,0-1.312-1.125q-.375-.188-.375-.282.188-.281,1.875-.094a6.588,6.588,0,0,1,2.156.75q1.125.751.938,1.688a2.034,2.034,0,0,1-1.5,1.5q.656.468.656.844,0,.093-.281.281-.375.281-.375.469v3.375q.188.749-1.5.843-.937.094-.937-.562v-.75h-2.438v.656q.094.844-1.781,1.031Q-2041.571-10.492-2041.478-11.055Zm2.437-4.313v2.813h2.438v-3.562h-1.687a1.153,1.153,0,0,0-.142-.009Q-2039.041-16.126-2039.041-15.368Zm-88.012,3.375a8.152,8.152,0,0,1-1.22-3.281,11.565,11.565,0,0,1,3.188-.657v-6.281h-2.531a.809.809,0,0,1-.562-.281q-.095-.188.281-.188h2.813v-6.093q-.093-.751.75-.657h.282q2.063.188,2.063.375c.124.187.062.375-.188.563a.811.811,0,0,0-.281.563v5.25h.469q.093,0,.374-.562.563-.844.751-.843.656,0,1.688,1.312v-5.437q-.282-.844,3,.563h4.406c.062,0,.219-.188.469-.562q.561-.938.843-.938a4.97,4.97,0,0,1,3.188,1.875q0,.095-.375.375a4.556,4.556,0,0,0-.562.656v11.437q.281.563-1.781.844-.938.093-.938-.656V-27.274h-5.062q-.749,0-.656,1.219v11.438q.281.937-1.968,1.031-.658.093-.562-.657V-16.4q-.844.468-3,1.781a35.342,35.342,0,0,1-4.844,2.636C-2127.039-11.981-2127.049-11.985-2127.053-11.993Zm4.594-4.312a10.168,10.168,0,0,0,1.312-.188q1.5-.188,1.969-.281v-5.438h-3.281Zm-22.744,1.687v-8.531q-.188-1.126,2.344.187h1.313c.062,0,.219-.157.468-.469q.47-.656.657-.656,2.343,1.031,2.437,1.688a.768.768,0,0,1-.282.469,1.447,1.447,0,0,0-.281.374v5.813q.188,1.031-1.781,1.125-.751.093-.75-.562v-1.031h-1.781v1.219q0,.656-1.312.844a1.545,1.545,0,0,1-.375.094.867.867,0,0,1-.236.037Q-2145.2-14.017-2145.2-14.617Zm2.344-6.938v4.969h1.781v-6h-1.125a.89.89,0,0,0-.111-.007Q-2142.945-22.593-2142.86-21.555Zm41.55,3.469a1.793,1.793,0,0,1,.656-1.125,3.672,3.672,0,0,0,1.125-3.375q.281-1.031,1.312,1.593a4.184,4.184,0,0,1,.188,2.719A2.327,2.327,0,0,1-2100-16.586Q-2101.216-16.586-2101.309-18.086Zm33.525-.375a7.454,7.454,0,0,0,3.375-3.281,15.341,15.341,0,0,0,1.125-6h-2.625a.369.369,0,0,1-.375-.281c-.062-.125,0-.187.188-.187h7.875c.125,0,.25-.125.374-.375q.282-.751.751-.75a4.015,4.015,0,0,1,2.906,1.968,2.421,2.421,0,0,1-.375.656c-.249.188-.375.344-.375.469q-.187,5.063-.844,5.907a3.052,3.052,0,0,1-1.5,1.031,3.1,3.1,0,0,1-1.968.094.765.765,0,0,1-.187-.562q0-.844-1.594-1.5-.563-.281.656-.375a4.224,4.224,0,0,0,1.875-.374q.563-.094.656-4.782v-.938h-1.593q-.75-.093-.938.844-1.031,5.625-4.031,7.5a16.859,16.859,0,0,1-2.906,1.313,4.285,4.285,0,0,1-.8.124Q-2068.6-17.961-2067.784-18.461Zm74.7-.094q-1.126-.375-1.031-1.313a1.552,1.552,0,0,1,.094-.374,1.768,1.768,0,0,0-.843-2.532q-.657-.375.468-.187a7.077,7.077,0,0,0,1.688,0q1.031-.375,4.782-5.062.656-.751.187.187-3.093,4.313-3.375,6a1.879,1.879,0,0,0,0,.843,3.837,3.837,0,0,1-.374,1.876,1.28,1.28,0,0,1-1.108.633A1.854,1.854,0,0,1-1993.084-18.554Zm-.094-7.032a3.418,3.418,0,0,1-.188-.843,2.664,2.664,0,0,0-1.219-2.156q-.375-.375,1.5-.094a5.757,5.757,0,0,1,1.968.75,1.808,1.808,0,0,1,.188,2.625,1.843,1.843,0,0,1-1.148.546Q-1992.712-24.759-1993.178-25.586Zm-155.681-.374Zm24.806-3.469h0Z" transform="translate(2153.5 30.5)" fill="#fff" stroke="rgba(0,0,0,0)" stroke-width="1"/>
</svg>
