<svg xmlns="http://www.w3.org/2000/svg" width="372.69" height="109.061" viewBox="0 0 372.69 109.061">
  <path id="pic_login_title" d="M2314.217,106.953v-19.2q-.328-2.133,1.477-1.313a.472.472,0,0,0,.328.165,11.5,11.5,0,0,0,3.281,1.312h9.187q.328,0,.82-.82a3.751,3.751,0,0,1,.985-1.149q.656-.328,4.922,2.461,2.624-3.445.656-3.937h-23.789q.82,3.609-1.641,5.086-1.97,1.149-3.118,0a2.634,2.634,0,0,1-.328-3.281l.984-.985a3.029,3.029,0,0,0,.984-4.265q-5.085,3.937-3.609,1.968a30.526,30.526,0,0,0,6.234-12.3q.328-1.8,1.8-1.312,7.218,1.312,4.266,2.133a1.789,1.789,0,0,0-.657.328,20.286,20.286,0,0,1-1.312,1.641q-.821,1.149-.985,1.313h4.922q.164,0,.985-1.148.984-1.642,1.312-1.641a9.466,9.466,0,0,1,2.789,1.476,7.053,7.053,0,0,1,.985.656l.184-.367-.02.04a15.236,15.236,0,0,0,.985-2.953.955.955,0,0,0,.164-.657,1.056,1.056,0,0,1,1.477-.82q6.89.821,4.265,1.969a5.02,5.02,0,0,0-.656.491,28.48,28.48,0,0,0-2.625,2.954h6.234a6.452,6.452,0,0,0,1.312-1.477q.984-1.312,1.148-1.312.984-.165,3.445,2.3a1.34,1.34,0,0,1,.492.82q-.163.328-.985.328h-9.679q3.61,1.8,3.774,3.774.163,1.64-1.8,2.788-1.969.821-2.625-.656a5.081,5.081,0,0,1-.328-2.132q.164-2.626-1.968-3.281a7.907,7.907,0,0,0-1.148.984,20.768,20.768,0,0,1-2.3,1.641q3.937,2.461,1.476,5.251h8.7q.328,0,.985-.985.656-1.312,1.312-1.477a10.388,10.388,0,0,1,5.578,4.922q0,.493-1.148.492a11.2,11.2,0,0,0-6.4,2.133q0,.163-.984.82l-.492.492v3.445a1.97,1.97,0,0,1-1.641,1.969q3.938,2.461,3.938,2.953a1.594,1.594,0,0,1-.329.82,2.029,2.029,0,0,0-.492,1.148v4.922q.164,1.64-3.117,1.969-1.805.163-1.8-1.641V104h-11.977v2.132q.164,1.149-2.461,1.805a4.2,4.2,0,0,1-.923.123Q2314.094,108.061,2314.217,106.953Zm4.43-3.774h11.977V98.422h-11.977Zm0-5.578h10.992a8.108,8.108,0,0,1,1.148-1.641l.164-.164a1.772,1.772,0,0,0-.656-.329q-.984-.328-.985-.984v-.821h-10.664Zm0-7.711v2.954h10.664V88.578h-9.187c-.109-.011-.212-.016-.309-.016Q2318.5,88.562,2318.647,89.89Zm-9.187-9.351a1.9,1.9,0,0,1,.328.492,20.494,20.494,0,0,1,2.132,2.789h10.829a9.826,9.826,0,0,1,.164-1.477A3.337,3.337,0,0,0,2321.6,78.9q-.657-.821,1.969-.492.984-1.8,1.641-2.953h-9.516q4.1,3.117,3.61,5.25a2.678,2.678,0,0,1-2.789,1.969q-1.805-.328-1.641-2.462v-.492q.163-2.952-1.313-3.609A54.567,54.567,0,0,1,2309.459,80.539ZM2252.2,105.476a9.422,9.422,0,0,0-5.742-4.922q-3.61,4.266-11.32,6.4-2.3.491-1.969.164,8.2-3.938,9.68-7.711,2.132-4.1,1.641-15.585v-.328q-.33-1.8,1.312-1.641,5.25.165,3.609,1.477a1.681,1.681,0,0,0-.328.656q-.328,12.633-2.133,15.914,7.383.984,9.023,2.625a3.037,3.037,0,0,1,1.312,3.281,2.573,2.573,0,0,1-2.625,1.968Q2253.186,107.773,2252.2,105.476Zm187.2.821q5.413-2.626,6.89-4.594,2.626-4.265,2.461-12.469a6.884,6.884,0,0,0-1.148.165,2.7,2.7,0,0,1-.657.164q-.491-.165-1.312-2.461-.656-1.97-.328-2.3a5.085,5.085,0,0,1,1.148-.328,3.506,3.506,0,0,0,2.132-.821,34.225,34.225,0,0,0,3.774-6.4h-6.071a1.335,1.335,0,0,1-.984-.329q-.33-.328.164-.328h9.023a5.246,5.246,0,0,1-.821-3.61,3.567,3.567,0,0,0-1.312-3.117c-.219-.11-.329-.219-.329-.328q5.087-.328,6.727,2.954.821,1.968-1.312,4.1h4.1q.328,0,1.641-1.641,1.149-1.477,1.313-1.477a7.811,7.811,0,0,1,3.445,2.625q.656.821.492.985a3.324,3.324,0,0,1-1.477.164h-7.711q.984.656-1.312,1.969a53.537,53.537,0,0,0-7.711,5.906h11.485a12.332,12.332,0,0,0-2.789-3.609c-.329-.328-.437-.492-.329-.492a11.454,11.454,0,0,1,8.039,3.773,4,4,0,0,1,.492,3.61,2.744,2.744,0,0,1-2.625,1.641q-1.8,0-2.3-3.445l-5.415.82q6.727,1.312,4.1,2.625c-.219.109-.328.219-.328.328v11.156q-.164,1.477,1.968,1.477,1.968,0,3.445-3.118.493-.984.656-.984t.165.491a4.873,4.873,0,0,0,.656,2.954,1.849,1.849,0,0,0,.656.656q1.149.491.985,1.476-.493,2.626-7.055,2.625-4.1-.163-5.25-.985-1.149-.656-.985-3.445V87.593l-4.43.985q4.759.984,2.789,2.462-.328.328-.328.491-.984,8.039-4.1,11.321a23.4,23.4,0,0,1-11.976,4.429Q2437.756,107.118,2439.4,106.3Zm-35.437-.165q-.328-2.461-3.937-3.28-1.312-.493,1.312-.492a10.364,10.364,0,0,0,3.445-.328,1.587,1.587,0,0,0,.821-1.8V92.844l-7.711,1.148q7.218,4.1,3.61,4.265a12.112,12.112,0,0,0-1.313.492q-8.367,5.415-10.828,4.594a34.186,34.186,0,0,0,7.875-9.187,10.333,10.333,0,0,0-1.968.656,2.127,2.127,0,0,1-1.477.328q-.493-.493-1.148-4.594-.328-1.314,1.477-1.148a3.568,3.568,0,0,0,1.968-.165q.493-.328.328-.164,5.906-3.445,11.156-6.89a39.374,39.374,0,0,0-9.679,2.461,3.762,3.762,0,0,1-1.148.328q-.656-.493-.985-3.445-.163-1.8.821-1.805a2.33,2.33,0,0,0,1.312-.328,35.958,35.958,0,0,0,4.43-4.922q-4.429.328-8.531.328a8.14,8.14,0,0,1-2.46-.165q-.165-.163,1.8-.656,18.375-2.952,22.64-4.757a6.38,6.38,0,0,1,.82-.328q1.97-1.64,4.922,1.477,5.087,4.594.165,3.445a23.292,23.292,0,0,0-3.281-.328q-.821,0-2.954.165-5.578.328-7.054.328,2.789,1.149-.656,2.3a42.337,42.337,0,0,0-7.383,4.266h9.351a36.336,36.336,0,0,0,4.594-4.1,1.438,1.438,0,0,1,2.461-.165q5.741,4.266,2.46,4.1a2.4,2.4,0,0,0-.984.328q-9.68,5.085-18.539,8.7l17.883.164a9.357,9.357,0,0,0-3.117-4.43,10.238,10.238,0,0,1,8.039,4.1q1.312,2.789-.164,4.594-2.461,1.97-4.1,0a4.083,4.083,0,0,1-.164-1.476,9.925,9.925,0,0,1-.164-1.477l-7.055,1.148v10.829q-.163,3.937-6.4,3.938Q2403.959,106.79,2403.959,106.132Zm-134.695-.82v-33.8q0-1.97,4.1,0a7.311,7.311,0,0,0,1.8.656h11.976q.164,0,.821-.82,1.149-1.8,1.641-1.805a13.968,13.968,0,0,1,5.742,3.938q0,.328-.985,1.148c-.328.219-.492.383-.492.492v29.367q.493,1.314-3.445,1.641-1.968.165-1.968-.984v-3.774h-14.274v3.609q.165,1.314-3.281,1.641-.164.017-.312.017A1.174,1.174,0,0,1,2269.265,105.313Zm4.921-4.758h14.274V91.367h-14.274Zm0-9.843h14.274V82.18h-14.274Zm0-15.75v6.4h14.274V72.828h-11.977Q2274.186,72.828,2274.186,74.961Zm84,29.2a.663.663,0,0,1-.657-.328c-.109-.328-.054-.492.165-.492h11.648V95.8h-7.875a.662.662,0,0,1-.656-.329q-.163-.491.328-.491h8.2V88.086h-3.609v1.477q.328,1.149-2.3,1.477-1.968.656-1.8-1.313V84.969h-6.071v9.843q8.2-1.968,5.906-.656-10.007,5.743-11.484,7.547a4.039,4.039,0,0,1-1.477.821q-.819-.165-1.8-4.266-.819-1.8,2.133-2.132a12.063,12.063,0,0,0,2.3-.492V84.969h-3.774a1.1,1.1,0,0,1-.984-.492q0-.328.656-.328h4.1V73.976h-3.117c-.438,0-.711-.109-.821-.328s.055-.328.492-.328h7.711q.163,0,.656-.985,1.149-1.8,1.476-1.8.821-.163,2.789,1.312.821.493,1.313.821V71.352q0-.986.328-1.149t1.477.492c.329.11.438.165.329.165a6.549,6.549,0,0,0,2.624.984H2376.4q.165,0,.492-.656.656-1.477,1.312-1.476,4.429.984,5.086,3.609,0,.165-.492.492c-.437.328-.656.547-.656.656V88.25q.328,1.8-3.117,2.3-1.969.656-1.805-1.313V87.922h-3.609v7.055h3.117q.164,0,1.148-1.313a6.4,6.4,0,0,1,1.312-1.641q.984,0,3.938,2.625.493.656.329.82,0,.328-.821.329h-9.023v7.546h4.43q.163,0,.985-1.148.984-1.8,1.476-1.968,1.149,0,4.1,2.789.82.656.656.985a3.982,3.982,0,0,1-1.641.164Zm15.422-16.9h3.609v-6.89h-3.609Zm-7.875,0h3.609v-6.89h-3.609Zm-8.039-5.578a8.08,8.08,0,0,1,2.953,1.641q.821.656.985.82V73.813l-4.758.164q-1.475-.163-1.312,1.477v8.531q.165,0,.82-.985.887-1.329,1.241-1.329A.16.16,0,0,1,2357.694,81.688Zm8.039-7.711v5.742h3.609V72.5h-2.132c-.11-.01-.213-.015-.311-.015Q2365.435,72.485,2365.733,73.976Zm7.875-.164v5.742h3.609V72.5h-2.46a2,2,0,0,0-.249-.017Q2373.46,72.484,2373.608,73.813Zm45.282,29.2a10.769,10.769,0,0,1-.492-1.477q-1.314-4.757-4.758-6.071-.984-.491,1.477-.328,7.547,1.147,9.023,4.594a3.15,3.15,0,0,1-1.312,3.774,3.694,3.694,0,0,1-1.818.553A2.82,2.82,0,0,1,2418.89,103.016Zm12.632-1.313q-.656-1.8-.164-2.3a2.855,2.855,0,0,1,1.148-.328q2.789-.328,6.562-1.148,2.461-.493,5.578-1.148,2.133-.493,1.969-.328.163.165-3.118,1.8-2.461,1.314-4.1,2.133a51.24,51.24,0,0,0-5.25,3.118,3.627,3.627,0,0,1-.985.492Q2432.342,103.671,2431.522,101.7Zm-180.305-4.1V80.211H2244q-1.969-.163-1.805,1.969V96.453q.328,1.312-3.117,2.133-1.64.163-1.641-1.312V79.883q0-1.642,1.8-1.477.493.165,1.313.492a11.4,11.4,0,0,0,1.968.492h1.641a33.939,33.939,0,0,0,0-6.727h-7.055a1.114,1.114,0,0,1-.82-.328q-.165-.491.329-.492h14.6q.493,0,1.805-1.8.82-1.149,1.148-1.148a11.052,11.052,0,0,1,4.1,2.625q.821.656.656.82-.163.328-1.312.328h-6.071q.165.328-.329.656-2.952,1.64-4.594,6.234h3.774q.328,0,.985-.82.491-.985.985-1.148,3.936.984,5.25,3.445,0,.491-.821.984-.82.657-.82,1.149V96.945q.163,1.312-2.46,1.641a5.543,5.543,0,0,1-1.067.123Q2251.094,98.709,2251.217,97.6Zm-29.531.985a9.992,9.992,0,0,1-2.3-5.414q.163-.328,2.953-.656,1.968-.328,3.281-.492V74.8h-4.43q-.656,0-.82-.328t.328-.328h9.516q.328,0,1.148-1.476.984-1.477,1.148-1.477,1.477.165,4.1,2.953.491.493.328.657a1.3,1.3,0,0,1-.82.164H2231.2a.871.871,0,0,0-.985.985V91.531a37.924,37.924,0,0,1,5.415-.491q1.64,0,.492.491-7.22,3.775-10.008,5.251-3.107,1.891-4.1,1.891A.539.539,0,0,1,2221.686,98.586Zm211.969-2.625q-1.64-1.147-1.641-4.43,0-.163.82-.328a4.462,4.462,0,0,0,2.133-.656q1.64-1.314,3.938-6.563a19.748,19.748,0,0,0-5.086,1.8,3.771,3.771,0,0,1-1.148.328q-1.312-.984-1.477-4.43h.492q1.805-.165,1.969-.821a57.013,57.013,0,0,0,3.281-9.843,2.856,2.856,0,0,1,.328-1.148q.821-.328,3.445.656,2.626,1.149,2.461,1.8c0,.11-.165.274-.492.492q-2.626,1.968-7.711,9.187h4.922q.491-1.148,1.148-2.953a5.668,5.668,0,0,1,1.148-1.968,9.049,9.049,0,0,1,5.906,2.953,3.793,3.793,0,0,1-.82.492q-1.64,0-10.664,11.156h4.922a21.791,21.791,0,0,1,4.265,0q-.163.328-5.086,1.641-3.281,1.147-5.742,2.3a2.836,2.836,0,0,1-1.107.369A.455.455,0,0,1,2433.655,95.961Zm57.576-52.07q9.938-3,12.375-6,3-2.813,2.813-10.313,0-1.687,1.5-1.5,8.062.374,4.874,2.437c-.25.25-.374.437-.374.563a44.257,44.257,0,0,1-1.313,6,50.08,50.08,0,0,1,6.188.75v-12h-12.937q-2.249-.188-2.062,1.875v8.625q.374,2.438-3.375,2.625-2.063.563-1.876-1.687V24.2q-2.249.188-2.624.188-.375-.188.937-.751,14.626-4.312,16.313-16.687h-.937q-6.75,9-9,8.249,3.561-4.687,5.437-13.5,0-1.875,1.688-1.312,7.688.937,4.5,2.812l-.562.563q-.937,1.5-1.5,2.437h9.75q.375,0,.938-1.312t1.125-1.5q6,1.875,6.937,5.251-.375.562-1.687.563-1.312.188-2.25.374a9.3,9.3,0,0,0-4.313,2.813q-1.312,1.314-.562-.374,1.126-4.126.938-5.063h-6.375q3.187.937,3,1.688a2.348,2.348,0,0,1-.562.937,1.124,1.124,0,0,0-.75.751q2.437,6.375,13.687,7.875,1.125.188-.187.937a.542.542,0,0,1-.375.188,8.486,8.486,0,0,0-2.812,3.375q-.563,1.875-1.875,1.312-5.626-2.438-9.751-11.625-3.75,7.125-13.5,10.687h13.126q.374,0,.75-.937a2.227,2.227,0,0,1,1.312-1.313q5.063,1.126,6.188,4.126c0,.125-.187.249-.562.374-.374.25-.562.5-.562.751v8.062q.188,1.875-2.624,2.063,4.312,1.312,5.437,3.938a2.794,2.794,0,0,1-1.125,3.749,3.013,3.013,0,0,1-3.937-.75,10.825,10.825,0,0,1-.937-1.125q-2.251-3.938-9-6-3,5.063-10.5,7.125a30.449,30.449,0,0,1-7.312,1.5q-.687.031-1.193.031Q2489.2,44.672,2491.231,43.89Zm-81.9-.562q-.187-2.249-2.812-3.187l-.375-.188q-3-.937,1.125-.75a9.172,9.172,0,0,0,3.562-.375q.75-.374.75-2.624V16.89h-21.937a1.7,1.7,0,0,0-1.5,1.688V28.14a26.177,26.177,0,0,0,5.438-8.062q.562-2.624,2.25-1.5,4.875,2.438,4.5,3.188a4.33,4.33,0,0,1-1.125.563,14.68,14.68,0,0,0-1.875.75q-1.875.938-9.187,6V40.7q.188,2.249-2.812,2.624a1.666,1.666,0,0,1-2.063-1.687V14.266q0-1.875,5.063,1.125a5.247,5.247,0,0,0,1.313.75h4.125q-1.312-.563-1.312-3a6.917,6.917,0,0,0-2.812-5.625h-8.063a2.017,2.017,0,0,1-1.125-.375c-.125-.25.063-.375.563-.375h18.563q-1.125-.562-1.125-3a5.237,5.237,0,0,0-1.312-2.437A2.279,2.279,0,0,1,2396.581.2a7.856,7.856,0,0,1,3.562,0,4.611,4.611,0,0,1,2.813.937q2.813,2.813-.562,5.438h11.25q.375,0,1.313-1.5,1.312-2.437,2.062-2.437t3.75,2.437l.563.563q1.125.938.938,1.313-.375.562-2.063.563h-13.875q5.625,1.875,5.25,3,0,.375-1.125.75a17.229,17.229,0,0,0-6.187,4.875h6.188q.562,0,1.688-1.5.937-1.5,1.5-1.5,3.938,1.5,5.25,4.125,0,.375-1.125,1.125-.751.751-.75.938v18q.188,4.124-.937,5.25-1.126,1.5-4.875,2.063a3.227,3.227,0,0,1-.356.021A1.368,1.368,0,0,1,2409.332,43.328ZM2392.831,7.7q5.438,1.688,5.438,4.875a4.45,4.45,0,0,1-1.875,3.562h6.188q.188-.751.563-2.812.562-4.126.937-5.812h-11.812A1.433,1.433,0,0,1,2392.831,7.7Zm-171.975,36.75a11.345,11.345,0,0,1,3-1.125q12-4.5,13.687-12.938.375-3,.563-6.937t0-11.437q-.375-2.626,1.688-2.063h.75q3.563.188,4.126,1.125a1.928,1.928,0,0,1-.375.75,2.357,2.357,0,0,0-.562.938q-.563,15.938-1.5,19.125,7.5,1.688,10.313,3.938,4.312,3.75,1.688,6.937-4.126,3.187-5.813-3.562a12.03,12.03,0,0,0-6.375-6.75q-3.938,9.188-18.187,12a19.892,19.892,0,0,1-2.251.188Q2220.856,44.64,2220.856,44.453Zm245.55-.937V1.7q-.374-1.5,2.063-1.125,5.25.188,3.562,2.438a1.935,1.935,0,0,0-.375.75V42.578q.188,1.688-3.188,1.875a4.428,4.428,0,0,1-1.047.154Q2466.27,44.606,2466.406,43.516Zm-276.937-.562a4.182,4.182,0,0,0-3.188-3.375,6.164,6.164,0,0,1-1.5-.562h3q3.938,0,3.75-2.438V5.64h-16.125q-1.687.188-4.875,5.813a27.372,27.372,0,0,1-1.687,2.813,6.762,6.762,0,0,0-1.125,2.062q0,.375,1.125,1.313a16.868,16.868,0,0,1,4.125,4.5,7.743,7.743,0,0,1,.937,7.124,6.765,6.765,0,0,1-5.25,4.313q-.937,0-1.125-1.125a3.207,3.207,0,0,0-2.437-2.813v11.25q.562,3-3.563,3.188-1.5.188-1.5-1.687V2.828q-.187-1.125.75-1.125a15.881,15.881,0,0,1,4.5,1.688h2.813a9.14,9.14,0,0,1,.563-.937q.375-1.314,1.125-.938,1.688.375,6,3.375h18.187q.188,0,.938-1.125,1.688-2.438,2.437-2.437a11.691,11.691,0,0,1,4.875,3.749q0,.563-1.313.563h-2.812q-.937,0-.937,1.876V39.578q.188,4.875-6.563,4.874Q2189.657,44.453,2189.469,42.953ZM2165.094,5.828V28.7q5.436.751,4.875-5.25-.188-2.624-2.812-6.187-.562-.563-.562-.75a16.325,16.325,0,0,1,.563-2.438q.75-3.563,1.125-5.625V8.078a24.361,24.361,0,0,1,.75-3.938h-2.812Q2165.093,4.141,2165.094,5.828ZM2445.406,43.7q-.563-.188-.938-1.5a4.57,4.57,0,0,0-3.375-3.187q-.937-.375-.75-.751t1.5-.187q4.312.375,5.812-.562,1.688-.751,2.063-3.375a99.672,99.672,0,0,0,1.5-10.125h-7.687q-.187,0-.938.938-.751,1.312-1.312,1.5a7.991,7.991,0,0,1-5.438-2.062,1.535,1.535,0,0,1,.563-.938,8.337,8.337,0,0,0,.75-2.063q.375-3,.75-6.562,0-2.438.375-2.25.563-.188,4.5,1.125a5.822,5.822,0,0,1,1.313.374h6.75V5.266h-14.813a1.27,1.27,0,0,1-.937-.375q-.187-.375.375-.375h14.25q.188,0,.937-1.125.938-1.5,1.313-1.5a10.5,10.5,0,0,1,6.188,3.562q.188.375-1.125,1.5-.563.374-.562.563v9a1.687,1.687,0,0,1-.562,1.5,6.248,6.248,0,0,1-2.812.563q-2.438.375-2.25-1.5V15.016h-5.062q-2.813-.188-2.812,2.063,0,.937-.562,6.188h7.875q.188,0,1.125-1.125.937-1.314,1.312-1.313,4.312,1.5,5.812,4.313,0,.375-.75.75a3.294,3.294,0,0,0-1.125,1.313,5.5,5.5,0,0,1-.187,1.312,87.422,87.422,0,0,1-2.063,10.5,6.236,6.236,0,0,1-3.375,3.562,8.774,8.774,0,0,1-4.289,1.266A6.354,6.354,0,0,1,2445.406,43.7Zm-103.462-1.687V24.953q0-1.5.374-1.687.375-.375,1.5.187a34.782,34.782,0,0,1,3.562,1.312,3.081,3.081,0,0,0,.751.188h7.124q.188,0,.751-.938a3.167,3.167,0,0,1,1.312-1.312q5.813,1.5,6.563,3.938a4.024,4.024,0,0,1-.751.937c-.374.25-.562.437-.562.563v12q0,1.5-.562,1.875a6.28,6.28,0,0,1-3,.938q-2.251.374-2.437-1.313V39.2h-9v2.063q.375,1.875-3.75,2.25-.188.019-.356.019A1.342,1.342,0,0,1,2341.944,42.016Zm5.625-13.875v10.5h9V25.89h-6.938q-.161-.013-.309-.013Q2347.4,25.877,2347.569,28.14Zm-19.876,15a1.491,1.491,0,0,1-.187-.938q-.188-2.437-3.188-3.187-2.061-1.126,1.125-.938,4.126-.188,4.126-1.312V25.516q-1.312.749-3,1.875-1.312.937-1.875.75-.749-.188-1.687-4.312.188.188,0-.375-.563-1.312,1.875-1.687a28.481,28.481,0,0,0,4.688-1.125v-9h-5.625a1.082,1.082,0,0,1-.751-.375.332.332,0,0,1,.375-.374h6v-9q-.375-2.063,1.875-1.876,5.813.188,3.75,2.063-.375.375-.375.563v7.875a13.335,13.335,0,0,0,.938-1.312,9.188,9.188,0,0,1,1.688-1.876,14.112,14.112,0,0,1,4.687,3.563q.75.937-1.875.937h-5.438v7.5q6-2.063,6.375-1.687t-3.187,2.437q-2.063,1.312-3.188,2.063V36.766a7.417,7.417,0,0,1-1.5,5.063,8.515,8.515,0,0,1-3,1.312,9.827,9.827,0,0,1-1.688.188A1.757,1.757,0,0,1,2327.693,43.141Zm-58.012-1.125a14.273,14.273,0,0,0,5.25-7.688q1.314-4.5,1.5-15V3.2q0-2.063.375-2.25.188-.375,2.25-.187,6,.749,3.562,2.813a2.875,2.875,0,0,0-.75,1.312v8.437q5.25,3.187,5.812,6.375.563,2.813-1.312,3.938-2.626,1.126-3.563-1.125a10.363,10.363,0,0,1,0-2.812q.563-3.375-1.125-4.687,0,13.5-2.062,18.563-1.687,5.25-8.25,8.25l-1.125.563a6.5,6.5,0,0,1-1.592.667Q2268.328,43.057,2269.681,42.016Zm31.875-2.25V2.828q-.375-3,2.25-2.25h.374q6.376.563,3.75,2.438-.563.562-.562.75V39.578q.375,3.187-2.812,3.187a4.383,4.383,0,0,1-1.16.181Q2301.254,42.946,2301.557,39.766Zm-13.126-2.625V4.7q-.374-2.626,2.438-1.876,5.812.938,3.562,2.625-.563.563-.562.75v7.313q6.563,2.438,7.125,6.376a3.69,3.69,0,0,1-2.25,3.938q-2.626.749-3.188-1.687a4.691,4.691,0,0,1,0-1.876,7.774,7.774,0,0,0-1.687-6.187V36.391q.188,2.624-2.625,2.813a4.643,4.643,0,0,1-.905.1Q2288.431,39.3,2288.431,37.14Zm104.213.751V27.015q0-1.875,3.938-.374a7.866,7.866,0,0,0,1.312.374h3.375q.188,0,.75-.75,1.875-2.063,3-.938a7.284,7.284,0,0,1-.75-1.687,6.693,6.693,0,0,0-.562-1.875,8.14,8.14,0,0,0-2.625-2.25q-.751-.375-.75-.562.374-.563,3.75-.187a13.169,13.169,0,0,1,4.313,1.5q2.25,1.5,1.875,3.375a4.066,4.066,0,0,1-3,3q1.312.937,1.312,1.688,0,.188-.562.563-.749.562-.75.937v6.75q.375,1.5-3,1.688-1.875.188-1.875-1.125v-1.5h-4.875v1.312q.188,1.688-3.563,2.063Q2392.456,39.016,2392.644,37.891Zm4.875-8.626V34.89h4.875V27.766h-3.375a2.3,2.3,0,0,0-.285-.019Q2397.519,27.747,2397.519,29.265Zm-183.225,6.75a16.3,16.3,0,0,1-2.438-6.562,23.075,23.075,0,0,1,6.376-1.313V15.578h-5.062a1.617,1.617,0,0,1-1.125-.562q-.188-.375.563-.375h5.625V2.453q-.188-1.5,1.5-1.313h.563q4.126.375,4.126.751.374.562-.375,1.125a1.618,1.618,0,0,0-.562,1.125v10.5h.938q.186,0,.75-1.125,1.125-1.687,1.5-1.687,1.312,0,3.375,2.625V3.578q-.563-1.687,6,1.125h8.813q.188,0,.938-1.125,1.124-1.875,1.688-1.876,4.687,1.126,6.375,3.75,0,.188-.75.75a9.018,9.018,0,0,0-1.125,1.313V30.39q.561,1.126-3.563,1.688-1.875.188-1.875-1.312V5.453h-10.125q-1.5,0-1.312,2.437V30.766q.561,1.875-3.937,2.063-1.314.188-1.125-1.313V27.2q-1.687.937-6,3.562-8.964,5.274-9.69,5.273C2214.322,36.039,2214.3,36.031,2214.294,36.015Zm9.187-8.625a20.244,20.244,0,0,0,2.625-.375q3-.374,3.938-.562V15.578h-6.563Zm-47.888,3.375V13.7q-.374-2.25,4.688.374h2.625q.188,0,.938-.937.937-1.314,1.312-1.313,4.689,2.063,4.875,3.375a1.535,1.535,0,0,1-.562.938,2.947,2.947,0,0,0-.562.75V28.516q.375,2.063-3.562,2.25-1.5.188-1.5-1.125V27.578h-3.562v2.438q0,1.312-2.625,1.688a3.057,3.057,0,0,1-.75.187,1.738,1.738,0,0,1-.473.075Q2175.594,31.966,2175.594,30.766Zm4.688-13.875v9.938h3.562v-12h-2.25a1.778,1.778,0,0,0-.221-.014Q2180.109,14.814,2180.281,16.89Zm87.9,6.938a3.589,3.589,0,0,1,1.313-2.25,7.345,7.345,0,0,0,2.25-6.75q.561-2.063,2.624,3.187a8.369,8.369,0,0,1,.375,5.438q-1.312,3.187-3.937,3.375Q2268.369,26.828,2268.181,23.828Zm69.45-.751q5.063-2.812,6.75-6.562,1.875-3.563,2.25-12h-5.25a.736.736,0,0,1-.751-.563c-.124-.249,0-.374.375-.374h15.75q.375,0,.75-.751.563-1.5,1.5-1.5,4.5,1.125,5.812,3.938a4.855,4.855,0,0,1-.75,1.312q-.749.563-.75.938-.375,10.125-1.687,11.812a6.118,6.118,0,0,1-3,2.062,6.2,6.2,0,0,1-3.937.188,1.532,1.532,0,0,1-.374-1.125q0-1.687-3.188-3-1.125-.562,1.312-.75,3-.188,3.75-.75,1.124-.188,1.312-9.563V4.515h-3.187q-1.5-.188-1.876,1.688-2.061,11.251-8.062,15a33.616,33.616,0,0,1-5.812,2.625,8.565,8.565,0,0,1-1.6.25Q2336.006,24.078,2337.631,23.078Zm156.6-.187q-2.249-.751-2.062-2.625a3.06,3.06,0,0,1,.187-.75q1.5-3.187-1.687-5.062-1.312-.751.938-.375a14.061,14.061,0,0,0,3.375,0q2.061-.749,9.563-10.125,1.312-1.5.374.375-6.187,8.625-6.75,12a3.741,3.741,0,0,0,0,1.688,7.658,7.658,0,0,1-.75,3.75,2.559,2.559,0,0,1-2.215,1.266A3.7,3.7,0,0,1,2494.231,22.891Zm-.187-14.062a6.874,6.874,0,0,1-.375-1.687,5.329,5.329,0,0,0-2.437-4.313q-.75-.749,3-.187a11.556,11.556,0,0,1,3.938,1.5q2.438,2.249.375,5.25a3.682,3.682,0,0,1-2.3,1.093Q2494.975,10.483,2494.044,8.828Zm-325.763-.75Zm52.013-6.938h0Z" transform="translate(-2159.501 0.5)" fill="#fff" stroke="rgba(0,0,0,0)" stroke-width="1"/>
</svg>
