<svg xmlns="http://www.w3.org/2000/svg" xmlns:xlink="http://www.w3.org/1999/xlink" width="730.942" height="129.736" viewBox="0 0 730.942 129.736">
  <defs>
    <filter id="pic_guide_title" x="0" y="0" width="730.942" height="129.736" filterUnits="userSpaceOnUse">
      <feOffset dy="5" input="SourceAlpha"/>
      <feGaussianBlur stdDeviation="15" result="blur"/>
      <feFlood flood-color="#050833" flood-opacity="0.502"/>
      <feComposite operator="in" in2="blur"/>
      <feComposite in="SourceGraphic"/>
    </filter>
  </defs>
  <g transform="matrix(1, 0, 0, 1, 0, 0)" filter="url(#pic_guide_title)">
    <path id="pic_guide_title-2" data-name="pic_guide_title" d="M-283.2-29.2q1.148,0,1.148-.492a10.227,10.227,0,0,0-4.266-3.281q-.656,0-2.133,2.133-.656.984-.82.984h-15.914q-3.773-2.625-5.25-2.953-.656-.328-.984.82a8.026,8.026,0,0,0-.492.82h-2.461a13.891,13.891,0,0,0-3.937-1.477q-.82,0-.656.984V2.953q0,1.641,1.313,1.477,3.609-.164,3.117-2.789V-8.2a2.805,2.805,0,0,1,2.133,2.461q.164.984.984.984a5.919,5.919,0,0,0,4.594-3.773,6.777,6.777,0,0,0-.82-6.234,14.766,14.766,0,0,0-3.609-3.937q-.984-.82-.984-1.148a5.9,5.9,0,0,1,.984-1.8,24.078,24.078,0,0,0,1.477-2.461q2.789-4.922,4.266-5.086h14.109v27.07Q-291.244,0-294.689,0h-2.625A5.39,5.39,0,0,0-296,.492a3.66,3.66,0,0,1,2.789,2.953q.164,1.312.984,1.313,5.906,0,5.742-4.266V-27.562q0-1.641.82-1.641ZM-311.1-30.516a21.347,21.347,0,0,0-.656,3.445v.328q-.328,1.8-.984,4.922a14.224,14.224,0,0,0-.492,2.133q0,.164.492.656a11.038,11.038,0,0,1,2.461,5.414q.492,5.25-4.266,4.594V-29.039q0-1.477.984-1.477ZM-293.7-19.359a2.571,2.571,0,0,1,.492-.656,1.344,1.344,0,0,0,.492-.82q-.164-1.148-4.266-2.953-.328,0-1.148,1.148-.656.82-.82.82h-2.3q-4.43-2.3-4.1-.328v14.93q0,1.313,1.148.984a2.685,2.685,0,0,0,.656-.164q2.3-.328,2.3-1.477v-2.133h3.117v1.8q0,1.148,1.313.984,3.445-.164,3.117-1.969Zm-7.547,0q-.164-1.969,1.148-1.8h1.969v10.5h-3.117Zm39.9-11.156a1.418,1.418,0,0,1,.492-.984q.656-.492.328-.984,0-.328-3.609-.656h-.492q-1.477-.164-1.312,1.148v10.664h-4.922q-.656,0-.492.328a1.418,1.418,0,0,0,.984.492h4.43V-9.516a20.2,20.2,0,0,0-5.578,1.148,14.262,14.262,0,0,0,2.133,5.742q.164.328,8.531-4.594,3.773-2.3,5.25-3.117v3.773q-.164,1.313.984,1.148,3.938-.164,3.445-1.8V-27.234q-.164-2.133,1.148-2.133h8.859V-7.219q0,1.313,1.641,1.148,3.609-.492,3.117-1.477V-27.562a7.953,7.953,0,0,1,.984-1.148q.656-.492.656-.656-1.477-2.3-5.578-3.281-.492,0-1.477,1.641-.656.984-.82.984h-7.711q-5.742-2.461-5.25-.984v9.516q-1.8-2.3-2.953-2.3-.328,0-1.312,1.477-.492.984-.656.984h-.82Zm14.93,5.086h-.656q-1.8-.492-1.477,1.8.164,6.563,0,10.008t-.492,6.07q-1.477,7.383-11.977,11.32a9.912,9.912,0,0,0-2.625.984q0,.328,2.625,0,12.469-2.461,15.914-10.5A10.525,10.525,0,0,1-239.531.164q1.477,5.906,5.086,3.117,2.3-2.789-1.477-6.07-2.461-1.969-9.023-3.445.82-2.789,1.313-16.734a2.059,2.059,0,0,1,.492-.82,1.691,1.691,0,0,0,.328-.656Q-243.3-25.266-246.422-25.43Zm-9.187,4.922v9.516q-.82.164-3.445.492a17.729,17.729,0,0,1-2.3.328V-20.508Zm69.759-10.336q0-.164.492-.656,2.3-1.641-3.281-2.133h-.328q-2.3-.656-1.969,1.969V.656q-.328,3.445,2.625,2.625,2.789,0,2.461-2.789Zm-22.312.984a2.517,2.517,0,0,1,.656-1.148q2.133-1.8-3.117-2.461-1.8-.164-1.969.164-.328.164-.328,1.969v14.109q-.164,9.188-1.312,13.125a12.5,12.5,0,0,1-4.594,6.727q-2.133,1.641.492.328l.984-.492q5.742-2.625,7.219-7.219,1.8-4.43,1.8-16.242,1.477,1.148.984,4.1a9.016,9.016,0,0,0,0,2.461q.82,1.969,3.117.984,1.641-.984,1.148-3.445-.492-2.789-5.086-5.578Zm10.5,1.148q0-.164.492-.656,1.969-1.477-3.117-2.3-2.461-.656-2.133,1.641V-1.641q0,2.3,2.461,1.8Q-197.5,0-197.662-2.3V-21.82a6.8,6.8,0,0,1,1.477,5.414,4.1,4.1,0,0,0,0,1.641q.492,2.133,2.789,1.477a3.227,3.227,0,0,0,1.969-3.445q-.492-3.445-6.234-5.578ZM-214.4-13.617a7.329,7.329,0,0,0-.328-4.758q-1.8-4.594-2.3-2.789a6.424,6.424,0,0,1-1.969,5.906,3.14,3.14,0,0,0-1.148,1.969q.164,2.625,2.3,2.625Q-215.545-10.828-214.4-13.617Zm65-16.57q-.328,7.383-1.969,10.5-1.477,3.281-5.906,5.742-2.133,1.313.82.656a29.373,29.373,0,0,0,5.086-2.3q5.25-3.281,7.055-13.125.328-1.641,1.641-1.477h2.789v1.641q-.164,8.2-1.148,8.367a7.4,7.4,0,0,1-3.281.656q-2.133.164-1.148.656,2.789,1.148,2.789,2.625a1.337,1.337,0,0,0,.328.984,5.424,5.424,0,0,0,3.445-.164,5.353,5.353,0,0,0,2.625-1.8q1.148-1.477,1.477-10.336,0-.328.656-.82a4.268,4.268,0,0,0,.656-1.148q-1.148-2.461-5.086-3.445-.82,0-1.312,1.313-.328.656-.656.656h-13.781q-.492,0-.328.328a.643.643,0,0,0,.656.492ZM-135.45-9.516q0-.164.492-.492a3.519,3.519,0,0,0,.656-.82q-.656-2.133-5.742-3.445a2.775,2.775,0,0,0-1.148,1.148q-.492.82-.656.82h-6.234a2.685,2.685,0,0,1-.656-.164,30.359,30.359,0,0,0-3.117-1.148q-.984-.492-1.312-.164-.328.164-.328,1.477V2.625q0,1.477,1.641,1.313,3.609-.328,3.281-1.969V.164h7.875V2.3q.164,1.477,2.133,1.148a5.5,5.5,0,0,0,2.625-.82q.492-.328.492-1.641Zm-13.125,0q-.164-2.133,1.8-1.969h6.07V-.328h-7.875Zm-11.156-22.312q0-.164.328-.492,1.8-1.641-3.281-1.8-1.969-.164-1.641,1.641v7.875h-5.25a.29.29,0,0,0-.328.328.945.945,0,0,0,.656.328h4.922v7.875a24.936,24.936,0,0,1-4.1.984q-2.133.328-1.641,1.477.164.492,0,.328.82,3.609,1.477,3.773.492.164,1.641-.656,1.477-.984,2.625-1.641v9.844q0,.984-3.609,1.148-2.789-.164-.984.82,2.625.656,2.789,2.789a1.3,1.3,0,0,0,.164.82,3.788,3.788,0,0,0,2.3,0,7.444,7.444,0,0,0,2.625-1.148,6.5,6.5,0,0,0,1.313-4.43v-12.8q.984-.656,2.789-1.8,3.117-1.8,2.789-2.133t-5.578,1.477v-6.562h4.758q2.3,0,1.641-.82a12.344,12.344,0,0,0-4.1-3.117,8.04,8.04,0,0,0-1.477,1.641,11.577,11.577,0,0,1-.82,1.148Zm56.962,23.3q0-1.477,1.313-1.312H-98.5v6.234h-4.266ZM-98.5-28.383q2.953-2.3.492-4.758a4.032,4.032,0,0,0-2.461-.82,6.88,6.88,0,0,0-3.117,0,1.992,1.992,0,0,0,.492.984,4.58,4.58,0,0,1,1.148,2.133q0,2.133.984,2.625h-16.242q-.656,0-.492.328a1.764,1.764,0,0,0,.984.328h7.055a6.051,6.051,0,0,1,2.461,4.922q0,2.133,1.148,2.625h-3.609a4.574,4.574,0,0,1-1.148-.656q-4.43-2.625-4.43-.984V2.3a1.457,1.457,0,0,0,1.8,1.477q2.625-.328,2.461-2.3V-8.7q6.4-4.43,8.039-5.25a12.731,12.731,0,0,1,1.641-.656,3.778,3.778,0,0,0,.984-.492q.328-.656-3.937-2.789-1.477-.984-1.969,1.313a22.9,22.9,0,0,1-4.758,7.055v-8.367a1.487,1.487,0,0,1,1.313-1.477h19.2v16.9q0,1.969-.656,2.3a8.033,8.033,0,0,1-3.117.328Q-97.847,0-95.222.82l.328.164a3.214,3.214,0,0,1,2.461,2.789q.164,1.312,1.641,1.148,3.281-.492,4.266-1.8.984-.984.82-4.594v-15.75q0-.164.656-.82.984-.656.984-.984a7.979,7.979,0,0,0-4.594-3.609q-.492,0-1.312,1.313-.984,1.313-1.477,1.313h-5.414a15.078,15.078,0,0,1,5.414-4.266q.984-.328.984-.656.328-.984-4.594-2.625h12.141q1.477,0,1.8-.492.164-.328-.82-1.148l-.492-.492q-2.625-2.133-3.281-2.133t-1.8,2.133q-.82,1.313-1.148,1.313Zm4.266,20.344q0-.328.656-.82.492-.328.492-.492,0-.656-1.148-1.477a3.558,3.558,0,0,0,2.625-2.625q.328-1.641-1.641-2.953a11.528,11.528,0,0,0-3.773-1.312q-2.953-.328-3.281.164,0,.164.656.492a7.116,7.116,0,0,1,2.3,1.969,5.831,5.831,0,0,1,.492,1.641,6.43,6.43,0,0,0,.656,1.477q-.984-.984-2.625.82-.492.656-.656.656h-2.953a6.856,6.856,0,0,1-1.148-.328q-3.445-1.312-3.445.328V-.984Q-107.2,0-105.886,0q3.281-.328,3.117-1.8V-2.953H-98.5v1.313q0,1.148,1.641.984,2.953-.164,2.625-1.477V-8.039Zm-9.516-11.977a3.894,3.894,0,0,0,1.641-3.117q0-2.789-4.758-4.266a1.259,1.259,0,0,0-.492-.164h10.336q-.328,1.477-.82,5.086-.328,1.8-.492,2.461Zm54.666-7.547q0-.164.492-.492,1.148-.984.984-1.312a9.187,9.187,0,0,0-5.414-3.117q-.328,0-1.148,1.313-.656.984-.82.984H-67.462q-.492,0-.328.328a1.113,1.113,0,0,0,.82.328h12.961v7.711h-5.906a5.087,5.087,0,0,0-1.148-.328Q-64.509-23.3-65-23.133q-.328-.164-.328,1.969-.328,3.117-.656,5.742a7.3,7.3,0,0,1-.656,1.8,1.344,1.344,0,0,0-.492.82,6.992,6.992,0,0,0,4.758,1.8q.492-.164,1.148-1.312.656-.82.82-.82h6.727a87.319,87.319,0,0,1-1.312,8.859,3.454,3.454,0,0,1-1.8,2.953q-1.312.82-5.086.492-1.148-.164-1.312.164t.656.656a4,4,0,0,1,2.953,2.789q.328,1.148.82,1.313a6.952,6.952,0,0,0,4.922-.984A5.453,5.453,0,0,0-50.892,0a76.441,76.441,0,0,0,1.8-9.187,4.82,4.82,0,0,0,.164-1.148,2.877,2.877,0,0,1,.984-1.148q.656-.328.656-.656Q-48.6-14.6-52.369-15.914q-.328,0-1.148,1.148-.82.984-.984.984h-6.891q.492-4.594.492-5.414,0-1.969,2.461-1.8h4.43v1.8q-.164,1.641,1.969,1.313a5.466,5.466,0,0,0,2.461-.492,1.476,1.476,0,0,0,.492-1.312ZM-35.8-30.844a1.691,1.691,0,0,1,.328-.656q1.477-1.969-3.117-2.133-2.133-.328-1.8.984V3.938q-.164,1.312,1.8.82,2.953-.164,2.789-1.641ZM.984-28.711q.492-.82,1.313-2.133l.492-.492Q5.578-32.977-1.148-33.8q-1.477-.492-1.477,1.148-1.641,7.711-4.758,11.813,1.969.656,7.875-7.219h.82q-1.477,10.828-14.273,14.6-1.148.492-.82.656.328,0,2.3-.164v9.68Q-11.648-1.312-9.844-1.8q3.281-.164,2.953-2.3v-7.547q-.164-1.8,1.8-1.641H6.234v10.5A43.917,43.917,0,0,0,.82-3.445,38.72,38.72,0,0,0,1.969-8.7q0-.164.328-.492,2.789-1.8-4.266-2.133-1.313-.164-1.312,1.313.164,6.563-2.461,9.023Q-7.875,1.641-16.57,4.266q-2.133.82,1.477.656A26.627,26.627,0,0,0-8.7,3.609Q-2.133,1.8.492-2.625,6.4-.82,8.367,2.625a9.592,9.592,0,0,0,.82.984,2.637,2.637,0,0,0,3.445.656A2.446,2.446,0,0,0,13.617.984q-.984-2.3-4.758-3.445,2.461-.164,2.3-1.8V-11.32q0-.328.492-.656.492-.164.492-.328-.984-2.625-5.414-3.609a1.947,1.947,0,0,0-1.148,1.148q-.328.82-.656.82H-6.562Q1.969-17.062,5.25-23.3q3.609,8.039,8.531,10.172,1.148.492,1.641-1.148a7.431,7.431,0,0,1,2.461-2.953.473.473,0,0,0,.328-.164q1.148-.656.164-.82Q8.531-19.523,6.4-25.1a.986.986,0,0,1,.656-.656,2.059,2.059,0,0,0,.492-.82q.164-.656-2.625-1.477H10.5a14.674,14.674,0,0,1-.82,4.43q-.656,1.477.492.328a8.132,8.132,0,0,1,3.773-2.461q.82-.164,1.969-.328,1.148,0,1.477-.492-.82-2.953-6.07-4.594-.492.164-.984,1.313t-.82,1.148ZM-16.57-31.664a4.664,4.664,0,0,1,2.133,3.773,6,6,0,0,0,.328,1.477q1.477,2.625,3.938.492,1.8-2.625-.328-4.594a10.115,10.115,0,0,0-3.445-1.312Q-17.227-32.32-16.57-31.664Zm11.977,1.313q.82-1.641-.328-.328-6.563,8.2-8.367,8.859a12.312,12.312,0,0,1-2.953,0q-1.969-.328-.82.328,2.789,1.641,1.477,4.43a2.685,2.685,0,0,0-.164.656q-.164,1.641,1.8,2.3a2.32,2.32,0,0,0,2.789-.984,6.7,6.7,0,0,0,.656-3.281,3.273,3.273,0,0,1,0-1.477Q-10.008-22.8-4.594-30.352ZM36.455-10.992q-1.312.164-3.281.492-2.789.328-2.953.656a9.99,9.99,0,0,0,2.3,5.414q.656.492,4.43-1.8,2.789-1.477,10.008-5.25,1.148-.492-.492-.492a37.856,37.856,0,0,0-5.414.492V-27.07a.87.87,0,0,1,.984-.984h4.922a1.3,1.3,0,0,0,.82-.164q.164-.164-.328-.656-2.625-2.789-4.1-2.953-.164,0-1.148,1.477-.82,1.477-1.148,1.477H31.533q-.492,0-.328.328t.82.328h4.43ZM68.447-30.352q1.148,0,1.313-.328.164-.164-.656-.82A11.057,11.057,0,0,0,65-34.125q-.328,0-1.148,1.148-1.313,1.8-1.8,1.8h-14.6q-.492,0-.328.492a1.113,1.113,0,0,0,.82.328h7.055a33.938,33.938,0,0,1,0,6.727H53.353a11.439,11.439,0,0,1-1.969-.492q-.82-.328-1.312-.492-1.8-.164-1.8,1.477V-5.742q0,1.477,1.641,1.313,3.445-.82,3.117-2.133V-20.836q-.164-2.133,1.8-1.969h7.219V-5.414q-.164,1.477,2.3.984,2.625-.328,2.461-1.641V-19.852q0-.492.82-1.148.82-.492.82-.984-1.312-2.461-5.25-3.445-.492.164-.984,1.148-.656.82-.984.82H57.455Q59.1-28.055,62.048-29.7q.492-.328.328-.656ZM56.634-21.164q-1.641-.164-1.312,1.641v.328q.492,11.484-1.641,15.586Q52.2.164,44,4.1q-.328.328,1.969-.164,7.711-2.133,11.32-6.4a9.421,9.421,0,0,1,5.742,4.922q.984,2.3,2.461,2.3a2.573,2.573,0,0,0,2.625-1.969A3.038,3.038,0,0,0,66.806-.492q-1.641-1.641-9.023-2.625,1.8-3.281,2.133-15.914a1.691,1.691,0,0,1,.328-.656Q61.884-21,56.634-21.164Zm56.47-6.727q0-.164.492-.492.984-.82.984-1.148a13.956,13.956,0,0,0-5.742-3.937q-.492,0-1.641,1.8-.656.82-.82.82H94.4a7.309,7.309,0,0,1-1.8-.656q-4.1-1.969-4.1,0V2.3q0,1.477,1.641,1.313,3.445-.328,3.281-1.641V-1.641h14.273V2.133q0,1.148,1.969.984,3.938-.328,3.445-1.641Zm-19.688-.164q0-2.133,2.3-2.133h11.977v8.531H93.417Zm0,7.219h14.273V-12.3H93.417Zm0,9.188h14.273v9.188H93.417Zm48.923-16.57q.164-.164.984-1.312a20.511,20.511,0,0,0,1.313-1.641,1.781,1.781,0,0,1,.656-.328q2.953-.82-4.266-2.133-1.477-.492-1.8,1.313a30.52,30.52,0,0,1-6.234,12.3q-1.477,1.969,3.609-1.969a3.03,3.03,0,0,1-.984,4.266l-.984.984a2.635,2.635,0,0,0,.328,3.281q1.148,1.148,3.117,0,2.461-1.477,1.641-5.086H163.5q1.969.492-.656,3.938-4.266-2.789-4.922-2.461a3.752,3.752,0,0,0-.984,1.148q-.492.82-.82.82h-9.187a11.512,11.512,0,0,1-3.281-1.312.473.473,0,0,1-.328-.164q-1.8-.82-1.477,1.313v19.2q-.164,1.477,1.969.984,2.625-.656,2.461-1.8V.984h11.977v1.8q0,1.8,1.8,1.641,3.281-.328,3.117-1.969V-2.461a2.025,2.025,0,0,1,.492-1.148A1.6,1.6,0,0,0,164-4.43q0-.492-3.937-2.953A1.969,1.969,0,0,0,161.7-9.352V-12.8l.492-.492q.984-.656.984-.82a11.2,11.2,0,0,1,6.4-2.133q1.148,0,1.148-.492a10.389,10.389,0,0,0-5.578-4.922q-.656.164-1.312,1.477-.656.984-.984.984h-8.7q2.461-2.789-1.477-5.25a20.865,20.865,0,0,0,2.3-1.641,7.954,7.954,0,0,1,1.148-.984q2.133.656,1.969,3.281a5.083,5.083,0,0,0,.328,2.133q.656,1.477,2.625.656,1.969-1.148,1.8-2.789-.164-1.969-3.773-3.773h9.68q.82,0,.984-.328a1.344,1.344,0,0,0-.492-.82q-2.461-2.461-3.445-2.3-.164,0-1.148,1.313a6.428,6.428,0,0,1-1.312,1.477h-6.234a28.468,28.468,0,0,1,2.625-2.953,4.888,4.888,0,0,1,.656-.492q2.625-1.148-4.266-1.969a1.056,1.056,0,0,0-1.477.82.95.95,0,0,1-.164.656A15.255,15.255,0,0,1,153.5-29.2l-.164.328a6.976,6.976,0,0,0-.984-.656,9.468,9.468,0,0,0-2.789-1.477q-.328,0-1.312,1.641-.82,1.148-.984,1.148ZM139.552-19.2a20.435,20.435,0,0,0-2.133-2.789,1.909,1.909,0,0,0-.328-.492,54.73,54.73,0,0,0,4.1-4.43q1.477.656,1.313,3.609v.492q-.164,2.133,1.641,2.461a2.676,2.676,0,0,0,2.789-1.969q.492-2.133-3.609-5.25h9.516q-.656,1.148-1.641,2.953-2.625-.328-1.969.492a3.337,3.337,0,0,1,1.313,3.445,9.87,9.87,0,0,0-.164,1.477Zm6.727,6.07q-.164-1.477,1.477-1.312h9.188v4.266H146.278Zm0,3.773h10.664v.82q0,.656.984.984a1.781,1.781,0,0,1,.656.328l-.164.164a8.114,8.114,0,0,0-1.148,1.641H146.278Zm0,4.758h11.977V.164H146.278ZM218.17-28.547q0-.164.656-.656.492-.328.492-.492-.656-2.625-5.086-3.609-.656,0-1.312,1.477-.328.656-.492.656H202.42a6.553,6.553,0,0,1-2.625-.984q.164,0-.328-.164-1.148-.656-1.477-.492t-.328,1.148v1.313q-.492-.328-1.312-.82-1.969-1.477-2.789-1.312-.328,0-1.477,1.8-.492.984-.656.984h-7.711q-.656,0-.492.328t.82.328h3.117v10.172h-4.1q-.656,0-.656.328a1.1,1.1,0,0,0,.984.492h3.773V-7.383a12.023,12.023,0,0,1-2.3.492q-2.953.328-2.133,2.133.984,4.1,1.8,4.266a4.038,4.038,0,0,0,1.477-.82q1.477-1.8,11.484-7.547,2.3-1.312-5.906.656v-9.844h6.07v4.758q-.164,1.969,1.8,1.313,2.625-.328,2.3-1.477V-14.93h3.609v6.891h-8.2q-.492,0-.328.492a.661.661,0,0,0,.656.328h7.875V.328H193.725q-.328,0-.164.492a.661.661,0,0,0,.656.328h25.43a3.968,3.968,0,0,0,1.641-.164q.164-.328-.656-.984-2.953-2.789-4.1-2.789-.492.164-1.477,1.969-.82,1.148-.984,1.148h-4.43V-7.219h9.023q.82,0,.82-.328.164-.164-.328-.82-2.953-2.625-3.937-2.625A6.39,6.39,0,0,0,213.9-9.352q-.984,1.313-1.148,1.313h-3.117v-7.055h3.609v1.313q-.164,1.969,1.8,1.313,3.445-.492,3.117-2.3Zm-8.531-.656q-.164-1.477,1.148-1.312h2.461v7.055h-3.609Zm-7.875.164q-.328-1.641,1.477-1.477h2.133V-23.3h-3.609Zm-4.1-.164v10.336q-.164-.164-.984-.82a8.075,8.075,0,0,0-2.953-1.641q-.328-.164-1.312,1.313-.656.984-.82.984v-8.531q-.164-1.641,1.313-1.477Zm11.977,6.563h3.609v6.891h-3.609Zm-7.875,0h3.609v6.891h-3.609Zm43.017.164a42.342,42.342,0,0,1,7.383-4.266q3.445-1.148.656-2.3,1.477,0,7.055-.328,2.133-.164,2.953-.164a23.26,23.26,0,0,1,3.281.328q4.922,1.148-.164-3.445-2.953-3.117-4.922-1.477a6.367,6.367,0,0,0-.82.328q-4.266,1.8-22.641,4.758-1.969.492-1.8.656a8.175,8.175,0,0,0,2.461.164q4.1,0,8.531-.328a35.971,35.971,0,0,1-4.43,4.922,2.332,2.332,0,0,1-1.312.328q-.984,0-.82,1.8.328,2.953.984,3.445a3.762,3.762,0,0,0,1.148-.328A39.377,39.377,0,0,1,252-20.836q-5.25,3.445-11.156,6.891.164-.164-.328.164a3.566,3.566,0,0,1-1.969.164q-1.8-.164-1.477,1.148.656,4.1,1.148,4.594A2.124,2.124,0,0,0,239.7-8.2a10.3,10.3,0,0,1,1.969-.656A34.194,34.194,0,0,1,233.789.328q2.461.82,10.828-4.594a12.067,12.067,0,0,1,1.313-.492q3.609-.164-3.609-4.266l7.711-1.148v7.383a1.587,1.587,0,0,1-.82,1.8,10.369,10.369,0,0,1-3.445.328q-2.625,0-1.312.492,3.609.82,3.938,3.281,0,.656.492.656,6.234,0,6.4-3.937V-10.992l7.055-1.148a9.87,9.87,0,0,0,.164,1.477,4.074,4.074,0,0,0,.164,1.477q1.641,1.969,4.1,0,1.477-1.8.164-4.594a10.239,10.239,0,0,0-8.039-4.1,9.362,9.362,0,0,1,3.117,4.43l-17.883-.164q8.859-3.609,18.539-8.7a2.392,2.392,0,0,1,.984-.328q3.281.164-2.461-4.1a1.438,1.438,0,0,0-2.461.164,36.372,36.372,0,0,1-4.594,4.1ZM258.07-7.547q3.445,1.313,4.758,6.07A10.858,10.858,0,0,0,263.32,0a2.875,2.875,0,0,0,3.938.492,3.149,3.149,0,0,0,1.313-3.773q-1.477-3.445-9.023-4.594Q257.086-8.039,258.07-7.547Zm52.2-18.867q2.133-2.133,1.313-4.1-1.641-3.281-6.727-2.953,0,.164.328.328a3.569,3.569,0,0,1,1.313,3.117,5.243,5.243,0,0,0,.82,3.609H298.3q-.492,0-.164.328a1.337,1.337,0,0,0,.984.328h6.07a34.292,34.292,0,0,1-3.773,6.4,3.5,3.5,0,0,1-2.133.82,5.087,5.087,0,0,0-1.148.328q-.328.328.328,2.3.82,2.3,1.313,2.461a2.685,2.685,0,0,0,.656-.164,6.912,6.912,0,0,1,1.148-.164q.164,8.2-2.461,12.469-1.477,1.969-6.891,4.594-1.641.82-1.641.984a23.4,23.4,0,0,0,11.977-4.43q3.117-3.281,4.1-11.32,0-.164.328-.492,1.969-1.477-2.789-2.461l4.43-.984V-.328q-.164,2.789.984,3.445,1.148.82,5.25.984,6.563,0,7.055-2.625.164-.984-.984-1.477a1.857,1.857,0,0,1-.656-.656,4.876,4.876,0,0,1-.656-2.953q0-.492-.164-.492t-.656.984Q317.33,0,315.361,0q-2.133,0-1.969-1.477V-12.633q0-.164.328-.328,2.625-1.312-4.1-2.625l5.414-.82q.492,3.445,2.3,3.445a2.744,2.744,0,0,0,2.625-1.641,4,4,0,0,0-.492-3.609,11.455,11.455,0,0,0-8.039-3.773q-.164,0,.328.492a12.341,12.341,0,0,1,2.789,3.609H303.056a53.608,53.608,0,0,1,7.711-5.906q2.3-1.312,1.313-1.969h7.711a3.311,3.311,0,0,0,1.477-.164q.164-.164-.492-.984a7.805,7.805,0,0,0-3.445-2.625,6.428,6.428,0,0,0-1.312,1.477q-1.312,1.641-1.641,1.641ZM292.228-2.625q1.641-.82,4.1-2.133,3.281-1.641,3.117-1.8.164-.164-1.969.328-3.117.656-5.578,1.148-3.773.82-6.562,1.148a2.855,2.855,0,0,0-1.148.328q-.492.492.164,2.3.82,1.969,1.641,2.3a3.6,3.6,0,0,0,.984-.492A51.31,51.31,0,0,1,292.228-2.625ZM287.8-21q5.086-7.219,7.711-9.187.492-.328.492-.492.164-.656-2.461-1.8-2.625-.984-3.445-.656a2.855,2.855,0,0,0-.328,1.148,57,57,0,0,1-3.281,9.844q-.164.656-1.969.82h-.492q.164,3.445,1.477,4.43a3.762,3.762,0,0,0,1.148-.328,19.757,19.757,0,0,1,5.086-1.8q-2.3,5.25-3.937,6.563a4.453,4.453,0,0,1-2.133.656q-.82.164-.82.328,0,3.281,1.641,4.43.328.164,1.313-.328,2.461-1.148,5.742-2.3,4.922-1.312,5.086-1.641a21.883,21.883,0,0,0-4.266,0h-4.922q9.023-11.156,10.664-11.156a3.8,3.8,0,0,0,.82-.492,9.051,9.051,0,0,0-5.906-2.953,5.671,5.671,0,0,0-1.148,1.969q-.656,1.8-1.148,2.953Z" transform="translate(364 74.69)" fill="#fafaff"/>
  </g>
</svg>
