<svg id="pic_login_con" xmlns="http://www.w3.org/2000/svg" xmlns:xlink="http://www.w3.org/1999/xlink" width="500" height="547.966" viewBox="0 0 500 547.966">
  <defs>
    <linearGradient id="linear-gradient" x1="0.5" x2="0.5" y2="1" gradientUnits="objectBoundingBox">
      <stop offset="0" stop-color="#0b0b60"/>
      <stop offset="1" stop-color="#0d134e"/>
    </linearGradient>
    <radialGradient id="radial-gradient" cx="0.5" cy="0.117" r="0.528" gradientTransform="translate(0 0.004) scale(1 0.964)" gradientUnits="objectBoundingBox">
      <stop offset="0" stop-color="#3b5ae8"/>
      <stop offset="1" stop-color="#000881" stop-opacity="0"/>
    </radialGradient>
    <linearGradient id="linear-gradient-2" y1="0.5" x2="1" y2="0.5" gradientUnits="objectBoundingBox">
      <stop offset="0" stop-color="#6971e7" stop-opacity="0"/>
      <stop offset="1" stop-color="#333ed2"/>
    </linearGradient>
    <linearGradient id="linear-gradient-3" y1="0.5" x2="1" y2="0.5" gradientUnits="objectBoundingBox">
      <stop offset="0" stop-color="#1b27ce"/>
      <stop offset="1" stop-color="#7098e8" stop-opacity="0.149"/>
    </linearGradient>
    <filter id="路径_17">
      <feOffset dx="3" input="SourceAlpha"/>
      <feGaussianBlur stdDeviation="2" result="blur"/>
      <feFlood flood-color="#fff" flood-opacity="0.2" result="color"/>
      <feComposite operator="out" in="SourceGraphic" in2="blur"/>
      <feComposite operator="in" in="color"/>
      <feComposite operator="in" in2="SourceGraphic"/>
    </filter>
    <linearGradient id="linear-gradient-4" x1="0.5" y1="1" x2="0.5" gradientUnits="objectBoundingBox">
      <stop offset="0" stop-color="#032961" stop-opacity="0"/>
      <stop offset="0.732" stop-color="#008fff" stop-opacity="0.502"/>
      <stop offset="1" stop-color="#1779e9" stop-opacity="0.239"/>
    </linearGradient>
    <linearGradient id="linear-gradient-5" x1="0.5" x2="0.5" y2="1" gradientUnits="objectBoundingBox">
      <stop offset="0" stop-color="#2832c9" stop-opacity="0"/>
      <stop offset="1" stop-color="#2834e2"/>
    </linearGradient>
  </defs>
  <path id="路径_13" data-name="路径 13" d="M-229.391,189H246V733.637H-251V209.172Z" transform="translate(254 -185.671)" fill="#080851" opacity="0.55"/>
  <path id="路径_14" data-name="路径 14" d="M178.424,730.637H-253.75V206.172L-232.141,186H243.25V670.122Z" transform="translate(253.75 -185.671)" fill="url(#linear-gradient)"/>
  <path id="路径_15" data-name="路径 15" d="M187.821,715.637H-243.75V238.206L-221.036,216H233.25V671.225Z" transform="translate(253.75 -185.671)" fill="#2a7fff" opacity="0.18"/>
  <path id="网点" d="M-184.721-873.363v-2.222h4.542v2.222Zm-9.087,0v-2.222h4.542v2.222Zm-9.085,0v-2.222h4.542v2.222Zm-9.087,0v-2.222h4.544v2.222Zm-9.085,0v-2.222h4.542v2.222Zm-9.087,0v-2.222h4.544v2.222Zm-9.085,0v-2.222h4.542v2.222Zm-9.085,0v-2.222h4.542v2.222Zm-9.087,0v-2.222h4.542v2.222Zm-9.085,0v-2.222h4.543v2.222Zm-9.087,0v-2.222h4.542v2.222Zm-9.085,0v-2.222h4.542v2.222Zm-9.087,0v-2.222h4.545v2.222Zm-9.085,0v-2.222h4.542v2.222Zm-9.087,0v-2.222h4.544v2.222Zm-9.085,0v-2.222h4.542v2.222Zm-9.085,0v-2.222h4.542v2.222Zm-9.087,0v-2.222h4.543v2.222Zm-9.085,0v-2.222h4.542v2.222Zm-9.087,0v-2.222h4.542v2.222Zm-9.085,0v-2.222h4.542v2.222Zm-9.087,0v-2.222h4.544v2.222Zm-9.085,0v-2.222h4.542v2.222Zm-9.087,0v-2.222h4.545v2.222Zm-9.085,0v-2.222h4.542v2.222Zm-9.085,0v-2.222h4.542v2.222Zm-9.087,0v-2.222h4.542v2.222Zm-9.085,0v-2.222h4.542v2.222Zm-9.087,0v-2.222h4.542v2.222Zm-9.085,0v-2.222h4.542v2.222Zm-9.087,0v-2.222h4.544v2.222Zm-9.085,0v-2.222h4.542v2.222Zm-9.087,0v-2.222h4.544v2.222Zm-9.085,0v-2.222h4.542v2.222Zm-9.085,0v-2.222h4.542v2.222Zm-9.087,0v-2.222h4.542v2.222Zm-9.085,0v-2.222h4.542v2.222Zm-9.087,0v-2.222h4.542v2.222Zm-9.085,0v-2.222h4.542v2.222Zm-9.087,0v-2.222h4.544v2.222Zm-9.085,0v-2.222h4.542v2.222Zm-9.087,0v-2.222h4.545v2.222Zm-9.085,0v-2.222h4.542v2.222Zm-9.085,0v-2.222h4.542v2.222Zm-9.087,0v-2.222h4.542v2.222Zm-9.085,0v-2.222h4.542v2.222Zm-9.087,0v-2.222h4.542v2.222Zm-9.085,0v-2.222h4.542v2.222Zm436.114-6.663v-4.441h4.542v2.222l-2.269,2.218Zm-9.085,0v-4.441h4.542v4.441Zm-9.087,0v-4.441h4.542v4.441Zm-9.085,0v-4.441h4.542v4.441Zm-9.087,0v-4.441h4.544v4.441Zm-9.085,0v-4.441h4.542v4.441Zm-9.087,0v-4.441h4.544v4.441Zm-9.085,0v-4.441h4.542v4.441Zm-9.085,0v-4.441h4.542v4.441Zm-9.087,0v-4.441h4.542v4.441Zm-9.085,0v-4.441h4.543v4.441Zm-9.087,0v-4.441h4.542v4.441Zm-9.085,0v-4.441h4.542v4.441Zm-9.087,0v-4.441h4.545v4.441Zm-9.085,0v-4.441h4.542v4.441Zm-9.087,0v-4.441h4.544v4.441Zm-9.085,0v-4.441h4.542v4.441Zm-9.085,0v-4.441h4.542v4.441Zm-9.087,0v-4.441h4.543v4.441Zm-9.085,0v-4.441h4.542v4.441Zm-9.087,0v-4.441h4.542v4.441Zm-9.085,0v-4.441h4.542v4.441Zm-9.087,0v-4.441h4.544v4.441Zm-9.085,0v-4.441h4.542v4.441Zm-9.087,0v-4.441h4.545v4.441Zm-9.085,0v-4.441h4.542v4.441Zm-9.085,0v-4.441h4.542v4.441Zm-9.087,0v-4.441h4.542v4.441Zm-9.085,0v-4.441h4.542v4.441Zm-9.087,0v-4.441h4.542v4.441Zm-9.085,0v-4.441h4.542v4.441Zm-9.087,0v-4.441h4.544v4.441Zm-9.085,0v-4.441h4.542v4.441Zm-9.087,0v-4.441h4.544v4.441Zm-9.085,0v-4.441h4.542v4.441Zm-9.085,0v-4.441h4.542v4.441Zm-9.087,0v-4.441h4.542v4.441Zm-9.085,0v-4.441h4.542v4.441Zm-9.087,0v-4.441h4.542v4.441Zm-9.085,0v-4.441h4.542v4.441Zm-9.087,0v-4.441h4.544v4.441Zm-9.085,0v-4.441h4.542v4.441Zm-9.087,0v-4.441h4.545v4.441Zm-9.085,0v-4.441h4.542v4.441Zm-9.085,0v-4.441h4.542v4.441Zm-9.087,0v-4.441h4.542v4.441Zm-9.085,0v-4.441h4.542v4.441Zm-9.087,0v-4.441h4.542v4.441Zm-9.085,0v-4.441h4.542v4.441Zm445.2-8.882v-4.443h4.542v2.223l-2.271,2.22Zm-9.087,0v-4.443h4.542v4.443Zm-9.085,0v-4.443h4.542v4.443Zm-9.087,0v-4.443h4.542v4.443Zm-9.085,0v-4.443h4.542v4.443Zm-9.087,0v-4.443h4.544v4.443Zm-9.085,0v-4.443h4.542v4.443Zm-9.087,0v-4.443h4.544v4.443Zm-9.085,0v-4.443h4.542v4.443Zm-9.085,0v-4.443h4.542v4.443Zm-9.087,0v-4.443h4.542v4.443Zm-9.085,0v-4.443h4.543v4.443Zm-9.087,0v-4.443h4.542v4.443Zm-9.085,0v-4.443h4.542v4.443Zm-9.087,0v-4.443h4.545v4.443Zm-9.085,0v-4.443h4.542v4.443Zm-9.087,0v-4.443h4.544v4.443Zm-9.085,0v-4.443h4.542v4.443Zm-9.085,0v-4.443h4.542v4.443Zm-9.087,0v-4.443h4.543v4.443Zm-9.085,0v-4.443h4.542v4.443Zm-9.087,0v-4.443h4.542v4.443Zm-9.085,0v-4.443h4.542v4.443Zm-9.087,0v-4.443h4.544v4.443Zm-9.085,0v-4.443h4.542v4.443Zm-9.087,0v-4.443h4.545v4.443Zm-9.085,0v-4.443h4.542v4.443Zm-9.085,0v-4.443h4.542v4.443Zm-9.087,0v-4.443h4.542v4.443Zm-9.085,0v-4.443h4.542v4.443Zm-9.087,0v-4.443h4.542v4.443Zm-9.085,0v-4.443h4.542v4.443Zm-9.087,0v-4.443h4.544v4.443Zm-9.085,0v-4.443h4.542v4.443Zm-9.087,0v-4.443h4.544v4.443Zm-9.085,0v-4.443h4.542v4.443Zm-9.085,0v-4.443h4.542v4.443Zm-9.087,0v-4.443h4.542v4.443Zm-9.085,0v-4.443h4.542v4.443Zm-9.087,0v-4.443h4.542v4.443Zm-9.085,0v-4.443h4.542v4.443Zm-9.087,0v-4.443h4.544v4.443Zm-9.085,0v-4.443h4.542v4.443Zm-9.087,0v-4.443h4.545v4.443Zm-9.085,0v-4.443h4.542v4.443Zm-9.085,0v-4.443h4.542v4.443Zm-9.087,0v-4.443h4.542v4.443Zm-9.085,0v-4.443h4.542v4.443Zm-9.087,0v-4.443h4.542v4.443Zm-9.085,0v-4.443h4.542v4.443Zm454.286-8.883v-4.441h4.542v2.222l-2.269,2.218Zm-9.085,0v-4.441h4.542v4.441Zm-9.087,0v-4.441h4.542v4.441Zm-9.085,0v-4.441h4.542v4.441Zm-9.087,0v-4.441h4.542v4.441Zm-9.085,0v-4.441h4.542v4.441Zm-9.087,0v-4.441h4.544v4.441Zm-9.085,0v-4.441h4.542v4.441Zm-9.087,0v-4.441h4.544v4.441Zm-9.085,0v-4.441h4.542v4.441Zm-9.085,0v-4.441h4.542v4.441Zm-9.087,0v-4.441h4.542v4.441Zm-9.085,0v-4.441h4.543v4.441Zm-9.087,0v-4.441h4.542v4.441Zm-9.085,0v-4.441h4.542v4.441Zm-9.087,0v-4.441h4.545v4.441Zm-9.085,0v-4.441h4.542v4.441Zm-9.087,0v-4.441h4.544v4.441Zm-9.085,0v-4.441h4.542v4.441Zm-9.085,0v-4.441h4.542v4.441Zm-9.087,0v-4.441h4.543v4.441Zm-9.085,0v-4.441h4.542v4.441Zm-9.087,0v-4.441h4.542v4.441Zm-9.085,0v-4.441h4.542v4.441Zm-9.087,0v-4.441h4.544v4.441Zm-9.085,0v-4.441h4.542v4.441Zm-9.087,0v-4.441h4.545v4.441Zm-9.085,0v-4.441h4.542v4.441Zm-9.085,0v-4.441h4.542v4.441Zm-9.087,0v-4.441h4.542v4.441Zm-9.085,0v-4.441h4.542v4.441Zm-9.087,0v-4.441h4.542v4.441Zm-9.085,0v-4.441h4.542v4.441Zm-9.087,0v-4.441h4.544v4.441Zm-9.085,0v-4.441h4.542v4.441Zm-9.087,0v-4.441h4.544v4.441Zm-9.085,0v-4.441h4.542v4.441Zm-9.085,0v-4.441h4.542v4.441Zm-9.087,0v-4.441h4.542v4.441Zm-9.085,0v-4.441h4.542v4.441Zm-9.087,0v-4.441h4.542v4.441Zm-9.085,0v-4.441h4.542v4.441Zm-9.087,0v-4.441h4.544v4.441Zm-9.085,0v-4.441h4.542v4.441Zm-9.087,0v-4.441h4.545v4.441Zm-9.085,0v-4.441h4.542v4.441Zm-9.085,0v-4.441h4.542v4.441Zm-9.087,0v-4.441h4.542v4.441Zm-9.085,0v-4.441h4.542v4.441Zm-9.087,0v-4.441h4.542v4.441Zm-9.085,0v-4.441h4.542v4.441Zm463.37-8.882v-4.441h4.544v2.22l-2.271,2.22Zm-9.085,0v-4.441h4.542v4.441Zm-9.085,0v-4.441h4.542v4.441Zm-9.087,0v-4.441h4.542v4.441Zm-9.085,0v-4.441h4.542v4.441Zm-9.087,0v-4.441h4.542v4.441Zm-9.085,0v-4.441h4.542v4.441Zm-9.087,0v-4.441h4.544v4.441Zm-9.085,0v-4.441h4.542v4.441Zm-9.087,0v-4.441h4.544v4.441Zm-9.085,0v-4.441h4.542v4.441Zm-9.085,0v-4.441h4.542v4.441Zm-9.087,0v-4.441h4.542v4.441Zm-9.085,0v-4.441h4.543v4.441Zm-9.087,0v-4.441h4.542v4.441Zm-9.085,0v-4.441h4.542v4.441Zm-9.087,0v-4.441h4.545v4.441Zm-9.085,0v-4.441h4.542v4.441Zm-9.087,0v-4.441h4.544v4.441Zm-9.085,0v-4.441h4.542v4.441Zm-9.085,0v-4.441h4.542v4.441Zm-9.087,0v-4.441h4.543v4.441Zm-9.085,0v-4.441h4.542v4.441Zm-9.087,0v-4.441h4.542v4.441Zm-9.085,0v-4.441h4.542v4.441Zm-9.087,0v-4.441h4.544v4.441Zm-9.085,0v-4.441h4.542v4.441Zm-9.087,0v-4.441h4.545v4.441Zm-9.085,0v-4.441h4.542v4.441Zm-9.085,0v-4.441h4.542v4.441Zm-9.087,0v-4.441h4.542v4.441Zm-9.085,0v-4.441h4.542v4.441Zm-9.087,0v-4.441h4.542v4.441Zm-9.085,0v-4.441h4.542v4.441Zm-9.087,0v-4.441h4.544v4.441Zm-9.085,0v-4.441h4.542v4.441Zm-9.087,0v-4.441h4.544v4.441Zm-9.085,0v-4.441h4.542v4.441Zm-9.085,0v-4.441h4.542v4.441Zm-9.087,0v-4.441h4.542v4.441Zm-9.085,0v-4.441h4.542v4.441Zm-9.087,0v-4.441h4.542v4.441Zm-9.085,0v-4.441h4.542v4.441Zm-9.087,0v-4.441h4.544v4.441Zm-9.085,0v-4.441h4.542v4.441Zm-9.087,0v-4.441h4.545v4.441Zm-9.085,0v-4.441h4.542v4.441Zm-9.085,0v-4.441h4.542v4.441Zm-9.087,0v-4.441h4.542v4.441Zm-9.085,0v-4.441h4.542v4.441Zm-9.087,0v-4.441h4.542v4.441Zm-9.085,0v-4.441h4.542v4.441Zm472.457-8.884V-920h4.542v2.223l-2.269,2.218Zm-9.087,0V-920h4.544v4.441Zm-9.085,0V-920h4.542v4.441Zm-9.085,0V-920h4.542v4.441Zm-9.087,0V-920h4.542v4.441Zm-9.085,0V-920h4.542v4.441Zm-9.087,0V-920h4.542v4.441Zm-9.085,0V-920h4.542v4.441Zm-9.087,0V-920h4.544v4.441Zm-9.085,0V-920h4.542v4.441Zm-9.087,0V-920h4.544v4.441Zm-9.085,0V-920h4.542v4.441Zm-9.085,0V-920h4.542v4.441Zm-9.087,0V-920h4.542v4.441Zm-9.085,0V-920h4.543v4.441Zm-9.087,0V-920h4.542v4.441Zm-9.085,0V-920h4.542v4.441Zm-9.087,0V-920h4.545v4.441Zm-9.085,0V-920h4.542v4.441Zm-9.087,0V-920h4.544v4.441Zm-9.085,0V-920h4.542v4.441Zm-9.085,0V-920h4.542v4.441Zm-9.087,0V-920h4.543v4.441Zm-9.085,0V-920h4.542v4.441Zm-9.087,0V-920h4.542v4.441Zm-9.085,0V-920h4.542v4.441Zm-9.087,0V-920h4.544v4.441Zm-9.085,0V-920h4.542v4.441Zm-9.087,0V-920h4.545v4.441Zm-9.085,0V-920h4.542v4.441Zm-9.085,0V-920h4.542v4.441Zm-9.087,0V-920h4.542v4.441Zm-9.085,0V-920h4.542v4.441Zm-9.087,0V-920h4.542v4.441Zm-9.085,0V-920h4.542v4.441Zm-9.087,0V-920h4.544v4.441Zm-9.085,0V-920h4.542v4.441Zm-9.087,0V-920h4.544v4.441Zm-9.085,0V-920h4.542v4.441Zm-9.085,0V-920h4.542v4.441Zm-9.087,0V-920h4.542v4.441Zm-9.085,0V-920h4.542v4.441Zm-9.087,0V-920h4.542v4.441Zm-9.085,0V-920h4.542v4.441Zm-9.087,0V-920h4.544v4.441Zm-9.085,0V-920h4.542v4.441Zm-9.087,0V-920h4.545v4.441Zm-9.085,0V-920h4.542v4.441Zm-9.085,0V-920h4.542v4.441Zm-9.087,0V-920h4.542v4.441Zm-9.085,0V-920h4.542v4.441Zm-9.087,0V-920h4.542v4.441Zm-9.085,0V-920h4.542v4.441Zm472.457-8.881v-4.441h4.542v4.441Zm-9.087,0v-4.441h4.544v4.441Zm-9.085,0v-4.441h4.542v4.441Zm-9.085,0v-4.441h4.542v4.441Zm-9.087,0v-4.441h4.542v4.441Zm-9.085,0v-4.441h4.542v4.441Zm-9.087,0v-4.441h4.542v4.441Zm-9.085,0v-4.441h4.542v4.441Zm-9.087,0v-4.441h4.544v4.441Zm-9.085,0v-4.441h4.542v4.441Zm-9.087,0v-4.441h4.544v4.441Zm-9.085,0v-4.441h4.542v4.441Zm-9.085,0v-4.441h4.542v4.441Zm-9.087,0v-4.441h4.542v4.441Zm-9.085,0v-4.441h4.543v4.441Zm-9.087,0v-4.441h4.542v4.441Zm-9.085,0v-4.441h4.542v4.441Zm-9.087,0v-4.441h4.545v4.441Zm-9.085,0v-4.441h4.542v4.441Zm-9.087,0v-4.441h4.544v4.441Zm-9.085,0v-4.441h4.542v4.441Zm-9.085,0v-4.441h4.542v4.441Zm-9.087,0v-4.441h4.543v4.441Zm-9.085,0v-4.441h4.542v4.441Zm-9.087,0v-4.441h4.542v4.441Zm-9.085,0v-4.441h4.542v4.441Zm-9.087,0v-4.441h4.544v4.441Zm-9.085,0v-4.441h4.542v4.441Zm-9.087,0v-4.441h4.545v4.441Zm-9.085,0v-4.441h4.542v4.441Zm-9.085,0v-4.441h4.542v4.441Zm-9.087,0v-4.441h4.542v4.441Zm-9.085,0v-4.441h4.542v4.441Zm-9.087,0v-4.441h4.542v4.441Zm-9.085,0v-4.441h4.542v4.441Zm-9.087,0v-4.441h4.544v4.441Zm-9.085,0v-4.441h4.542v4.441Zm-9.087,0v-4.441h4.544v4.441Zm-9.085,0v-4.441h4.542v4.441Zm-9.085,0v-4.441h4.542v4.441Zm-9.087,0v-4.441h4.542v4.441Zm-9.085,0v-4.441h4.542v4.441Zm-9.087,0v-4.441h4.542v4.441Zm-9.085,0v-4.441h4.542v4.441Zm-9.087,0v-4.441h4.544v4.441Zm-9.085,0v-4.441h4.542v4.441Zm-9.087,0v-4.441h4.545v4.441Zm-9.085,0v-4.441h4.542v4.441Zm-9.085,0v-4.441h4.542v4.441Zm-9.087,0v-4.441h4.542v4.441Zm-9.085,0v-4.441h4.542v4.441Zm-9.087,0v-4.441h4.542v4.441Zm-9.085,0v-4.441h4.542v4.441Zm472.457-8.884v-4.441h4.542v4.441Zm-9.087,0v-4.441h4.544v4.441Zm-9.085,0v-4.441h4.542v4.441Zm-9.085,0v-4.441h4.542v4.441Zm-9.087,0v-4.441h4.542v4.441Zm-9.085,0v-4.441h4.542v4.441Zm-9.087,0v-4.441h4.542v4.441Zm-9.085,0v-4.441h4.542v4.441Zm-9.087,0v-4.441h4.544v4.441Zm-9.085,0v-4.441h4.542v4.441Zm-9.087,0v-4.441h4.544v4.441Zm-9.085,0v-4.441h4.542v4.441Zm-9.085,0v-4.441h4.542v4.441Zm-9.087,0v-4.441h4.542v4.441Zm-9.085,0v-4.441h4.543v4.441Zm-9.087,0v-4.441h4.542v4.441Zm-9.085,0v-4.441h4.542v4.441Zm-9.087,0v-4.441h4.545v4.441Zm-9.085,0v-4.441h4.542v4.441Zm-9.087,0v-4.441h4.544v4.441Zm-9.085,0v-4.441h4.542v4.441Zm-9.085,0v-4.441h4.542v4.441Zm-9.087,0v-4.441h4.543v4.441Zm-9.085,0v-4.441h4.542v4.441Zm-9.087,0v-4.441h4.542v4.441Zm-9.085,0v-4.441h4.542v4.441Zm-9.087,0v-4.441h4.544v4.441Zm-9.085,0v-4.441h4.542v4.441Zm-9.087,0v-4.441h4.545v4.441Zm-9.085,0v-4.441h4.542v4.441Zm-9.085,0v-4.441h4.542v4.441Zm-9.087,0v-4.441h4.542v4.441Zm-9.085,0v-4.441h4.542v4.441Zm-9.087,0v-4.441h4.542v4.441Zm-9.085,0v-4.441h4.542v4.441Zm-9.087,0v-4.441h4.544v4.441Zm-9.085,0v-4.441h4.542v4.441Zm-9.087,0v-4.441h4.544v4.441Zm-9.085,0v-4.441h4.542v4.441Zm-9.085,0v-4.441h4.542v4.441Zm-9.087,0v-4.441h4.542v4.441Zm-9.085,0v-4.441h4.542v4.441Zm-9.087,0v-4.441h4.542v4.441Zm-9.085,0v-4.441h4.542v4.441Zm-9.087,0v-4.441h4.544v4.441Zm-9.085,0v-4.441h4.542v4.441Zm-9.087,0v-4.441h4.545v4.441Zm-9.085,0v-4.441h4.542v4.441Zm-9.085,0v-4.441h4.542v4.441Zm-9.087,0v-4.441h4.542v4.441Zm-9.085,0v-4.441h4.542v4.441Zm-9.087,0v-4.441h4.542v4.441Zm-9.085,0v-4.441h4.542v4.441Zm472.457-8.881v-4.441h4.542v4.441Zm-9.087,0v-4.441h4.544v4.441Zm-9.085,0v-4.441h4.542v4.441Zm-9.085,0v-4.441h4.542v4.441Zm-9.087,0v-4.441h4.542v4.441Zm-9.085,0v-4.441h4.542v4.441Zm-9.087,0v-4.441h4.542v4.441Zm-9.085,0v-4.441h4.542v4.441Zm-9.087,0v-4.441h4.544v4.441Zm-9.085,0v-4.441h4.542v4.441Zm-9.087,0v-4.441h4.544v4.441Zm-9.085,0v-4.441h4.542v4.441Zm-9.085,0v-4.441h4.542v4.441Zm-9.087,0v-4.441h4.542v4.441Zm-9.085,0v-4.441h4.543v4.441Zm-9.087,0v-4.441h4.542v4.441Zm-9.085,0v-4.441h4.542v4.441Zm-9.087,0v-4.441h4.545v4.441Zm-9.085,0v-4.441h4.542v4.441Zm-9.087,0v-4.441h4.544v4.441Zm-9.085,0v-4.441h4.542v4.441Zm-9.085,0v-4.441h4.542v4.441Zm-9.087,0v-4.441h4.543v4.441Zm-9.085,0v-4.441h4.542v4.441Zm-9.087,0v-4.441h4.542v4.441Zm-9.085,0v-4.441h4.542v4.441Zm-9.087,0v-4.441h4.544v4.441Zm-9.085,0v-4.441h4.542v4.441Zm-9.087,0v-4.441h4.545v4.441Zm-9.085,0v-4.441h4.542v4.441Zm-9.085,0v-4.441h4.542v4.441Zm-9.087,0v-4.441h4.542v4.441Zm-9.085,0v-4.441h4.542v4.441Zm-9.087,0v-4.441h4.542v4.441Zm-9.085,0v-4.441h4.542v4.441Zm-9.087,0v-4.441h4.544v4.441Zm-9.085,0v-4.441h4.542v4.441Zm-9.087,0v-4.441h4.544v4.441Zm-9.085,0v-4.441h4.542v4.441Zm-9.085,0v-4.441h4.542v4.441Zm-9.087,0v-4.441h4.542v4.441Zm-9.085,0v-4.441h4.542v4.441Zm-9.087,0v-4.441h4.542v4.441Zm-9.085,0v-4.441h4.542v4.441Zm-9.087,0v-4.441h4.544v4.441Zm-9.085,0v-4.441h4.542v4.441Zm-9.087,0v-4.441h4.545v4.441Zm-9.085,0v-4.441h4.542v4.441Zm-9.085,0v-4.441h4.542v4.441Zm-9.087,0v-4.441h4.542v4.441Zm-9.085,0v-4.441h4.542v4.441Zm-9.087,0v-4.441h4.542v4.441Zm-9.085,0v-4.441h4.542v4.441Zm472.457-8.881v-4.443h4.542v4.443Zm-9.087,0v-4.443h4.544v4.443Zm-9.085,0v-4.443h4.542v4.443Zm-9.085,0v-4.443h4.542v4.443Zm-9.087,0v-4.443h4.542v4.443Zm-9.085,0v-4.443h4.542v4.443Zm-9.087,0v-4.443h4.542v4.443Zm-9.085,0v-4.443h4.542v4.443Zm-9.087,0v-4.443h4.544v4.443Zm-9.085,0v-4.443h4.542v4.443Zm-9.087,0v-4.443h4.544v4.443Zm-9.085,0v-4.443h4.542v4.443Zm-9.085,0v-4.443h4.542v4.443Zm-9.087,0v-4.443h4.542v4.443Zm-9.085,0v-4.443h4.543v4.443Zm-9.087,0v-4.443h4.542v4.443Zm-9.085,0v-4.443h4.542v4.443Zm-9.087,0v-4.443h4.545v4.443Zm-9.085,0v-4.443h4.542v4.443Zm-9.087,0v-4.443h4.544v4.443Zm-9.085,0v-4.443h4.542v4.443Zm-9.085,0v-4.443h4.542v4.443Zm-9.087,0v-4.443h4.543v4.443Zm-9.085,0v-4.443h4.542v4.443Zm-9.087,0v-4.443h4.542v4.443Zm-9.085,0v-4.443h4.542v4.443Zm-9.087,0v-4.443h4.544v4.443Zm-9.085,0v-4.443h4.542v4.443Zm-9.087,0v-4.443h4.545v4.443Zm-9.085,0v-4.443h4.542v4.443Zm-9.085,0v-4.443h4.542v4.443Zm-9.087,0v-4.443h4.542v4.443Zm-9.085,0v-4.443h4.542v4.443Zm-9.087,0v-4.443h4.542v4.443Zm-9.085,0v-4.443h4.542v4.443Zm-9.087,0v-4.443h4.544v4.443Zm-9.085,0v-4.443h4.542v4.443Zm-9.087,0v-4.443h4.544v4.443Zm-9.085,0v-4.443h4.542v4.443Zm-9.085,0v-4.443h4.542v4.443Zm-9.087,0v-4.443h4.542v4.443Zm-9.085,0v-4.443h4.542v4.443Zm-9.087,0v-4.443h4.542v4.443Zm-9.085,0v-4.443h4.542v4.443Zm-9.087,0v-4.443h4.544v4.443Zm-9.085,0v-4.443h4.542v4.443Zm-9.087,0v-4.443h4.545v4.443Zm-9.085,0v-4.443h4.542v4.443Zm-9.085,0v-4.443h4.542v4.443Zm-9.087,0v-4.443h4.542v4.443Zm-9.085,0v-4.443h4.542v4.443Zm-9.087,0v-4.443h4.542v4.443Zm-9.085,0v-4.443h4.542v4.443Zm472.457-8.884v-4.441h4.542v4.441Zm-9.087,0v-4.441h4.544v4.441Zm-9.085,0v-4.441h4.542v4.441Zm-9.085,0v-4.441h4.542v4.441Zm-9.087,0v-4.441h4.542v4.441Zm-9.085,0v-4.441h4.542v4.441Zm-9.087,0v-4.441h4.542v4.441Zm-9.085,0v-4.441h4.542v4.441Zm-9.087,0v-4.441h4.544v4.441Zm-9.085,0v-4.441h4.542v4.441Zm-9.087,0v-4.441h4.544v4.441Zm-9.085,0v-4.441h4.542v4.441Zm-9.085,0v-4.441h4.542v4.441Zm-9.087,0v-4.441h4.542v4.441Zm-9.085,0v-4.441h4.543v4.441Zm-9.087,0v-4.441h4.542v4.441Zm-9.085,0v-4.441h4.542v4.441Zm-9.087,0v-4.441h4.545v4.441Zm-9.085,0v-4.441h4.542v4.441Zm-9.087,0v-4.441h4.544v4.441Zm-9.085,0v-4.441h4.542v4.441Zm-9.085,0v-4.441h4.542v4.441Zm-9.087,0v-4.441h4.543v4.441Zm-9.085,0v-4.441h4.542v4.441Zm-9.087,0v-4.441h4.542v4.441Zm-9.085,0v-4.441h4.542v4.441Zm-9.087,0v-4.441h4.544v4.441Zm-9.085,0v-4.441h4.542v4.441Zm-9.087,0v-4.441h4.545v4.441Zm-9.085,0v-4.441h4.542v4.441Zm-9.085,0v-4.441h4.542v4.441Zm-9.087,0v-4.441h4.542v4.441Zm-9.085,0v-4.441h4.542v4.441Zm-9.087,0v-4.441h4.542v4.441Zm-9.085,0v-4.441h4.542v4.441Zm-9.087,0v-4.441h4.544v4.441Zm-9.085,0v-4.441h4.542v4.441Zm-9.087,0v-4.441h4.544v4.441Zm-9.085,0v-4.441h4.542v4.441Zm-9.085,0v-4.441h4.542v4.441Zm-9.087,0v-4.441h4.542v4.441Zm-9.085,0v-4.441h4.542v4.441Zm-9.087,0v-4.441h4.542v4.441Zm-9.085,0v-4.441h4.542v4.441Zm-9.087,0v-4.441h4.544v4.441Zm-9.085,0v-4.441h4.542v4.441Zm-9.087,0v-4.441h4.545v4.441Zm-9.085,0v-4.441h4.542v4.441Zm-9.085,0v-4.441h4.542v4.441Zm-9.087,0v-4.441h4.542v4.441Zm-9.085,0v-4.441h4.542v4.441Zm-9.087,0v-4.441h4.542v4.441Zm-9.085,0v-4.441h4.542v4.441Zm472.457-8.881v-4.443h4.542v4.443Zm-9.087,0v-4.443h4.544v4.443Zm-9.085,0v-4.443h4.542v4.443Zm-9.085,0v-4.443h4.542v4.443Zm-9.087,0v-4.443h4.542v4.443Zm-9.085,0v-4.443h4.542v4.443Zm-9.087,0v-4.443h4.542v4.443Zm-9.085,0v-4.443h4.542v4.443Zm-9.087,0v-4.443h4.544v4.443Zm-9.085,0v-4.443h4.542v4.443Zm-9.087,0v-4.443h4.544v4.443Zm-9.085,0v-4.443h4.542v4.443Zm-9.085,0v-4.443h4.542v4.443Zm-9.087,0v-4.443h4.542v4.443Zm-9.085,0v-4.443h4.543v4.443Zm-9.087,0v-4.443h4.542v4.443Zm-9.085,0v-4.443h4.542v4.443Zm-9.087,0v-4.443h4.545v4.443Zm-9.085,0v-4.443h4.542v4.443Zm-9.087,0v-4.443h4.544v4.443Zm-9.085,0v-4.443h4.542v4.443Zm-9.085,0v-4.443h4.542v4.443Zm-9.087,0v-4.443h4.543v4.443Zm-9.085,0v-4.443h4.542v4.443Zm-9.087,0v-4.443h4.542v4.443Zm-9.085,0v-4.443h4.542v4.443Zm-9.087,0v-4.443h4.544v4.443Zm-9.085,0v-4.443h4.542v4.443Zm-9.087,0v-4.443h4.545v4.443Zm-9.085,0v-4.443h4.542v4.443Zm-9.085,0v-4.443h4.542v4.443Zm-9.087,0v-4.443h4.542v4.443Zm-9.085,0v-4.443h4.542v4.443Zm-9.087,0v-4.443h4.542v4.443Zm-9.085,0v-4.443h4.542v4.443Zm-9.087,0v-4.443h4.544v4.443Zm-9.085,0v-4.443h4.542v4.443Zm-9.087,0v-4.443h4.544v4.443Zm-9.085,0v-4.443h4.542v4.443Zm-9.085,0v-4.443h4.542v4.443Zm-9.087,0v-4.443h4.542v4.443Zm-9.085,0v-4.443h4.542v4.443Zm-9.087,0v-4.443h4.542v4.443Zm-9.085,0v-4.443h4.542v4.443Zm-9.087,0v-4.443h4.544v4.443Zm-9.085,0v-4.443h4.542v4.443Zm-9.087,0v-4.443h4.545v4.443Zm-9.085,0v-4.443h4.542v4.443Zm-9.085,0v-4.443h4.542v4.443Zm-9.087,0v-4.443h4.542v4.443Zm-9.085,0v-4.443h4.542v4.443Zm-9.087,0v-4.443h4.542v4.443Zm-9.085,0v-4.443h4.542v4.443Zm472.457-8.884v-4.441h4.542v4.441Zm-9.087,0v-4.441h4.544v4.441Zm-9.085,0v-4.441h4.542v4.441Zm-9.085,0v-4.441h4.542v4.441Zm-9.087,0v-4.441h4.542v4.441Zm-9.085,0v-4.441h4.542v4.441Zm-9.087,0v-4.441h4.542v4.441Zm-9.085,0v-4.441h4.542v4.441Zm-9.087,0v-4.441h4.544v4.441Zm-9.085,0v-4.441h4.542v4.441Zm-9.087,0v-4.441h4.544v4.441Zm-9.085,0v-4.441h4.542v4.441Zm-9.085,0v-4.441h4.542v4.441Zm-9.087,0v-4.441h4.542v4.441Zm-9.085,0v-4.441h4.543v4.441Zm-9.087,0v-4.441h4.542v4.441Zm-9.085,0v-4.441h4.542v4.441Zm-9.087,0v-4.441h4.545v4.441Zm-9.085,0v-4.441h4.542v4.441Zm-9.087,0v-4.441h4.544v4.441Zm-9.085,0v-4.441h4.542v4.441Zm-9.085,0v-4.441h4.542v4.441Zm-9.087,0v-4.441h4.543v4.441Zm-9.085,0v-4.441h4.542v4.441Zm-9.087,0v-4.441h4.542v4.441Zm-9.085,0v-4.441h4.542v4.441Zm-9.087,0v-4.441h4.544v4.441Zm-9.085,0v-4.441h4.542v4.441Zm-9.087,0v-4.441h4.545v4.441Zm-9.085,0v-4.441h4.542v4.441Zm-9.085,0v-4.441h4.542v4.441Zm-9.087,0v-4.441h4.542v4.441Zm-9.085,0v-4.441h4.542v4.441Zm-9.087,0v-4.441h4.542v4.441Zm-9.085,0v-4.441h4.542v4.441Zm-9.087,0v-4.441h4.544v4.441Zm-9.085,0v-4.441h4.542v4.441Zm-9.087,0v-4.441h4.544v4.441Zm-9.085,0v-4.441h4.542v4.441Zm-9.085,0v-4.441h4.542v4.441Zm-9.087,0v-4.441h4.542v4.441Zm-9.085,0v-4.441h4.542v4.441Zm-9.087,0v-4.441h4.542v4.441Zm-9.085,0v-4.441h4.542v4.441Zm-9.087,0v-4.441h4.544v4.441Zm-9.085,0v-4.441h4.542v4.441Zm-9.087,0v-4.441h4.545v4.441Zm-9.085,0v-4.441h4.542v4.441Zm-9.085,0v-4.441h4.542v4.441Zm-9.087,0v-4.441h4.542v4.441Zm-9.085,0v-4.441h4.542v4.441Zm-9.087,0v-4.441h4.542v4.441Zm-9.085,0v-4.441h4.542v4.441Zm472.457-8.882v-4.441h4.542v4.441Zm-9.087,0v-4.441h4.544v4.441Zm-9.085,0v-4.441h4.542v4.441Zm-9.085,0v-4.441h4.542v4.441Zm-9.087,0v-4.441h4.542v4.441Zm-9.085,0v-4.441h4.542v4.441Zm-9.087,0v-4.441h4.542v4.441Zm-9.085,0v-4.441h4.542v4.441Zm-9.087,0v-4.441h4.544v4.441Zm-9.085,0v-4.441h4.542v4.441Zm-9.087,0v-4.441h4.544v4.441Zm-9.085,0v-4.441h4.542v4.441Zm-9.085,0v-4.441h4.542v4.441Zm-9.087,0v-4.441h4.542v4.441Zm-9.085,0v-4.441h4.543v4.441Zm-9.087,0v-4.441h4.542v4.441Zm-9.085,0v-4.441h4.542v4.441Zm-9.087,0v-4.441h4.545v4.441Zm-9.085,0v-4.441h4.542v4.441Zm-9.087,0v-4.441h4.544v4.441Zm-9.085,0v-4.441h4.542v4.441Zm-9.085,0v-4.441h4.542v4.441Zm-9.087,0v-4.441h4.543v4.441Zm-9.085,0v-4.441h4.542v4.441Zm-9.087,0v-4.441h4.542v4.441Zm-9.085,0v-4.441h4.542v4.441Zm-9.087,0v-4.441h4.544v4.441Zm-9.085,0v-4.441h4.542v4.441Zm-9.087,0v-4.441h4.545v4.441Zm-9.085,0v-4.441h4.542v4.441Zm-9.085,0v-4.441h4.542v4.441Zm-9.087,0v-4.441h4.542v4.441Zm-9.085,0v-4.441h4.542v4.441Zm-9.087,0v-4.441h4.542v4.441Zm-9.085,0v-4.441h4.542v4.441Zm-9.087,0v-4.441h4.544v4.441Zm-9.085,0v-4.441h4.542v4.441Zm-9.087,0v-4.441h4.544v4.441Zm-9.085,0v-4.441h4.542v4.441Zm-9.085,0v-4.441h4.542v4.441Zm-9.087,0v-4.441h4.542v4.441Zm-9.085,0v-4.441h4.542v4.441Zm-9.087,0v-4.441h4.542v4.441Zm-9.085,0v-4.441h4.542v4.441Zm-9.087,0v-4.441h4.544v4.441Zm-9.085,0v-4.441h4.542v4.441Zm-9.087,0v-4.441h4.545v4.441Zm-9.085,0v-4.441h4.542v4.441Zm-9.085,0v-4.441h4.542v4.441Zm-9.087,0v-4.441h4.542v4.441Zm-9.085,0v-4.441h4.542v4.441Zm-9.087,0v-4.441h4.542v4.441Zm-9.085,0v-4.441h4.542v4.441Zm472.457-8.884v-4.441h4.542v4.441Zm-9.087,0v-4.441h4.544v4.441Zm-9.085,0v-4.441h4.542v4.441Zm-9.085,0v-4.441h4.542v4.441Zm-9.087,0v-4.441h4.542v4.441Zm-9.085,0v-4.441h4.542v4.441Zm-9.087,0v-4.441h4.542v4.441Zm-9.085,0v-4.441h4.542v4.441Zm-9.087,0v-4.441h4.544v4.441Zm-9.085,0v-4.441h4.542v4.441Zm-9.087,0v-4.441h4.544v4.441Zm-9.085,0v-4.441h4.542v4.441Zm-9.085,0v-4.441h4.542v4.441Zm-9.087,0v-4.441h4.542v4.441Zm-9.085,0v-4.441h4.543v4.441Zm-9.087,0v-4.441h4.542v4.441Zm-9.085,0v-4.441h4.542v4.441Zm-9.087,0v-4.441h4.545v4.441Zm-9.085,0v-4.441h4.542v4.441Zm-9.087,0v-4.441h4.544v4.441Zm-9.085,0v-4.441h4.542v4.441Zm-9.085,0v-4.441h4.542v4.441Zm-9.087,0v-4.441h4.543v4.441Zm-9.085,0v-4.441h4.542v4.441Zm-9.087,0v-4.441h4.542v4.441Zm-9.085,0v-4.441h4.542v4.441Zm-9.087,0v-4.441h4.544v4.441Zm-9.085,0v-4.441h4.542v4.441Zm-9.087,0v-4.441h4.545v4.441Zm-9.085,0v-4.441h4.542v4.441Zm-9.085,0v-4.441h4.542v4.441Zm-9.087,0v-4.441h4.542v4.441Zm-9.085,0v-4.441h4.542v4.441Zm-9.087,0v-4.441h4.542v4.441Zm-9.085,0v-4.441h4.542v4.441Zm-9.087,0v-4.441h4.544v4.441Zm-9.085,0v-4.441h4.542v4.441Zm-9.087,0v-4.441h4.544v4.441Zm-9.085,0v-4.441h4.542v4.441Zm-9.085,0v-4.441h4.542v4.441Zm-9.087,0v-4.441h4.542v4.441Zm-9.085,0v-4.441h4.542v4.441Zm-9.087,0v-4.441h4.542v4.441Zm-9.085,0v-4.441h4.542v4.441Zm-9.087,0v-4.441h4.544v4.441Zm-9.085,0v-4.441h4.542v4.441Zm-9.087,0v-4.441h4.545v4.441Zm-9.085,0v-4.441h4.542v4.441Zm-9.085,0v-4.441h4.542v4.441Zm-9.087,0v-4.441h4.542v4.441Zm-9.085,0v-4.441h4.542v4.441Zm-9.087,0v-4.441h4.542v4.441Zm-9.085,0v-4.441h4.542v4.441Zm472.457-8.881v-4.441h4.542v4.441Zm-9.087,0v-4.441h4.544v4.441Zm-9.085,0v-4.441h4.542v4.441Zm-9.085,0v-4.441h4.542v4.441Zm-9.087,0v-4.441h4.542v4.441Zm-9.085,0v-4.441h4.542v4.441Zm-9.087,0v-4.441h4.542v4.441Zm-9.085,0v-4.441h4.542v4.441Zm-9.087,0v-4.441h4.544v4.441Zm-9.085,0v-4.441h4.542v4.441Zm-9.087,0v-4.441h4.544v4.441Zm-9.085,0v-4.441h4.542v4.441Zm-9.085,0v-4.441h4.542v4.441Zm-9.087,0v-4.441h4.542v4.441Zm-9.085,0v-4.441h4.543v4.441Zm-9.087,0v-4.441h4.542v4.441Zm-9.085,0v-4.441h4.542v4.441Zm-9.087,0v-4.441h4.545v4.441Zm-9.085,0v-4.441h4.542v4.441Zm-9.087,0v-4.441h4.544v4.441Zm-9.085,0v-4.441h4.542v4.441Zm-9.085,0v-4.441h4.542v4.441Zm-9.087,0v-4.441h4.543v4.441Zm-9.085,0v-4.441h4.542v4.441Zm-9.087,0v-4.441h4.542v4.441Zm-9.085,0v-4.441h4.542v4.441Zm-9.087,0v-4.441h4.544v4.441Zm-9.085,0v-4.441h4.542v4.441Zm-9.087,0v-4.441h4.545v4.441Zm-9.085,0v-4.441h4.542v4.441Zm-9.085,0v-4.441h4.542v4.441Zm-9.087,0v-4.441h4.542v4.441Zm-9.085,0v-4.441h4.542v4.441Zm-9.087,0v-4.441h4.542v4.441Zm-9.085,0v-4.441h4.542v4.441Zm-9.087,0v-4.441h4.544v4.441Zm-9.085,0v-4.441h4.542v4.441Zm-9.087,0v-4.441h4.544v4.441Zm-9.085,0v-4.441h4.542v4.441Zm-9.085,0v-4.441h4.542v4.441Zm-9.087,0v-4.441h4.542v4.441Zm-9.085,0v-4.441h4.542v4.441Zm-9.087,0v-4.441h4.542v4.441Zm-9.085,0v-4.441h4.542v4.441Zm-9.087,0v-4.441h4.544v4.441Zm-9.085,0v-4.441h4.542v4.441Zm-9.087,0v-4.441h4.545v4.441Zm-9.085,0v-4.441h4.542v4.441Zm-9.085,0v-4.441h4.542v4.441Zm-9.087,0v-4.441h4.542v4.441Zm-9.085,0v-4.441h4.542v4.441Zm-9.087,0v-4.441h4.542v4.441Zm-9.085,0v-4.441h4.542v4.441Zm472.457-8.884v-4.441h4.542v4.441Zm-9.087,0v-4.441h4.544v4.441Zm-9.085,0v-4.441h4.542v4.441Zm-9.085,0v-4.441h4.542v4.441Zm-9.087,0v-4.441h4.542v4.441Zm-9.085,0v-4.441h4.542v4.441Zm-9.087,0v-4.441h4.542v4.441Zm-9.085,0v-4.441h4.542v4.441Zm-9.087,0v-4.441h4.544v4.441Zm-9.085,0v-4.441h4.542v4.441Zm-9.087,0v-4.441h4.544v4.441Zm-9.085,0v-4.441h4.542v4.441Zm-9.085,0v-4.441h4.542v4.441Zm-9.087,0v-4.441h4.542v4.441Zm-9.085,0v-4.441h4.543v4.441Zm-9.087,0v-4.441h4.542v4.441Zm-9.085,0v-4.441h4.542v4.441Zm-9.087,0v-4.441h4.545v4.441Zm-9.085,0v-4.441h4.542v4.441Zm-9.087,0v-4.441h4.544v4.441Zm-9.085,0v-4.441h4.542v4.441Zm-9.085,0v-4.441h4.542v4.441Zm-9.087,0v-4.441h4.543v4.441Zm-9.085,0v-4.441h4.542v4.441Zm-9.087,0v-4.441h4.542v4.441Zm-9.085,0v-4.441h4.542v4.441Zm-9.087,0v-4.441h4.544v4.441Zm-9.085,0v-4.441h4.542v4.441Zm-9.087,0v-4.441h4.545v4.441Zm-9.085,0v-4.441h4.542v4.441Zm-9.085,0v-4.441h4.542v4.441Zm-9.087,0v-4.441h4.542v4.441Zm-9.085,0v-4.441h4.542v4.441Zm-9.087,0v-4.441h4.542v4.441Zm-9.085,0v-4.441h4.542v4.441Zm-9.087,0v-4.441h4.544v4.441Zm-9.085,0v-4.441h4.542v4.441Zm-9.087,0v-4.441h4.544v4.441Zm-9.085,0v-4.441h4.542v4.441Zm-9.085,0v-4.441h4.542v4.441Zm-9.087,0v-4.441h4.542v4.441Zm-9.085,0v-4.441h4.542v4.441Zm-9.087,0v-4.441h4.542v4.441Zm-9.085,0v-4.441h4.542v4.441Zm-9.087,0v-4.441h4.544v4.441Zm-9.085,0v-4.441h4.542v4.441Zm-9.087,0v-4.441h4.545v4.441Zm-9.085,0v-4.441h4.542v4.441Zm-9.085,0v-4.441h4.542v4.441Zm-9.087,0v-4.441h4.542v4.441Zm-9.085,0v-4.441h4.542v4.441Zm-9.087,0v-4.441h4.542v4.441Zm-9.085,0v-4.441h4.542v4.441Zm472.457-8.881v-4.441h4.542v4.441Zm-9.087,0v-4.441h4.544v4.441Zm-9.085,0v-4.441h4.542v4.441Zm-9.085,0v-4.441h4.542v4.441Zm-9.087,0v-4.441h4.542v4.441Zm-9.085,0v-4.441h4.542v4.441Zm-9.087,0v-4.441h4.542v4.441Zm-9.085,0v-4.441h4.542v4.441Zm-9.087,0v-4.441h4.544v4.441Zm-9.085,0v-4.441h4.542v4.441Zm-9.087,0v-4.441h4.544v4.441Zm-9.085,0v-4.441h4.542v4.441Zm-9.085,0v-4.441h4.542v4.441Zm-9.087,0v-4.441h4.542v4.441Zm-9.085,0v-4.441h4.543v4.441Zm-9.087,0v-4.441h4.542v4.441Zm-9.085,0v-4.441h4.542v4.441Zm-9.087,0v-4.441h4.545v4.441Zm-9.085,0v-4.441h4.542v4.441Zm-9.087,0v-4.441h4.544v4.441Zm-9.085,0v-4.441h4.542v4.441Zm-9.085,0v-4.441h4.542v4.441Zm-9.087,0v-4.441h4.543v4.441Zm-9.085,0v-4.441h4.542v4.441Zm-9.087,0v-4.441h4.542v4.441Zm-9.085,0v-4.441h4.542v4.441Zm-9.087,0v-4.441h4.544v4.441Zm-9.085,0v-4.441h4.542v4.441Zm-9.087,0v-4.441h4.545v4.441Zm-9.085,0v-4.441h4.542v4.441Zm-9.085,0v-4.441h4.542v4.441Zm-9.087,0v-4.441h4.542v4.441Zm-9.085,0v-4.441h4.542v4.441Zm-9.087,0v-4.441h4.542v4.441Zm-9.085,0v-4.441h4.542v4.441Zm-9.087,0v-4.441h4.544v4.441Zm-9.085,0v-4.441h4.542v4.441Zm-9.087,0v-4.441h4.544v4.441Zm-9.085,0v-4.441h4.542v4.441Zm-9.085,0v-4.441h4.542v4.441Zm-9.087,0v-4.441h4.542v4.441Zm-9.085,0v-4.441h4.542v4.441Zm-9.087,0v-4.441h4.542v4.441Zm-9.085,0v-4.441h4.542v4.441Zm-9.087,0v-4.441h4.544v4.441Zm-9.085,0v-4.441h4.542v4.441Zm-9.087,0v-4.441h4.545v4.441Zm-9.085,0v-4.441h4.542v4.441Zm-9.085,0v-4.441h4.542v4.441Zm-9.087,0v-4.441h4.542v4.441Zm-9.085,0v-4.441h4.542v4.441Zm-9.087,0v-4.441h4.542v4.441Zm-9.085,0v-4.441h4.542v4.441Zm472.457-8.882v-4.443h4.542v4.443Zm-9.087,0v-4.443h4.544v4.443Zm-9.085,0v-4.443h4.542v4.443Zm-9.085,0v-4.443h4.542v4.443Zm-9.087,0v-4.443h4.542v4.443Zm-9.085,0v-4.443h4.542v4.443Zm-9.087,0v-4.443h4.542v4.443Zm-9.085,0v-4.443h4.542v4.443Zm-9.087,0v-4.443h4.544v4.443Zm-9.085,0v-4.443h4.542v4.443Zm-9.087,0v-4.443h4.544v4.443Zm-9.085,0v-4.443h4.542v4.443Zm-9.085,0v-4.443h4.542v4.443Zm-9.087,0v-4.443h4.542v4.443Zm-9.085,0v-4.443h4.543v4.443Zm-9.087,0v-4.443h4.542v4.443Zm-9.085,0v-4.443h4.542v4.443Zm-9.087,0v-4.443h4.545v4.443Zm-9.085,0v-4.443h4.542v4.443Zm-9.087,0v-4.443h4.544v4.443Zm-9.085,0v-4.443h4.542v4.443Zm-9.085,0v-4.443h4.542v4.443Zm-9.087,0v-4.443h4.543v4.443Zm-9.085,0v-4.443h4.542v4.443Zm-9.087,0v-4.443h4.542v4.443Zm-9.085,0v-4.443h4.542v4.443Zm-9.087,0v-4.443h4.544v4.443Zm-9.085,0v-4.443h4.542v4.443Zm-9.087,0v-4.443h4.545v4.443Zm-9.085,0v-4.443h4.542v4.443Zm-9.085,0v-4.443h4.542v4.443Zm-9.087,0v-4.443h4.542v4.443Zm-9.085,0v-4.443h4.542v4.443Zm-9.087,0v-4.443h4.542v4.443Zm-9.085,0v-4.443h4.542v4.443Zm-9.087,0v-4.443h4.544v4.443Zm-9.085,0v-4.443h4.542v4.443Zm-9.087,0v-4.443h4.544v4.443Zm-9.085,0v-4.443h4.542v4.443Zm-9.085,0v-4.443h4.542v4.443Zm-9.087,0v-4.443h4.542v4.443Zm-9.085,0v-4.443h4.542v4.443Zm-9.087,0v-4.443h4.542v4.443Zm-9.085,0v-4.443h4.542v4.443Zm-9.087,0v-4.443h4.544v4.443Zm-9.085,0v-4.443h4.542v4.443Zm-9.087,0v-4.443h4.545v4.443Zm-9.085,0v-4.443h4.542v4.443Zm-9.085,0v-4.443h4.542v4.443Zm-9.087,0v-4.443h4.542v4.443Zm-9.085,0v-4.443h4.542v4.443Zm-9.087,0v-4.443h4.542v4.443Zm-9.085,0v-4.443h4.542v4.443Zm472.457-8.884v-4.441h4.542v4.441Zm-9.087,0v-4.441h4.544v4.441Zm-9.085,0v-4.441h4.542v4.441Zm-9.085,0v-4.441h4.542v4.441Zm-9.087,0v-4.441h4.542v4.441Zm-9.085,0v-4.441h4.542v4.441Zm-9.087,0v-4.441h4.542v4.441Zm-9.085,0v-4.441h4.542v4.441Zm-9.087,0v-4.441h4.544v4.441Zm-9.085,0v-4.441h4.542v4.441Zm-9.087,0v-4.441h4.544v4.441Zm-9.085,0v-4.441h4.542v4.441Zm-9.085,0v-4.441h4.542v4.441Zm-9.087,0v-4.441h4.542v4.441Zm-9.085,0v-4.441h4.543v4.441Zm-9.087,0v-4.441h4.542v4.441Zm-9.085,0v-4.441h4.542v4.441Zm-9.087,0v-4.441h4.545v4.441Zm-9.085,0v-4.441h4.542v4.441Zm-9.087,0v-4.441h4.544v4.441Zm-9.085,0v-4.441h4.542v4.441Zm-9.085,0v-4.441h4.542v4.441Zm-9.087,0v-4.441h4.543v4.441Zm-9.085,0v-4.441h4.542v4.441Zm-9.087,0v-4.441h4.542v4.441Zm-9.085,0v-4.441h4.542v4.441Zm-9.087,0v-4.441h4.544v4.441Zm-9.085,0v-4.441h4.542v4.441Zm-9.087,0v-4.441h4.545v4.441Zm-9.085,0v-4.441h4.542v4.441Zm-9.085,0v-4.441h4.542v4.441Zm-9.087,0v-4.441h4.542v4.441Zm-9.085,0v-4.441h4.542v4.441Zm-9.087,0v-4.441h4.542v4.441Zm-9.085,0v-4.441h4.542v4.441Zm-9.087,0v-4.441h4.544v4.441Zm-9.085,0v-4.441h4.542v4.441Zm-9.087,0v-4.441h4.544v4.441Zm-9.085,0v-4.441h4.542v4.441Zm-9.085,0v-4.441h4.542v4.441Zm-9.087,0v-4.441h4.542v4.441Zm-9.085,0v-4.441h4.542v4.441Zm-9.087,0v-4.441h4.542v4.441Zm-9.085,0v-4.441h4.542v4.441Zm-9.087,0v-4.441h4.544v4.441Zm-9.085,0v-4.441h4.542v4.441Zm-9.087,0v-4.441h4.545v4.441Zm-9.085,0v-4.441h4.542v4.441Zm-9.085,0v-4.441h4.542v4.441Zm-9.087,0v-4.441h4.542v4.441Zm-9.085,0v-4.441h4.542v4.441Zm-9.087,0v-4.441h4.542v4.441Zm-9.085,0v-4.441h4.542v4.441Zm472.457-8.882v-4.443h4.542v4.443Zm-9.087,0v-4.443h4.544v4.443Zm-9.085,0v-4.443h4.542v4.443Zm-9.085,0v-4.443h4.542v4.443Zm-9.087,0v-4.443h4.542v4.443Zm-9.085,0v-4.443h4.542v4.443Zm-9.087,0v-4.443h4.542v4.443Zm-9.085,0v-4.443h4.542v4.443Zm-9.087,0v-4.443h4.544v4.443Zm-9.085,0v-4.443h4.542v4.443Zm-9.087,0v-4.443h4.544v4.443Zm-9.085,0v-4.443h4.542v4.443Zm-9.085,0v-4.443h4.542v4.443Zm-9.087,0v-4.443h4.542v4.443Zm-9.085,0v-4.443h4.543v4.443Zm-9.087,0v-4.443h4.542v4.443Zm-9.085,0v-4.443h4.542v4.443Zm-9.087,0v-4.443h4.545v4.443Zm-9.085,0v-4.443h4.542v4.443Zm-9.087,0v-4.443h4.544v4.443Zm-9.085,0v-4.443h4.542v4.443Zm-9.085,0v-4.443h4.542v4.443Zm-9.087,0v-4.443h4.543v4.443Zm-9.085,0v-4.443h4.542v4.443Zm-9.087,0v-4.443h4.542v4.443Zm-9.085,0v-4.443h4.542v4.443Zm-9.087,0v-4.443h4.544v4.443Zm-9.085,0v-4.443h4.542v4.443Zm-9.087,0v-4.443h4.545v4.443Zm-9.085,0v-4.443h4.542v4.443Zm-9.085,0v-4.443h4.542v4.443Zm-9.087,0v-4.443h4.542v4.443Zm-9.085,0v-4.443h4.542v4.443Zm-9.087,0v-4.443h4.542v4.443Zm-9.085,0v-4.443h4.542v4.443Zm-9.087,0v-4.443h4.544v4.443Zm-9.085,0v-4.443h4.542v4.443Zm-9.087,0v-4.443h4.544v4.443Zm-9.085,0v-4.443h4.542v4.443Zm-9.085,0v-4.443h4.542v4.443Zm-9.087,0v-4.443h4.542v4.443Zm-9.085,0v-4.443h4.542v4.443Zm-9.087,0v-4.443h4.542v4.443Zm-9.085,0v-4.443h4.542v4.443Zm-9.087,0v-4.443h4.544v4.443Zm-9.085,0v-4.443h4.542v4.443Zm-9.087,0v-4.443h4.545v4.443Zm-9.085,0v-4.443h4.542v4.443Zm-9.085,0v-4.443h4.542v4.443Zm-9.087,0v-4.443h4.542v4.443Zm-9.085,0v-4.443h4.542v4.443Zm-9.087,0v-4.443h4.542v4.443Zm-9.085,0v-4.443h4.542v4.443Zm472.457-8.883v-4.441h4.542v4.441Zm-9.087,0v-4.441h4.544v4.441Zm-9.085,0v-4.441h4.542v4.441Zm-9.085,0v-4.441h4.542v4.441Zm-9.087,0v-4.441h4.542v4.441Zm-9.085,0v-4.441h4.542v4.441Zm-9.087,0v-4.441h4.542v4.441Zm-9.085,0v-4.441h4.542v4.441Zm-9.087,0v-4.441h4.544v4.441Zm-9.085,0v-4.441h4.542v4.441Zm-9.087,0v-4.441h4.544v4.441Zm-9.085,0v-4.441h4.542v4.441Zm-9.085,0v-4.441h4.542v4.441Zm-9.087,0v-4.441h4.542v4.441Zm-9.085,0v-4.441h4.543v4.441Zm-9.087,0v-4.441h4.542v4.441Zm-9.085,0v-4.441h4.542v4.441Zm-9.087,0v-4.441h4.545v4.441Zm-9.085,0v-4.441h4.542v4.441Zm-9.087,0v-4.441h4.544v4.441Zm-9.085,0v-4.441h4.542v4.441Zm-9.085,0v-4.441h4.542v4.441Zm-9.087,0v-4.441h4.543v4.441Zm-9.085,0v-4.441h4.542v4.441Zm-9.087,0v-4.441h4.542v4.441Zm-9.085,0v-4.441h4.542v4.441Zm-9.087,0v-4.441h4.544v4.441Zm-9.085,0v-4.441h4.542v4.441Zm-9.087,0v-4.441h4.545v4.441Zm-9.085,0v-4.441h4.542v4.441Zm-9.085,0v-4.441h4.542v4.441Zm-9.087,0v-4.441h4.542v4.441Zm-9.085,0v-4.441h4.542v4.441Zm-9.087,0v-4.441h4.542v4.441Zm-9.085,0v-4.441h4.542v4.441Zm-9.087,0v-4.441h4.544v4.441Zm-9.085,0v-4.441h4.542v4.441Zm-9.087,0v-4.441h4.544v4.441Zm-9.085,0v-4.441h4.542v4.441Zm-9.085,0v-4.441h4.542v4.441Zm-9.087,0v-4.441h4.542v4.441Zm-9.085,0v-4.441h4.542v4.441Zm-9.087,0v-4.441h4.542v4.441Zm-9.085,0v-4.441h4.542v4.441Zm-9.087,0v-4.441h4.544v4.441Zm-9.085,0v-4.441h4.542v4.441Zm-9.087,0v-4.441h4.545v4.441Zm-9.085,0v-4.441h4.542v4.441Zm-9.085,0v-4.441h4.542v4.441Zm-9.087,0v-4.441h4.542v4.441Zm-9.085,0v-4.441h4.542v4.441Zm-9.087,0v-4.441h4.542v4.441Zm-9.085,0v-4.441h4.542v4.441Zm472.457-8.882V-1071h4.542v4.44Zm-9.087,0V-1071h4.544v4.44Zm-9.085,0V-1071h4.542v4.44Zm-9.085,0V-1071h4.542v4.44Zm-9.087,0V-1071h4.542v4.44Zm-9.085,0V-1071h4.542v4.44Zm-9.087,0V-1071h4.542v4.44Zm-9.085,0V-1071h4.542v4.44Zm-9.087,0V-1071h4.544v4.44Zm-9.085,0V-1071h4.542v4.44Zm-9.087,0V-1071h4.544v4.44Zm-9.085,0V-1071h4.542v4.44Zm-9.085,0V-1071h4.542v4.44Zm-9.087,0V-1071h4.542v4.44Zm-9.085,0V-1071h4.543v4.44Zm-9.087,0V-1071h4.542v4.44Zm-9.085,0V-1071h4.542v4.44Zm-9.087,0V-1071h4.545v4.44Zm-9.085,0V-1071h4.542v4.44Zm-9.087,0V-1071h4.544v4.44Zm-9.085,0V-1071h4.542v4.44Zm-9.085,0V-1071h4.542v4.44Zm-9.087,0V-1071h4.543v4.44Zm-9.085,0V-1071h4.542v4.44Zm-9.087,0V-1071h4.542v4.44Zm-9.085,0V-1071h4.542v4.44Zm-9.087,0V-1071h4.544v4.44Zm-9.085,0V-1071h4.542v4.44Zm-9.087,0V-1071h4.545v4.44Zm-9.085,0V-1071h4.542v4.44Zm-9.085,0V-1071h4.542v4.44Zm-9.087,0V-1071h4.542v4.44Zm-9.085,0V-1071h4.542v4.44Zm-9.087,0V-1071h4.542v4.44Zm-9.085,0V-1071h4.542v4.44Zm-9.087,0V-1071h4.544v4.44Zm-9.085,0V-1071h4.542v4.44Zm-9.087,0V-1071h4.544v4.44Zm-9.085,0V-1071h4.542v4.44Zm-9.085,0V-1071h4.542v4.44Zm-9.087,0V-1071h4.542v4.44Zm-9.085,0V-1071h4.542v4.44Zm-9.087,0V-1071h4.542v4.44Zm-9.085,0V-1071h4.542v4.44Zm-9.087,0V-1071h4.544v4.44Zm-9.085,0V-1071h4.542v4.44Zm-9.087,0V-1071h4.545v4.44Zm-9.085,0V-1071h4.542v4.44Zm-9.085,0V-1071h4.542v4.44Zm-9.087,0V-1071h4.542v4.44Zm-9.085,0V-1071h4.542v4.44Zm-9.087,0V-1071h4.542v4.44Zm-9.085,0V-1071h4.542v4.44Zm472.457-8.884v-4.441h4.542v4.441Zm-9.087,0v-4.441h4.544v4.441Zm-9.085,0v-4.441h4.542v4.441Zm-9.085,0v-4.441h4.542v4.441Zm-9.087,0v-4.441h4.542v4.441Zm-9.085,0v-4.441h4.542v4.441Zm-9.087,0v-4.441h4.542v4.441Zm-9.085,0v-4.441h4.542v4.441Zm-9.087,0v-4.441h4.544v4.441Zm-9.085,0v-4.441h4.542v4.441Zm-9.087,0v-4.441h4.544v4.441Zm-9.085,0v-4.441h4.542v4.441Zm-9.085,0v-4.441h4.542v4.441Zm-9.087,0v-4.441h4.542v4.441Zm-9.085,0v-4.441h4.543v4.441Zm-9.087,0v-4.441h4.542v4.441Zm-9.085,0v-4.441h4.542v4.441Zm-9.087,0v-4.441h4.545v4.441Zm-9.085,0v-4.441h4.542v4.441Zm-9.087,0v-4.441h4.544v4.441Zm-9.085,0v-4.441h4.542v4.441Zm-9.085,0v-4.441h4.542v4.441Zm-9.087,0v-4.441h4.543v4.441Zm-9.085,0v-4.441h4.542v4.441Zm-9.087,0v-4.441h4.542v4.441Zm-9.085,0v-4.441h4.542v4.441Zm-9.087,0v-4.441h4.544v4.441Zm-9.085,0v-4.441h4.542v4.441Zm-9.087,0v-4.441h4.545v4.441Zm-9.085,0v-4.441h4.542v4.441Zm-9.085,0v-4.441h4.542v4.441Zm-9.087,0v-4.441h4.542v4.441Zm-9.085,0v-4.441h4.542v4.441Zm-9.087,0v-4.441h4.542v4.441Zm-9.085,0v-4.441h4.542v4.441Zm-9.087,0v-4.441h4.544v4.441Zm-9.085,0v-4.441h4.542v4.441Zm-9.087,0v-4.441h4.544v4.441Zm-9.085,0v-4.441h4.542v4.441Zm-9.085,0v-4.441h4.542v4.441Zm-9.087,0v-4.441h4.542v4.441Zm-9.085,0v-4.441h4.542v4.441Zm-9.087,0v-4.441h4.542v4.441Zm-9.085,0v-4.441h4.542v4.441Zm-9.087,0v-4.441h4.544v4.441Zm-9.085,0v-4.441h4.542v4.441Zm-9.087,0v-4.441h4.545v4.441Zm-9.085,0v-4.441h4.542v4.441Zm-9.085,0v-4.441h4.542v4.441Zm-9.087,0v-4.441h4.542v4.441Zm-9.085,0v-4.441h4.542v4.441Zm-9.087,0v-4.441h4.542v4.441Zm-9.085,0v-4.441h4.542v4.441Zm472.457-8.881v-4.441h4.542v4.441Zm-9.087,0v-4.441h4.544v4.441Zm-9.085,0v-4.441h4.542v4.441Zm-9.085,0v-4.441h4.542v4.441Zm-9.087,0v-4.441h4.542v4.441Zm-9.085,0v-4.441h4.542v4.441Zm-9.087,0v-4.441h4.542v4.441Zm-9.085,0v-4.441h4.542v4.441Zm-9.087,0v-4.441h4.544v4.441Zm-9.085,0v-4.441h4.542v4.441Zm-9.087,0v-4.441h4.544v4.441Zm-9.085,0v-4.441h4.542v4.441Zm-9.085,0v-4.441h4.542v4.441Zm-9.087,0v-4.441h4.542v4.441Zm-9.085,0v-4.441h4.543v4.441Zm-9.087,0v-4.441h4.542v4.441Zm-9.085,0v-4.441h4.542v4.441Zm-9.087,0v-4.441h4.545v4.441Zm-9.085,0v-4.441h4.542v4.441Zm-9.087,0v-4.441h4.544v4.441Zm-9.085,0v-4.441h4.542v4.441Zm-9.085,0v-4.441h4.542v4.441Zm-9.087,0v-4.441h4.543v4.441Zm-9.085,0v-4.441h4.542v4.441Zm-9.087,0v-4.441h4.542v4.441Zm-9.085,0v-4.441h4.542v4.441Zm-9.087,0v-4.441h4.544v4.441Zm-9.085,0v-4.441h4.542v4.441Zm-9.087,0v-4.441h4.545v4.441Zm-9.085,0v-4.441h4.542v4.441Zm-9.085,0v-4.441h4.542v4.441Zm-9.087,0v-4.441h4.542v4.441Zm-9.085,0v-4.441h4.542v4.441Zm-9.087,0v-4.441h4.542v4.441Zm-9.085,0v-4.441h4.542v4.441Zm-9.087,0v-4.441h4.544v4.441Zm-9.085,0v-4.441h4.542v4.441Zm-9.087,0v-4.441h4.544v4.441Zm-9.085,0v-4.441h4.542v4.441Zm-9.085,0v-4.441h4.542v4.441Zm-9.087,0v-4.441h4.542v4.441Zm-9.085,0v-4.441h4.542v4.441Zm-9.087,0v-4.441h4.542v4.441Zm-9.085,0v-4.441h4.542v4.441Zm-9.087,0v-4.441h4.544v4.441Zm-9.085,0v-4.441h4.542v4.441Zm-9.087,0v-4.441h4.545v4.441Zm-9.085,0v-4.441h4.542v4.441Zm-9.085,0v-4.441h4.542v4.441Zm-9.087,0v-4.441h4.542v4.441Zm-9.085,0v-4.441h4.542v4.441Zm-9.087,0v-4.441h4.542v4.441Zm-9.085,0v-4.441h4.542v4.441Zm472.457-8.884v-4.44h4.542v4.44Zm-9.087,0v-4.44h4.544v4.44Zm-9.085,0v-4.44h4.542v4.44Zm-9.085,0v-4.44h4.542v4.44Zm-9.087,0v-4.44h4.542v4.44Zm-9.085,0v-4.44h4.542v4.44Zm-9.087,0v-4.44h4.542v4.44Zm-9.085,0v-4.44h4.542v4.44Zm-9.087,0v-4.44h4.544v4.44Zm-9.085,0v-4.44h4.542v4.44Zm-9.087,0v-4.44h4.544v4.44Zm-9.085,0v-4.44h4.542v4.44Zm-9.085,0v-4.44h4.542v4.44Zm-9.087,0v-4.44h4.542v4.44Zm-9.085,0v-4.44h4.543v4.44Zm-9.087,0v-4.44h4.542v4.44Zm-9.085,0v-4.44h4.542v4.44Zm-9.087,0v-4.44h4.545v4.44Zm-9.085,0v-4.44h4.542v4.44Zm-9.087,0v-4.44h4.544v4.44Zm-9.085,0v-4.44h4.542v4.44Zm-9.085,0v-4.44h4.542v4.44Zm-9.087,0v-4.44h4.543v4.44Zm-9.085,0v-4.44h4.542v4.44Zm-9.087,0v-4.44h4.542v4.44Zm-9.085,0v-4.44h4.542v4.44Zm-9.087,0v-4.44h4.544v4.44Zm-9.085,0v-4.44h4.542v4.44Zm-9.087,0v-4.44h4.545v4.44Zm-9.085,0v-4.44h4.542v4.44Zm-9.085,0v-4.44h4.542v4.44Zm-9.087,0v-4.44h4.542v4.44Zm-9.085,0v-4.44h4.542v4.44Zm-9.087,0v-4.44h4.542v4.44Zm-9.085,0v-4.44h4.542v4.44Zm-9.087,0v-4.44h4.544v4.44Zm-9.085,0v-4.44h4.542v4.44Zm-9.087,0v-4.44h4.544v4.44Zm-9.085,0v-4.44h4.542v4.44Zm-9.085,0v-4.44h4.542v4.44Zm-9.087,0v-4.44h4.542v4.44Zm-9.085,0v-4.44h4.542v4.44Zm-9.087,0v-4.44h4.542v4.44Zm-9.085,0v-4.44h4.542v4.44Zm-9.087,0v-4.44h4.544v4.44Zm-9.085,0v-4.44h4.542v4.44Zm-9.087,0v-4.44h4.545v4.44Zm-9.085,0v-4.44h4.542v4.44Zm-9.085,0v-4.44h4.542v4.44Zm-9.087,0v-4.44h4.542v4.44Zm-9.085,0v-4.44h4.542v4.44Zm-9.087,0v-4.44h4.542v4.44Zm-9.085,0v-4.44h4.542v4.44Zm472.457-8.881v-4.441h4.542v4.441Zm-9.087,0v-4.441h4.544v4.441Zm-9.085,0v-4.441h4.542v4.441Zm-9.085,0v-4.441h4.542v4.441Zm-9.087,0v-4.441h4.542v4.441Zm-9.085,0v-4.441h4.542v4.441Zm-9.087,0v-4.441h4.542v4.441Zm-9.085,0v-4.441h4.542v4.441Zm-9.087,0v-4.441h4.544v4.441Zm-9.085,0v-4.441h4.542v4.441Zm-9.087,0v-4.441h4.544v4.441Zm-9.085,0v-4.441h4.542v4.441Zm-9.085,0v-4.441h4.542v4.441Zm-9.087,0v-4.441h4.542v4.441Zm-9.085,0v-4.441h4.543v4.441Zm-9.087,0v-4.441h4.542v4.441Zm-9.085,0v-4.441h4.542v4.441Zm-9.087,0v-4.441h4.545v4.441Zm-9.085,0v-4.441h4.542v4.441Zm-9.087,0v-4.441h4.544v4.441Zm-9.085,0v-4.441h4.542v4.441Zm-9.085,0v-4.441h4.542v4.441Zm-9.087,0v-4.441h4.543v4.441Zm-9.085,0v-4.441h4.542v4.441Zm-9.087,0v-4.441h4.542v4.441Zm-9.085,0v-4.441h4.542v4.441Zm-9.087,0v-4.441h4.544v4.441Zm-9.085,0v-4.441h4.542v4.441Zm-9.087,0v-4.441h4.545v4.441Zm-9.085,0v-4.441h4.542v4.441Zm-9.085,0v-4.441h4.542v4.441Zm-9.087,0v-4.441h4.542v4.441Zm-9.085,0v-4.441h4.542v4.441Zm-9.087,0v-4.441h4.542v4.441Zm-9.085,0v-4.441h4.542v4.441Zm-9.087,0v-4.441h4.544v4.441Zm-9.085,0v-4.441h4.542v4.441Zm-9.087,0v-4.441h4.544v4.441Zm-9.085,0v-4.441h4.542v4.441Zm-9.085,0v-4.441h4.542v4.441Zm-9.087,0v-4.441h4.542v4.441Zm-9.085,0v-4.441h4.542v4.441Zm-9.087,0v-4.441h4.542v4.441Zm-9.085,0v-4.441h4.542v4.441Zm-9.087,0v-4.441h4.544v4.441Zm-9.085,0v-4.441h4.542v4.441Zm-9.087,0v-4.441h4.545v4.441Zm-9.085,0v-4.441h4.542v4.441Zm-9.085,0v-4.441h4.542v4.441Zm-9.087,0v-4.441h4.542v4.441Zm-9.085,0v-4.441h4.542v4.441Zm-9.087,0v-4.441h4.542v4.441Zm-9.085,0v-4.441h4.542v4.441Zm472.457-8.882v-4.443h4.542v4.443Zm-9.087,0v-4.443h4.544v4.443Zm-9.085,0v-4.443h4.542v4.443Zm-9.085,0v-4.443h4.542v4.443Zm-9.087,0v-4.443h4.542v4.443Zm-9.085,0v-4.443h4.542v4.443Zm-9.087,0v-4.443h4.542v4.443Zm-9.085,0v-4.443h4.542v4.443Zm-9.087,0v-4.443h4.544v4.443Zm-9.085,0v-4.443h4.542v4.443Zm-9.087,0v-4.443h4.544v4.443Zm-9.085,0v-4.443h4.542v4.443Zm-9.085,0v-4.443h4.542v4.443Zm-9.087,0v-4.443h4.542v4.443Zm-9.085,0v-4.443h4.543v4.443Zm-9.087,0v-4.443h4.542v4.443Zm-9.085,0v-4.443h4.542v4.443Zm-9.087,0v-4.443h4.545v4.443Zm-9.085,0v-4.443h4.542v4.443Zm-9.087,0v-4.443h4.544v4.443Zm-9.085,0v-4.443h4.542v4.443Zm-9.085,0v-4.443h4.542v4.443Zm-9.087,0v-4.443h4.543v4.443Zm-9.085,0v-4.443h4.542v4.443Zm-9.087,0v-4.443h4.542v4.443Zm-9.085,0v-4.443h4.542v4.443Zm-9.087,0v-4.443h4.544v4.443Zm-9.085,0v-4.443h4.542v4.443Zm-9.087,0v-4.443h4.545v4.443Zm-9.085,0v-4.443h4.542v4.443Zm-9.085,0v-4.443h4.542v4.443Zm-9.087,0v-4.443h4.542v4.443Zm-9.085,0v-4.443h4.542v4.443Zm-9.087,0v-4.443h4.542v4.443Zm-9.085,0v-4.443h4.542v4.443Zm-9.087,0v-4.443h4.544v4.443Zm-9.085,0v-4.443h4.542v4.443Zm-9.087,0v-4.443h4.544v4.443Zm-9.085,0v-4.443h4.542v4.443Zm-9.085,0v-4.443h4.542v4.443Zm-9.087,0v-4.443h4.542v4.443Zm-9.085,0v-4.443h4.542v4.443Zm-9.087,0v-4.443h4.542v4.443Zm-9.085,0v-4.443h4.542v4.443Zm-9.087,0v-4.443h4.544v4.443Zm-9.085,0v-4.443h4.542v4.443Zm-9.087,0v-4.443h4.545v4.443Zm-9.085,0v-4.443h4.542v4.443Zm-9.085,0v-4.443h4.542v4.443Zm-9.087,0v-4.443h4.542v4.443Zm-9.085,0v-4.443h4.542v4.443Zm-9.087,0v-4.443h4.542v4.443Zm-9.085,0v-4.443h4.542v4.443Zm472.457-8.884v-4.441h4.542v4.441Zm-9.087,0v-4.441h4.544v4.441Zm-9.085,0v-4.441h4.542v4.441Zm-9.085,0v-4.441h4.542v4.441Zm-9.087,0v-4.441h4.542v4.441Zm-9.085,0v-4.441h4.542v4.441Zm-9.087,0v-4.441h4.542v4.441Zm-9.085,0v-4.441h4.542v4.441Zm-9.087,0v-4.441h4.544v4.441Zm-9.085,0v-4.441h4.542v4.441Zm-9.087,0v-4.441h4.544v4.441Zm-9.085,0v-4.441h4.542v4.441Zm-9.085,0v-4.441h4.542v4.441Zm-9.087,0v-4.441h4.542v4.441Zm-9.085,0v-4.441h4.543v4.441Zm-9.087,0v-4.441h4.542v4.441Zm-9.085,0v-4.441h4.542v4.441Zm-9.087,0v-4.441h4.545v4.441Zm-9.085,0v-4.441h4.542v4.441Zm-9.087,0v-4.441h4.544v4.441Zm-9.085,0v-4.441h4.542v4.441Zm-9.085,0v-4.441h4.542v4.441Zm-9.087,0v-4.441h4.543v4.441Zm-9.085,0v-4.441h4.542v4.441Zm-9.087,0v-4.441h4.542v4.441Zm-9.085,0v-4.441h4.542v4.441Zm-9.087,0v-4.441h4.544v4.441Zm-9.085,0v-4.441h4.542v4.441Zm-9.087,0v-4.441h4.545v4.441Zm-9.085,0v-4.441h4.542v4.441Zm-9.085,0v-4.441h4.542v4.441Zm-9.087,0v-4.441h4.542v4.441Zm-9.085,0v-4.441h4.542v4.441Zm-9.087,0v-4.441h4.542v4.441Zm-9.085,0v-4.441h4.542v4.441Zm-9.087,0v-4.441h4.544v4.441Zm-9.085,0v-4.441h4.542v4.441Zm-9.087,0v-4.441h4.544v4.441Zm-9.085,0v-4.441h4.542v4.441Zm-9.085,0v-4.441h4.542v4.441Zm-9.087,0v-4.441h4.542v4.441Zm-9.085,0v-4.441h4.542v4.441Zm-9.087,0v-4.441h4.542v4.441Zm-9.085,0v-4.441h4.542v4.441Zm-9.087,0v-4.441h4.544v4.441Zm-9.085,0v-4.441h4.542v4.441Zm-9.087,0v-4.441h4.545v4.441Zm-9.085,0v-4.441h4.542v4.441Zm-9.085,0v-4.441h4.542v4.441Zm-9.087,0v-4.441h4.542v4.441Zm-9.085,0v-4.441h4.542v4.441Zm-9.087,0v-4.441h4.542v4.441Zm-9.085,0v-4.441h4.542v4.441Zm472.457-8.882v-4.443h4.542v4.443Zm-9.087,0v-4.443h4.544v4.443Zm-9.085,0v-4.443h4.542v4.443Zm-9.085,0v-4.443h4.542v4.443Zm-9.087,0v-4.443h4.542v4.443Zm-9.085,0v-4.443h4.542v4.443Zm-9.087,0v-4.443h4.542v4.443Zm-9.085,0v-4.443h4.542v4.443Zm-9.087,0v-4.443h4.544v4.443Zm-9.085,0v-4.443h4.542v4.443Zm-9.087,0v-4.443h4.544v4.443Zm-9.085,0v-4.443h4.542v4.443Zm-9.085,0v-4.443h4.542v4.443Zm-9.087,0v-4.443h4.542v4.443Zm-9.085,0v-4.443h4.543v4.443Zm-9.087,0v-4.443h4.542v4.443Zm-9.085,0v-4.443h4.542v4.443Zm-9.087,0v-4.443h4.545v4.443Zm-9.085,0v-4.443h4.542v4.443Zm-9.087,0v-4.443h4.544v4.443Zm-9.085,0v-4.443h4.542v4.443Zm-9.085,0v-4.443h4.542v4.443Zm-9.087,0v-4.443h4.543v4.443Zm-9.085,0v-4.443h4.542v4.443Zm-9.087,0v-4.443h4.542v4.443Zm-9.085,0v-4.443h4.542v4.443Zm-9.087,0v-4.443h4.544v4.443Zm-9.085,0v-4.443h4.542v4.443Zm-9.087,0v-4.443h4.545v4.443Zm-9.085,0v-4.443h4.542v4.443Zm-9.085,0v-4.443h4.542v4.443Zm-9.087,0v-4.443h4.542v4.443Zm-9.085,0v-4.443h4.542v4.443Zm-9.087,0v-4.443h4.542v4.443Zm-9.085,0v-4.443h4.542v4.443Zm-9.087,0v-4.443h4.544v4.443Zm-9.085,0v-4.443h4.542v4.443Zm-9.087,0v-4.443h4.544v4.443Zm-9.085,0v-4.443h4.542v4.443Zm-9.085,0v-4.443h4.542v4.443Zm-9.087,0v-4.443h4.542v4.443Zm-9.085,0v-4.443h4.542v4.443Zm-9.087,0v-4.443h4.542v4.443Zm-9.085,0v-4.443h4.542v4.443Zm-9.087,0v-4.443h4.544v4.443Zm-9.085,0v-4.443h4.542v4.443Zm-9.087,0v-4.443h4.545v4.443Zm-9.085,0v-4.443h4.542v4.443Zm-9.085,0v-4.443h4.542v4.443Zm-9.087,0v-4.443h4.542v4.443Zm-9.085,0v-4.443h4.542v4.443Zm-9.087,0v-4.443h4.542v4.443Zm-9.085,0v-4.443h4.542v4.443Zm472.457-8.884v-4.441h4.542v4.441Zm-9.087,0v-4.441h4.544v4.441Zm-9.085,0v-4.441h4.542v4.441Zm-9.085,0v-4.441h4.542v4.441Zm-9.087,0v-4.441h4.542v4.441Zm-9.085,0v-4.441h4.542v4.441Zm-9.087,0v-4.441h4.542v4.441Zm-9.085,0v-4.441h4.542v4.441Zm-9.087,0v-4.441h4.544v4.441Zm-9.085,0v-4.441h4.542v4.441Zm-9.087,0v-4.441h4.544v4.441Zm-9.085,0v-4.441h4.542v4.441Zm-9.085,0v-4.441h4.542v4.441Zm-9.087,0v-4.441h4.542v4.441Zm-9.085,0v-4.441h4.543v4.441Zm-9.087,0v-4.441h4.542v4.441Zm-9.085,0v-4.441h4.542v4.441Zm-9.087,0v-4.441h4.545v4.441Zm-9.085,0v-4.441h4.542v4.441Zm-9.087,0v-4.441h4.544v4.441Zm-9.085,0v-4.441h4.542v4.441Zm-9.085,0v-4.441h4.542v4.441Zm-9.087,0v-4.441h4.543v4.441Zm-9.085,0v-4.441h4.542v4.441Zm-9.087,0v-4.441h4.542v4.441Zm-9.085,0v-4.441h4.542v4.441Zm-9.087,0v-4.441h4.544v4.441Zm-9.085,0v-4.441h4.542v4.441Zm-9.087,0v-4.441h4.545v4.441Zm-9.085,0v-4.441h4.542v4.441Zm-9.085,0v-4.441h4.542v4.441Zm-9.087,0v-4.441h4.542v4.441Zm-9.085,0v-4.441h4.542v4.441Zm-9.087,0v-4.441h4.542v4.441Zm-9.085,0v-4.441h4.542v4.441Zm-9.087,0v-4.441h4.544v4.441Zm-9.085,0v-4.441h4.542v4.441Zm-9.087,0v-4.441h4.544v4.441Zm-9.085,0v-4.441h4.542v4.441Zm-9.085,0v-4.441h4.542v4.441Zm-9.087,0v-4.441h4.542v4.441Zm-9.085,0v-4.441h4.542v4.441Zm-9.087,0v-4.441h4.542v4.441Zm-9.085,0v-4.441h4.542v4.441Zm-9.087,0v-4.441h4.544v4.441Zm-9.085,0v-4.441h4.542v4.441Zm-9.087,0v-4.441h4.545v4.441Zm-9.085,0v-4.441h4.542v4.441Zm-9.085,0v-4.441h4.542v4.441Zm-9.087,0v-4.441h4.542v4.441Zm-9.085,0v-4.441h4.542v4.441Zm-9.087,0v-4.441h4.542v4.441Zm-9.085,0v-4.441h4.542v4.441Zm472.457-8.882v-4.441h4.542v4.441Zm-9.087,0v-4.441h4.544v4.441Zm-9.085,0v-4.441h4.542v4.441Zm-9.085,0v-4.441h4.542v4.441Zm-9.087,0v-4.441h4.542v4.441Zm-9.085,0v-4.441h4.542v4.441Zm-9.087,0v-4.441h4.542v4.441Zm-9.085,0v-4.441h4.542v4.441Zm-9.087,0v-4.441h4.544v4.441Zm-9.085,0v-4.441h4.542v4.441Zm-9.087,0v-4.441h4.544v4.441Zm-9.085,0v-4.441h4.542v4.441Zm-9.085,0v-4.441h4.542v4.441Zm-9.087,0v-4.441h4.542v4.441Zm-9.085,0v-4.441h4.543v4.441Zm-9.087,0v-4.441h4.542v4.441Zm-9.085,0v-4.441h4.542v4.441Zm-9.087,0v-4.441h4.545v4.441Zm-9.085,0v-4.441h4.542v4.441Zm-9.087,0v-4.441h4.544v4.441Zm-9.085,0v-4.441h4.542v4.441Zm-9.085,0v-4.441h4.542v4.441Zm-9.087,0v-4.441h4.543v4.441Zm-9.085,0v-4.441h4.542v4.441Zm-9.087,0v-4.441h4.542v4.441Zm-9.085,0v-4.441h4.542v4.441Zm-9.087,0v-4.441h4.544v4.441Zm-9.085,0v-4.441h4.542v4.441Zm-9.087,0v-4.441h4.545v4.441Zm-9.085,0v-4.441h4.542v4.441Zm-9.085,0v-4.441h4.542v4.441Zm-9.087,0v-4.441h4.542v4.441Zm-9.085,0v-4.441h4.542v4.441Zm-9.087,0v-4.441h4.542v4.441Zm-9.085,0v-4.441h4.542v4.441Zm-9.087,0v-4.441h4.544v4.441Zm-9.085,0v-4.441h4.542v4.441Zm-9.087,0v-4.441h4.544v4.441Zm-9.085,0v-4.441h4.542v4.441Zm-9.085,0v-4.441h4.542v4.441Zm-9.087,0v-4.441h4.542v4.441Zm-9.085,0v-4.441h4.542v4.441Zm-9.087,0v-4.441h4.542v4.441Zm-9.085,0v-4.441h4.542v4.441Zm-9.087,0v-4.441h4.544v4.441Zm-9.085,0v-4.441h4.542v4.441Zm-9.087,0v-4.441h4.545v4.441Zm-9.085,0v-4.441h4.542v4.441Zm-9.085,0v-4.441h4.542v4.441Zm-9.087,0v-4.441h4.542v4.441Zm-9.085,0v-4.441h4.542v4.441Zm-9.087,0v-4.441h4.542v4.441Zm-9.085,0v-4.441h4.542v4.441Zm472.457-8.883v-4.441h4.542v4.441Zm-9.087,0v-4.441h4.544v4.441Zm-9.085,0v-4.441h4.542v4.441Zm-9.085,0v-4.441h4.542v4.441Zm-9.087,0v-4.441h4.542v4.441Zm-9.085,0v-4.441h4.542v4.441Zm-9.087,0v-4.441h4.542v4.441Zm-9.085,0v-4.441h4.542v4.441Zm-9.087,0v-4.441h4.544v4.441Zm-9.085,0v-4.441h4.542v4.441Zm-9.087,0v-4.441h4.544v4.441Zm-9.085,0v-4.441h4.542v4.441Zm-9.085,0v-4.441h4.542v4.441Zm-9.087,0v-4.441h4.542v4.441Zm-9.085,0v-4.441h4.543v4.441Zm-9.087,0v-4.441h4.542v4.441Zm-9.085,0v-4.441h4.542v4.441Zm-9.087,0v-4.441h4.545v4.441Zm-9.085,0v-4.441h4.542v4.441Zm-9.087,0v-4.441h4.544v4.441Zm-9.085,0v-4.441h4.542v4.441Zm-9.085,0v-4.441h4.542v4.441Zm-9.087,0v-4.441h4.543v4.441Zm-9.085,0v-4.441h4.542v4.441Zm-9.087,0v-4.441h4.542v4.441Zm-9.085,0v-4.441h4.542v4.441Zm-9.087,0v-4.441h4.544v4.441Zm-9.085,0v-4.441h4.542v4.441Zm-9.087,0v-4.441h4.545v4.441Zm-9.085,0v-4.441h4.542v4.441Zm-9.085,0v-4.441h4.542v4.441Zm-9.087,0v-4.441h4.542v4.441Zm-9.085,0v-4.441h4.542v4.441Zm-9.087,0v-4.441h4.542v4.441Zm-9.085,0v-4.441h4.542v4.441Zm-9.087,0v-4.441h4.544v4.441Zm-9.085,0v-4.441h4.542v4.441Zm-9.087,0v-4.441h4.544v4.441Zm-9.085,0v-4.441h4.542v4.441Zm-9.085,0v-4.441h4.542v4.441Zm-9.087,0v-4.441h4.542v4.441Zm-9.085,0v-4.441h4.542v4.441Zm-9.087,0v-4.441h4.542v4.441Zm-9.085,0v-4.441h4.542v4.441Zm-9.087,0v-4.441h4.544v4.441Zm-9.085,0v-4.441h4.542v4.441Zm-9.087,0v-4.441h4.545v4.441Zm-9.085,0v-4.441h4.542v4.441Zm-9.085,0v-4.441h4.542v4.441Zm-9.087,0v-4.441h4.542v4.441Zm-9.085,0v-4.441h4.542v4.441Zm-9.087,0v-4.441h4.542v4.441Zm-9.085,0v-4.441h4.542v4.441Zm472.457-8.881v-4.441h4.542v4.441Zm-9.087,0v-4.441h4.544v4.441Zm-9.085,0v-4.441h4.542v4.441Zm-9.085,0v-4.441h4.542v4.441Zm-9.087,0v-4.441h4.542v4.441Zm-9.085,0v-4.441h4.542v4.441Zm-9.087,0v-4.441h4.542v4.441Zm-9.085,0v-4.441h4.542v4.441Zm-9.087,0v-4.441h4.544v4.441Zm-9.085,0v-4.441h4.542v4.441Zm-9.087,0v-4.441h4.544v4.441Zm-9.085,0v-4.441h4.542v4.441Zm-9.085,0v-4.441h4.542v4.441Zm-9.087,0v-4.441h4.542v4.441Zm-9.085,0v-4.441h4.543v4.441Zm-9.087,0v-4.441h4.542v4.441Zm-9.085,0v-4.441h4.542v4.441Zm-9.087,0v-4.441h4.545v4.441Zm-9.085,0v-4.441h4.542v4.441Zm-9.087,0v-4.441h4.544v4.441Zm-9.085,0v-4.441h4.542v4.441Zm-9.085,0v-4.441h4.542v4.441Zm-9.087,0v-4.441h4.543v4.441Zm-9.085,0v-4.441h4.542v4.441Zm-9.087,0v-4.441h4.542v4.441Zm-9.085,0v-4.441h4.542v4.441Zm-9.087,0v-4.441h4.544v4.441Zm-9.085,0v-4.441h4.542v4.441Zm-9.087,0v-4.441h4.545v4.441Zm-9.085,0v-4.441h4.542v4.441Zm-9.085,0v-4.441h4.542v4.441Zm-9.087,0v-4.441h4.542v4.441Zm-9.085,0v-4.441h4.542v4.441Zm-9.087,0v-4.441h4.542v4.441Zm-9.085,0v-4.441h4.542v4.441Zm-9.087,0v-4.441h4.544v4.441Zm-9.085,0v-4.441h4.542v4.441Zm-9.087,0v-4.441h4.544v4.441Zm-9.085,0v-4.441h4.542v4.441Zm-9.085,0v-4.441h4.542v4.441Zm-9.087,0v-4.441h4.542v4.441Zm-9.085,0v-4.441h4.542v4.441Zm-9.087,0v-4.441h4.542v4.441Zm-9.085,0v-4.441h4.542v4.441Zm-9.087,0v-4.441h4.544v4.441Zm-9.085,0v-4.441h4.542v4.441Zm-9.087,0v-4.441h4.545v4.441Zm-9.085,0v-4.441h4.542v4.441Zm-9.085,0v-4.441h4.542v4.441Zm-9.087,0v-4.441h4.542v4.441Zm-9.085,0v-4.441h4.542v4.441Zm-9.087,0v-4.441h4.542v4.441Zm-9.085,0v-4.441h4.542v4.441Zm472.457-8.884v-4.441h4.542v4.441Zm-9.087,0v-4.441h4.544v4.441Zm-9.085,0v-4.441h4.542v4.441Zm-9.085,0v-4.441h4.542v4.441Zm-9.087,0v-4.441h4.542v4.441Zm-9.085,0v-4.441h4.542v4.441Zm-9.087,0v-4.441h4.542v4.441Zm-9.085,0v-4.441h4.542v4.441Zm-9.087,0v-4.441h4.544v4.441Zm-9.085,0v-4.441h4.542v4.441Zm-9.087,0v-4.441h4.544v4.441Zm-9.085,0v-4.441h4.542v4.441Zm-9.085,0v-4.441h4.542v4.441Zm-9.087,0v-4.441h4.542v4.441Zm-9.085,0v-4.441h4.543v4.441Zm-9.087,0v-4.441h4.542v4.441Zm-9.085,0v-4.441h4.542v4.441Zm-9.087,0v-4.441h4.545v4.441Zm-9.085,0v-4.441h4.542v4.441Zm-9.087,0v-4.441h4.544v4.441Zm-9.085,0v-4.441h4.542v4.441Zm-9.085,0v-4.441h4.542v4.441Zm-9.087,0v-4.441h4.543v4.441Zm-9.085,0v-4.441h4.542v4.441Zm-9.087,0v-4.441h4.542v4.441Zm-9.085,0v-4.441h4.542v4.441Zm-9.087,0v-4.441h4.544v4.441Zm-9.085,0v-4.441h4.542v4.441Zm-9.087,0v-4.441h4.545v4.441Zm-9.085,0v-4.441h4.542v4.441Zm-9.085,0v-4.441h4.542v4.441Zm-9.087,0v-4.441h4.542v4.441Zm-9.085,0v-4.441h4.542v4.441Zm-9.087,0v-4.441h4.542v4.441Zm-9.085,0v-4.441h4.542v4.441Zm-9.087,0v-4.441h4.544v4.441Zm-9.085,0v-4.441h4.542v4.441Zm-9.087,0v-4.441h4.544v4.441Zm-9.085,0v-4.441h4.542v4.441Zm-9.085,0v-4.441h4.542v4.441Zm-9.087,0v-4.441h4.542v4.441Zm-9.085,0v-4.441h4.542v4.441Zm-9.087,0v-4.441h4.542v4.441Zm-9.085,0v-4.441h4.542v4.441Zm-9.087,0v-4.441h4.544v4.441Zm-9.085,0v-4.441h4.542v4.441Zm-9.087,0v-4.441h4.545v4.441Zm-9.085,0v-4.441h4.542v4.441Zm-9.085,0v-4.441h4.542v4.441Zm-9.087,0v-4.441h4.542v4.441Zm-9.085,0v-4.441h4.542v4.441Zm-9.087,0v-4.441h4.542v4.441Zm-9.085,0v-4.441h4.542v4.441Zm472.457-8.881v-4.441h4.542v4.441Zm-9.087,0v-4.441h4.544v4.441Zm-9.085,0v-4.441h4.542v4.441Zm-9.085,0v-4.441h4.542v4.441Zm-9.087,0v-4.441h4.542v4.441Zm-9.085,0v-4.441h4.542v4.441Zm-9.087,0v-4.441h4.542v4.441Zm-9.085,0v-4.441h4.542v4.441Zm-9.087,0v-4.441h4.544v4.441Zm-9.085,0v-4.441h4.542v4.441Zm-9.087,0v-4.441h4.544v4.441Zm-9.085,0v-4.441h4.542v4.441Zm-9.085,0v-4.441h4.542v4.441Zm-9.087,0v-4.441h4.542v4.441Zm-9.085,0v-4.441h4.543v4.441Zm-9.087,0v-4.441h4.542v4.441Zm-9.085,0v-4.441h4.542v4.441Zm-9.087,0v-4.441h4.545v4.441Zm-9.085,0v-4.441h4.542v4.441Zm-9.087,0v-4.441h4.544v4.441Zm-9.085,0v-4.441h4.542v4.441Zm-9.085,0v-4.441h4.542v4.441Zm-9.087,0v-4.441h4.543v4.441Zm-9.085,0v-4.441h4.542v4.441Zm-9.087,0v-4.441h4.542v4.441Zm-9.085,0v-4.441h4.542v4.441Zm-9.087,0v-4.441h4.544v4.441Zm-9.085,0v-4.441h4.542v4.441Zm-9.087,0v-4.441h4.545v4.441Zm-9.085,0v-4.441h4.542v4.441Zm-9.085,0v-4.441h4.542v4.441Zm-9.087,0v-4.441h4.542v4.441Zm-9.085,0v-4.441h4.542v4.441Zm-9.087,0v-4.441h4.542v4.441Zm-9.085,0v-4.441h4.542v4.441Zm-9.087,0v-4.441h4.544v4.441Zm-9.085,0v-4.441h4.542v4.441Zm-9.087,0v-4.441h4.544v4.441Zm-9.085,0v-4.441h4.542v4.441Zm-9.085,0v-4.441h4.542v4.441Zm-9.087,0v-4.441h4.542v4.441Zm-9.085,0v-4.441h4.542v4.441Zm-9.087,0v-4.441h4.542v4.441Zm-9.085,0v-4.441h4.542v4.441Zm-9.087,0v-4.441h4.544v4.441Zm-9.085,0v-4.441h4.542v4.441Zm-9.087,0v-4.441h4.545v4.441Zm-9.085,0v-4.441h4.542v4.441Zm-9.085,0v-4.441h4.542v4.441Zm-9.087,0v-4.441h4.542v4.441Zm-9.085,0v-4.441h4.542v4.441Zm-9.087,0v-4.441h4.542v4.441Zm-9.085,0v-4.441h4.542v4.441Zm472.457-8.881v-4.443h4.542v4.443Zm-9.087,0v-4.443h4.544v4.443Zm-9.085,0v-4.443h4.542v4.443Zm-9.085,0v-4.443h4.542v4.443Zm-9.087,0v-4.443h4.542v4.443Zm-9.085,0v-4.443h4.542v4.443Zm-9.087,0v-4.443h4.542v4.443Zm-9.085,0v-4.443h4.542v4.443Zm-9.087,0v-4.443h4.544v4.443Zm-9.085,0v-4.443h4.542v4.443Zm-9.087,0v-4.443h4.544v4.443Zm-9.085,0v-4.443h4.542v4.443Zm-9.085,0v-4.443h4.542v4.443Zm-9.087,0v-4.443h4.542v4.443Zm-9.085,0v-4.443h4.543v4.443Zm-9.087,0v-4.443h4.542v4.443Zm-9.085,0v-4.443h4.542v4.443Zm-9.087,0v-4.443h4.545v4.443Zm-9.085,0v-4.443h4.542v4.443Zm-9.087,0v-4.443h4.544v4.443Zm-9.085,0v-4.443h4.542v4.443Zm-9.085,0v-4.443h4.542v4.443Zm-9.087,0v-4.443h4.543v4.443Zm-9.085,0v-4.443h4.542v4.443Zm-9.087,0v-4.443h4.542v4.443Zm-9.085,0v-4.443h4.542v4.443Zm-9.087,0v-4.443h4.544v4.443Zm-9.085,0v-4.443h4.542v4.443Zm-9.087,0v-4.443h4.545v4.443Zm-9.085,0v-4.443h4.542v4.443Zm-9.085,0v-4.443h4.542v4.443Zm-9.087,0v-4.443h4.542v4.443Zm-9.085,0v-4.443h4.542v4.443Zm-9.087,0v-4.443h4.542v4.443Zm-9.085,0v-4.443h4.542v4.443Zm-9.087,0v-4.443h4.544v4.443Zm-9.085,0v-4.443h4.542v4.443Zm-9.087,0v-4.443h4.544v4.443Zm-9.085,0v-4.443h4.542v4.443Zm-9.085,0v-4.443h4.542v4.443Zm-9.087,0v-4.443h4.542v4.443Zm-9.085,0v-4.443h4.542v4.443Zm-9.087,0v-4.443h4.542v4.443Zm-9.085,0v-4.443h4.542v4.443Zm-9.087,0v-4.443h4.544v4.443Zm-9.085,0v-4.443h4.542v4.443Zm-9.087,0v-4.443h4.545v4.443Zm-9.085,0v-4.443h4.542v4.443Zm-9.085,0v-4.443h4.542v4.443Zm-9.087,0v-4.443h4.542v4.443Zm-9.085,0v-4.443h4.542v4.443Zm-9.087,0v-4.443h4.542v4.443Zm-9.085,0v-4.443h4.542v4.443Zm472.457-8.884v-4.44h4.542v4.44Zm-9.087,0v-4.44h4.544v4.44Zm-9.085,0v-4.44h4.542v4.44Zm-9.085,0v-4.44h4.542v4.44Zm-9.087,0v-4.44h4.542v4.44Zm-9.085,0v-4.44h4.542v4.44Zm-9.087,0v-4.44h4.542v4.44Zm-9.085,0v-4.44h4.542v4.44Zm-9.087,0v-4.44h4.544v4.44Zm-9.085,0v-4.44h4.542v4.44Zm-9.087,0v-4.44h4.544v4.44Zm-9.085,0v-4.44h4.542v4.44Zm-9.085,0v-4.44h4.542v4.44Zm-9.087,0v-4.44h4.542v4.44Zm-9.085,0v-4.44h4.543v4.44Zm-9.087,0v-4.44h4.542v4.44Zm-9.085,0v-4.44h4.542v4.44Zm-9.087,0v-4.44h4.545v4.44Zm-9.085,0v-4.44h4.542v4.44Zm-9.087,0v-4.44h4.544v4.44Zm-9.085,0v-4.44h4.542v4.44Zm-9.085,0v-4.44h4.542v4.44Zm-9.087,0v-4.44h4.543v4.44Zm-9.085,0v-4.44h4.542v4.44Zm-9.087,0v-4.44h4.542v4.44Zm-9.085,0v-4.44h4.542v4.44Zm-9.087,0v-4.44h4.544v4.44Zm-9.085,0v-4.44h4.542v4.44Zm-9.087,0v-4.44h4.545v4.44Zm-9.085,0v-4.44h4.542v4.44Zm-9.085,0v-4.44h4.542v4.44Zm-9.087,0v-4.44h4.542v4.44Zm-9.085,0v-4.44h4.542v4.44Zm-9.087,0v-4.44h4.542v4.44Zm-9.085,0v-4.44h4.542v4.44Zm-9.087,0v-4.44h4.544v4.44Zm-9.085,0v-4.44h4.542v4.44Zm-9.087,0v-4.44h4.544v4.44Zm-9.085,0v-4.44h4.542v4.44Zm-9.085,0v-4.44h4.542v4.44Zm-9.087,0v-4.44h4.542v4.44Zm-9.085,0v-4.44h4.542v4.44Zm-9.087,0v-4.44h4.542v4.44Zm-9.085,0v-4.44h4.542v4.44Zm-9.087,0v-4.44h4.544v4.44Zm-9.085,0v-4.44h4.542v4.44Zm-9.087,0v-4.44h4.545v4.44Zm-9.085,0v-4.44h4.542v4.44Zm-9.085,0v-4.44h4.542v4.44Zm-9.087,0v-4.44h4.542v4.44Zm-9.085,0v-4.44h4.542v4.44Zm-9.087,0v-4.44h4.542v4.44Zm-9.085,0v-4.44h4.542v4.44Zm472.457-8.881v-4.443h4.542v4.443Zm-9.087,0v-4.443h4.544v4.443Zm-9.085,0v-4.443h4.542v4.443Zm-9.085,0v-4.443h4.542v4.443Zm-9.087,0v-4.443h4.542v4.443Zm-9.085,0v-4.443h4.542v4.443Zm-9.087,0v-4.443h4.542v4.443Zm-9.085,0v-4.443h4.542v4.443Zm-9.087,0v-4.443h4.544v4.443Zm-9.085,0v-4.443h4.542v4.443Zm-9.087,0v-4.443h4.544v4.443Zm-9.085,0v-4.443h4.542v4.443Zm-9.085,0v-4.443h4.542v4.443Zm-9.087,0v-4.443h4.542v4.443Zm-9.085,0v-4.443h4.543v4.443Zm-9.087,0v-4.443h4.542v4.443Zm-9.085,0v-4.443h4.542v4.443Zm-9.087,0v-4.443h4.545v4.443Zm-9.085,0v-4.443h4.542v4.443Zm-9.087,0v-4.443h4.544v4.443Zm-9.085,0v-4.443h4.542v4.443Zm-9.085,0v-4.443h4.542v4.443Zm-9.087,0v-4.443h4.543v4.443Zm-9.085,0v-4.443h4.542v4.443Zm-9.087,0v-4.443h4.542v4.443Zm-9.085,0v-4.443h4.542v4.443Zm-9.087,0v-4.443h4.544v4.443Zm-9.085,0v-4.443h4.542v4.443Zm-9.087,0v-4.443h4.545v4.443Zm-9.085,0v-4.443h4.542v4.443Zm-9.085,0v-4.443h4.542v4.443Zm-9.087,0v-4.443h4.542v4.443Zm-9.085,0v-4.443h4.542v4.443Zm-9.087,0v-4.443h4.542v4.443Zm-9.085,0v-4.443h4.542v4.443Zm-9.087,0v-4.443h4.544v4.443Zm-9.085,0v-4.443h4.542v4.443Zm-9.087,0v-4.443h4.544v4.443Zm-9.085,0v-4.443h4.542v4.443Zm-9.085,0v-4.443h4.542v4.443Zm-9.087,0v-4.443h4.542v4.443Zm-9.085,0v-4.443h4.542v4.443Zm-9.087,0v-4.443h4.542v4.443Zm-9.085,0v-4.443h4.542v4.443Zm-9.087,0v-4.443h4.544v4.443Zm-9.085,0v-4.443h4.542v4.443Zm-9.087,0v-4.443h4.545v4.443Zm-9.085,0v-4.443h4.542v4.443Zm-9.085,0v-4.443h4.542v4.443Zm-9.087,0v-4.443h4.542v4.443Zm-9.085,0v-4.443h4.542v4.443Zm-9.087,0v-4.443h4.542v4.443Zm-9.085,0v-4.443h4.542v4.443Zm472.457-8.884V-1222h4.542v4.441Zm-9.087,0V-1222h4.544v4.441Zm-9.085,0V-1222h4.542v4.441Zm-9.085,0V-1222h4.542v4.441Zm-9.087,0V-1222h4.542v4.441Zm-9.085,0V-1222h4.542v4.441Zm-9.087,0V-1222h4.542v4.441Zm-9.085,0V-1222h4.542v4.441Zm-9.087,0V-1222h4.544v4.441Zm-9.085,0V-1222h4.542v4.441Zm-9.087,0V-1222h4.544v4.441Zm-9.085,0V-1222h4.542v4.441Zm-9.085,0V-1222h4.542v4.441Zm-9.087,0V-1222h4.542v4.441Zm-9.085,0V-1222h4.543v4.441Zm-9.087,0V-1222h4.542v4.441Zm-9.085,0V-1222h4.542v4.441Zm-9.087,0V-1222h4.545v4.441Zm-9.085,0V-1222h4.542v4.441Zm-9.087,0V-1222h4.544v4.441Zm-9.085,0V-1222h4.542v4.441Zm-9.085,0V-1222h4.542v4.441Zm-9.087,0V-1222h4.543v4.441Zm-9.085,0V-1222h4.542v4.441Zm-9.087,0V-1222h4.542v4.441Zm-9.085,0V-1222h4.542v4.441Zm-9.087,0V-1222h4.544v4.441Zm-9.085,0V-1222h4.542v4.441Zm-9.087,0V-1222h4.545v4.441Zm-9.085,0V-1222h4.542v4.441Zm-9.085,0V-1222h4.542v4.441Zm-9.087,0V-1222h4.542v4.441Zm-9.085,0V-1222h4.542v4.441Zm-9.087,0V-1222h4.542v4.441Zm-9.085,0V-1222h4.542v4.441Zm-9.087,0V-1222h4.544v4.441Zm-9.085,0V-1222h4.542v4.441Zm-9.087,0V-1222h4.544v4.441Zm-9.085,0V-1222h4.542v4.441Zm-9.085,0V-1222h4.542v4.441Zm-9.087,0V-1222h4.542v4.441Zm-9.085,0V-1222h4.542v4.441Zm-9.087,0V-1222h4.542v4.441Zm-9.085,0V-1222h4.542v4.441Zm-9.087,0V-1222h4.544v4.441Zm-9.085,0V-1222h4.542v4.441Zm-9.087,0V-1222h4.545v4.441Zm-9.085,0V-1222h4.542v4.441Zm-9.085,0V-1222h4.542v4.441Zm-9.087,0V-1222h4.542v4.441Zm-9.085,0V-1222h4.542v4.441Zm-9.087,0V-1222h4.542v4.441Zm-9.085,0V-1222h4.542v4.441Zm472.457-8.882v-4.441h4.542v4.441Zm-9.087,0v-4.441h4.544v4.441Zm-9.085,0v-4.441h4.542v4.441Zm-9.085,0v-4.441h4.542v4.441Zm-9.087,0v-4.441h4.542v4.441Zm-9.085,0v-4.441h4.542v4.441Zm-9.087,0v-4.441h4.542v4.441Zm-9.085,0v-4.441h4.542v4.441Zm-9.087,0v-4.441h4.544v4.441Zm-9.085,0v-4.441h4.542v4.441Zm-9.087,0v-4.441h4.544v4.441Zm-9.085,0v-4.441h4.542v4.441Zm-9.085,0v-4.441h4.542v4.441Zm-9.087,0v-4.441h4.542v4.441Zm-9.085,0v-4.441h4.543v4.441Zm-9.087,0v-4.441h4.542v4.441Zm-9.085,0v-4.441h4.542v4.441Zm-9.087,0v-4.441h4.545v4.441Zm-9.085,0v-4.441h4.542v4.441Zm-9.087,0v-4.441h4.544v4.441Zm-9.085,0v-4.441h4.542v4.441Zm-9.085,0v-4.441h4.542v4.441Zm-9.087,0v-4.441h4.543v4.441Zm-9.085,0v-4.441h4.542v4.441Zm-9.087,0v-4.441h4.542v4.441Zm-9.085,0v-4.441h4.542v4.441Zm-9.087,0v-4.441h4.544v4.441Zm-9.085,0v-4.441h4.542v4.441Zm-9.087,0v-4.441h4.545v4.441Zm-9.085,0v-4.441h4.542v4.441Zm-9.085,0v-4.441h4.542v4.441Zm-9.087,0v-4.441h4.542v4.441Zm-9.085,0v-4.441h4.542v4.441Zm-9.087,0v-4.441h4.542v4.441Zm-9.085,0v-4.441h4.542v4.441Zm-9.087,0v-4.441h4.544v4.441Zm-9.085,0v-4.441h4.542v4.441Zm-9.087,0v-4.441h4.544v4.441Zm-9.085,0v-4.441h4.542v4.441Zm-9.085,0v-4.441h4.542v4.441Zm-9.087,0v-4.441h4.542v4.441Zm-9.085,0v-4.441h4.542v4.441Zm-9.087,0v-4.441h4.542v4.441Zm-9.085,0v-4.441h4.542v4.441Zm-9.087,0v-4.441h4.544v4.441Zm-9.085,0v-4.441h4.542v4.441Zm-9.087,0v-4.441h4.545v4.441Zm-9.085,0v-4.441h4.542v4.441Zm-9.085,0v-4.441h4.542v4.441Zm-9.087,0v-4.441h4.542v4.441Zm-9.085,0v-4.441h4.542v4.441Zm-9.087,0v-4.441h4.542v4.441Zm-9.085,0v-4.441h4.542v4.441Zm472.457-8.884v-4.441h4.542v4.441Zm-9.087,0v-4.441h4.544v4.441Zm-9.085,0v-4.441h4.542v4.441Zm-9.085,0v-4.441h4.542v4.441Zm-9.087,0v-4.441h4.542v4.441Zm-9.085,0v-4.441h4.542v4.441Zm-9.087,0v-4.441h4.542v4.441Zm-9.085,0v-4.441h4.542v4.441Zm-9.087,0v-4.441h4.544v4.441Zm-9.085,0v-4.441h4.542v4.441Zm-9.087,0v-4.441h4.544v4.441Zm-9.085,0v-4.441h4.542v4.441Zm-9.085,0v-4.441h4.542v4.441Zm-9.087,0v-4.441h4.542v4.441Zm-9.085,0v-4.441h4.543v4.441Zm-9.087,0v-4.441h4.542v4.441Zm-9.085,0v-4.441h4.542v4.441Zm-9.087,0v-4.441h4.545v4.441Zm-9.085,0v-4.441h4.542v4.441Zm-9.087,0v-4.441h4.544v4.441Zm-9.085,0v-4.441h4.542v4.441Zm-9.085,0v-4.441h4.542v4.441Zm-9.087,0v-4.441h4.543v4.441Zm-9.085,0v-4.441h4.542v4.441Zm-9.087,0v-4.441h4.542v4.441Zm-9.085,0v-4.441h4.542v4.441Zm-9.087,0v-4.441h4.544v4.441Zm-9.085,0v-4.441h4.542v4.441Zm-9.087,0v-4.441h4.545v4.441Zm-9.085,0v-4.441h4.542v4.441Zm-9.085,0v-4.441h4.542v4.441Zm-9.087,0v-4.441h4.542v4.441Zm-9.085,0v-4.441h4.542v4.441Zm-9.087,0v-4.441h4.542v4.441Zm-9.085,0v-4.441h4.542v4.441Zm-9.087,0v-4.441h4.544v4.441Zm-9.085,0v-4.441h4.542v4.441Zm-9.087,0v-4.441h4.544v4.441Zm-9.085,0v-4.441h4.542v4.441Zm-9.085,0v-4.441h4.542v4.441Zm-9.087,0v-4.441h4.542v4.441Zm-9.085,0v-4.441h4.542v4.441Zm-9.087,0v-4.441h4.542v4.441Zm-9.085,0v-4.441h4.542v4.441Zm-9.087,0v-4.441h4.544v4.441Zm-9.085,0v-4.441h4.542v4.441Zm-9.087,0v-4.441h4.545v4.441Zm-9.085,0v-4.441h4.542v4.441Zm-9.085,0v-4.441h4.542v4.441Zm-9.087,0v-4.441h4.542v4.441Zm-9.085,0v-4.441h4.542v4.441Zm-9.087,0v-4.441h4.542v4.441Zm-9.085,0v-4.441h4.542v4.441Zm472.457-8.881v-4.441h4.542v4.441Zm-9.087,0v-4.441h4.544v4.441Zm-9.085,0v-4.441h4.542v4.441Zm-9.085,0v-4.441h4.542v4.441Zm-9.087,0v-4.441h4.542v4.441Zm-9.085,0v-4.441h4.542v4.441Zm-9.087,0v-4.441h4.542v4.441Zm-9.085,0v-4.441h4.542v4.441Zm-9.087,0v-4.441h4.544v4.441Zm-9.085,0v-4.441h4.542v4.441Zm-9.087,0v-4.441h4.544v4.441Zm-9.085,0v-4.441h4.542v4.441Zm-9.085,0v-4.441h4.542v4.441Zm-9.087,0v-4.441h4.542v4.441Zm-9.085,0v-4.441h4.543v4.441Zm-9.087,0v-4.441h4.542v4.441Zm-9.085,0v-4.441h4.542v4.441Zm-9.087,0v-4.441h4.545v4.441Zm-9.085,0v-4.441h4.542v4.441Zm-9.087,0v-4.441h4.544v4.441Zm-9.085,0v-4.441h4.542v4.441Zm-9.085,0v-4.441h4.542v4.441Zm-9.087,0v-4.441h4.543v4.441Zm-9.085,0v-4.441h4.542v4.441Zm-9.087,0v-4.441h4.542v4.441Zm-9.085,0v-4.441h4.542v4.441Zm-9.087,0v-4.441h4.544v4.441Zm-9.085,0v-4.441h4.542v4.441Zm-9.087,0v-4.441h4.545v4.441Zm-9.085,0v-4.441h4.542v4.441Zm-9.085,0v-4.441h4.542v4.441Zm-9.087,0v-4.441h4.542v4.441Zm-9.085,0v-4.441h4.542v4.441Zm-9.087,0v-4.441h4.542v4.441Zm-9.085,0v-4.441h4.542v4.441Zm-9.087,0v-4.441h4.544v4.441Zm-9.085,0v-4.441h4.542v4.441Zm-9.087,0v-4.441h4.544v4.441Zm-9.085,0v-4.441h4.542v4.441Zm-9.085,0v-4.441h4.542v4.441Zm-9.087,0v-4.441h4.542v4.441Zm-9.085,0v-4.441h4.542v4.441Zm-9.087,0v-4.441h4.542v4.441Zm-9.085,0v-4.441h4.542v4.441Zm-9.087,0v-4.441h4.544v4.441Zm-9.085,0v-4.441h4.542v4.441Zm-9.087,0v-4.441h4.545v4.441Zm-9.085,0v-4.441h4.542v4.441Zm-9.085,0v-4.441h4.542v4.441Zm-9.087,0v-4.441h4.542v4.441Zm-9.085,0v-4.441h4.542v4.441Zm-9.087,0v-4.441h4.542v4.441Zm-9.085,0v-4.441h4.542v4.441Zm472.457-8.884v-4.441h4.542v4.441Zm-9.087,0v-4.441h4.544v4.441Zm-9.085,0v-4.441h4.542v4.441Zm-9.085,0v-4.441h4.542v4.441Zm-9.087,0v-4.441h4.542v4.441Zm-9.085,0v-4.441h4.542v4.441Zm-9.087,0v-4.441h4.542v4.441Zm-9.085,0v-4.441h4.542v4.441Zm-9.087,0v-4.441h4.544v4.441Zm-9.085,0v-4.441h4.542v4.441Zm-9.087,0v-4.441h4.544v4.441Zm-9.085,0v-4.441h4.542v4.441Zm-9.085,0v-4.441h4.542v4.441Zm-9.087,0v-4.441h4.542v4.441Zm-9.085,0v-4.441h4.543v4.441Zm-9.087,0v-4.441h4.542v4.441Zm-9.085,0v-4.441h4.542v4.441Zm-9.087,0v-4.441h4.545v4.441Zm-9.085,0v-4.441h4.542v4.441Zm-9.087,0v-4.441h4.544v4.441Zm-9.085,0v-4.441h4.542v4.441Zm-9.085,0v-4.441h4.542v4.441Zm-9.087,0v-4.441h4.543v4.441Zm-9.085,0v-4.441h4.542v4.441Zm-9.087,0v-4.441h4.542v4.441Zm-9.085,0v-4.441h4.542v4.441Zm-9.087,0v-4.441h4.544v4.441Zm-9.085,0v-4.441h4.542v4.441Zm-9.087,0v-4.441h4.545v4.441Zm-9.085,0v-4.441h4.542v4.441Zm-9.085,0v-4.441h4.542v4.441Zm-9.087,0v-4.441h4.542v4.441Zm-9.085,0v-4.441h4.542v4.441Zm-9.087,0v-4.441h4.542v4.441Zm-9.085,0v-4.441h4.542v4.441Zm-9.087,0v-4.441h4.544v4.441Zm-9.085,0v-4.441h4.542v4.441Zm-9.087,0v-4.441h4.544v4.441Zm-9.085,0v-4.441h4.542v4.441Zm-9.085,0v-4.441h4.542v4.441Zm-9.087,0v-4.441h4.542v4.441Zm-9.085,0v-4.441h4.542v4.441Zm-9.087,0v-4.441h4.542v4.441Zm-9.085,0v-4.441h4.542v4.441Zm-9.087,0v-4.441h4.544v4.441Zm-9.085,0v-4.441h4.542v4.441Zm-9.087,0v-4.441h4.545v4.441Zm-9.085,0v-4.441h4.542v4.441Zm-9.085,0v-4.441h4.542v4.441Zm-9.087,0v-4.441h4.542v4.441Zm-9.085,0v-4.441h4.542v4.441Zm-9.087,0v-4.441h4.542v4.441Zm-9.085,0v-4.441h4.542v4.441Zm472.457-8.881v-4.441h4.542v4.441Zm-9.087,0v-4.441h4.544v4.441Zm-9.085,0v-4.441h4.542v4.441Zm-9.085,0v-4.441h4.542v4.441Zm-9.087,0v-4.441h4.542v4.441Zm-9.085,0v-4.441h4.542v4.441Zm-9.087,0v-4.441h4.542v4.441Zm-9.085,0v-4.441h4.542v4.441Zm-9.087,0v-4.441h4.544v4.441Zm-9.085,0v-4.441h4.542v4.441Zm-9.087,0v-4.441h4.544v4.441Zm-9.085,0v-4.441h4.542v4.441Zm-9.085,0v-4.441h4.542v4.441Zm-9.087,0v-4.441h4.542v4.441Zm-9.085,0v-4.441h4.543v4.441Zm-9.087,0v-4.441h4.542v4.441Zm-9.085,0v-4.441h4.542v4.441Zm-9.087,0v-4.441h4.545v4.441Zm-9.085,0v-4.441h4.542v4.441Zm-9.087,0v-4.441h4.544v4.441Zm-9.085,0v-4.441h4.542v4.441Zm-9.085,0v-4.441h4.542v4.441Zm-9.087,0v-4.441h4.543v4.441Zm-9.085,0v-4.441h4.542v4.441Zm-9.087,0v-4.441h4.542v4.441Zm-9.085,0v-4.441h4.542v4.441Zm-9.087,0v-4.441h4.544v4.441Zm-9.085,0v-4.441h4.542v4.441Zm-9.087,0v-4.441h4.545v4.441Zm-9.085,0v-4.441h4.542v4.441Zm-9.085,0v-4.441h4.542v4.441Zm-9.087,0v-4.441h4.542v4.441Zm-9.085,0v-4.441h4.542v4.441Zm-9.087,0v-4.441h4.542v4.441Zm-9.085,0v-4.441h4.542v4.441Zm-9.087,0v-4.441h4.544v4.441Zm-9.085,0v-4.441h4.542v4.441Zm-9.087,0v-4.441h4.544v4.441Zm-9.085,0v-4.441h4.542v4.441Zm-9.085,0v-4.441h4.542v4.441Zm-9.087,0v-4.441h4.542v4.441Zm-9.085,0v-4.441h4.542v4.441Zm-9.087,0v-4.441h4.542v4.441Zm-9.085,0v-4.441h4.542v4.441Zm-9.087,0v-4.441h4.544v4.441Zm-9.085,0v-4.441h4.542v4.441Zm-9.087,0v-4.441h4.545v4.441Zm-9.085,0v-4.441h4.542v4.441Zm-9.085,0v-4.441h4.542v4.441Zm-9.087,0v-4.441h4.542v4.441Zm-9.085,0v-4.441h4.542v4.441Zm-9.087,0v-4.441h4.542v4.441Zm-9.085,0v-4.441h4.542v4.441Zm472.457-8.882v-4.443h4.542v4.443Zm-9.087,0v-4.443h4.544v4.443Zm-9.085,0v-4.443h4.542v4.443Zm-9.085,0v-4.443h4.542v4.443Zm-9.087,0v-4.443h4.542v4.443Zm-9.085,0v-4.443h4.542v4.443Zm-9.087,0v-4.443h4.542v4.443Zm-9.085,0v-4.443h4.542v4.443Zm-9.087,0v-4.443h4.544v4.443Zm-9.085,0v-4.443h4.542v4.443Zm-9.087,0v-4.443h4.544v4.443Zm-9.085,0v-4.443h4.542v4.443Zm-9.085,0v-4.443h4.542v4.443Zm-9.087,0v-4.443h4.542v4.443Zm-9.085,0v-4.443h4.543v4.443Zm-9.087,0v-4.443h4.542v4.443Zm-9.085,0v-4.443h4.542v4.443Zm-9.087,0v-4.443h4.545v4.443Zm-9.085,0v-4.443h4.542v4.443Zm-9.087,0v-4.443h4.544v4.443Zm-9.085,0v-4.443h4.542v4.443Zm-9.085,0v-4.443h4.542v4.443Zm-9.087,0v-4.443h4.543v4.443Zm-9.085,0v-4.443h4.542v4.443Zm-9.087,0v-4.443h4.542v4.443Zm-9.085,0v-4.443h4.542v4.443Zm-9.087,0v-4.443h4.544v4.443Zm-9.085,0v-4.443h4.542v4.443Zm-9.087,0v-4.443h4.545v4.443Zm-9.085,0v-4.443h4.542v4.443Zm-9.085,0v-4.443h4.542v4.443Zm-9.087,0v-4.443h4.542v4.443Zm-9.085,0v-4.443h4.542v4.443Zm-9.087,0v-4.443h4.542v4.443Zm-9.085,0v-4.443h4.542v4.443Zm-9.087,0v-4.443h4.544v4.443Zm-9.085,0v-4.443h4.542v4.443Zm-9.087,0v-4.443h4.544v4.443Zm-9.085,0v-4.443h4.542v4.443Zm-9.085,0v-4.443h4.542v4.443Zm-9.087,0v-4.443h4.542v4.443Zm-9.085,0v-4.443h4.542v4.443Zm-9.087,0v-4.443h4.542v4.443Zm-9.085,0v-4.443h4.542v4.443Zm-9.087,0v-4.443h4.544v4.443Zm-9.085,0v-4.443h4.542v4.443Zm-9.087,0v-4.443h4.545v4.443Zm-9.085,0v-4.443h4.542v4.443Zm-9.085,0v-4.443h4.542v4.443Zm-9.087,0v-4.443h4.542v4.443Zm-9.085,0v-4.443h4.542v4.443Zm-9.087,0v-4.443h4.542v4.443Zm-9.085,0v-4.443h4.542v4.443Zm472.457-8.884v-4.441h4.542v4.441Zm-9.087,0v-4.441h4.544v4.441Zm-9.085,0v-4.441h4.542v4.441Zm-9.085,0v-4.441h4.542v4.441Zm-9.087,0v-4.441h4.542v4.441Zm-9.085,0v-4.441h4.542v4.441Zm-9.087,0v-4.441h4.542v4.441Zm-9.085,0v-4.441h4.542v4.441Zm-9.087,0v-4.441h4.544v4.441Zm-9.085,0v-4.441h4.542v4.441Zm-9.087,0v-4.441h4.544v4.441Zm-9.085,0v-4.441h4.542v4.441Zm-9.085,0v-4.441h4.542v4.441Zm-9.087,0v-4.441h4.542v4.441Zm-9.085,0v-4.441h4.543v4.441Zm-9.087,0v-4.441h4.542v4.441Zm-9.085,0v-4.441h4.542v4.441Zm-9.087,0v-4.441h4.545v4.441Zm-9.085,0v-4.441h4.542v4.441Zm-9.087,0v-4.441h4.544v4.441Zm-9.085,0v-4.441h4.542v4.441Zm-9.085,0v-4.441h4.542v4.441Zm-9.087,0v-4.441h4.543v4.441Zm-9.085,0v-4.441h4.542v4.441Zm-9.087,0v-4.441h4.542v4.441Zm-9.085,0v-4.441h4.542v4.441Zm-9.087,0v-4.441h4.544v4.441Zm-9.085,0v-4.441h4.542v4.441Zm-9.087,0v-4.441h4.545v4.441Zm-9.085,0v-4.441h4.542v4.441Zm-9.085,0v-4.441h4.542v4.441Zm-9.087,0v-4.441h4.542v4.441Zm-9.085,0v-4.441h4.542v4.441Zm-9.087,0v-4.441h4.542v4.441Zm-9.085,0v-4.441h4.542v4.441Zm-9.087,0v-4.441h4.544v4.441Zm-9.085,0v-4.441h4.542v4.441Zm-9.087,0v-4.441h4.544v4.441Zm-9.085,0v-4.441h4.542v4.441Zm-9.085,0v-4.441h4.542v4.441Zm-9.087,0v-4.441h4.542v4.441Zm-9.085,0v-4.441h4.542v4.441Zm-9.087,0v-4.441h4.542v4.441Zm-9.085,0v-4.441h4.542v4.441Zm-9.087,0v-4.441h4.544v4.441Zm-9.085,0v-4.441h4.542v4.441Zm-9.087,0v-4.441h4.545v4.441Zm-9.085,0v-4.441h4.542v4.441Zm-9.085,0v-4.441h4.542v4.441Zm-9.087,0v-4.441h4.542v4.441Zm-9.085,0v-4.441h4.542v4.441Zm-9.087,0v-4.441h4.542v4.441Zm-9.085,0v-4.441h4.542v4.441Zm472.457-8.882v-4.443h4.542v4.443Zm-9.087,0v-4.443h4.544v4.443Zm-9.085,0v-4.443h4.542v4.443Zm-9.085,0v-4.443h4.542v4.443Zm-9.087,0v-4.443h4.542v4.443Zm-9.085,0v-4.443h4.542v4.443Zm-9.087,0v-4.443h4.542v4.443Zm-9.085,0v-4.443h4.542v4.443Zm-9.087,0v-4.443h4.544v4.443Zm-9.085,0v-4.443h4.542v4.443Zm-9.087,0v-4.443h4.544v4.443Zm-9.085,0v-4.443h4.542v4.443Zm-9.085,0v-4.443h4.542v4.443Zm-9.087,0v-4.443h4.542v4.443Zm-9.085,0v-4.443h4.543v4.443Zm-9.087,0v-4.443h4.542v4.443Zm-9.085,0v-4.443h4.542v4.443Zm-9.087,0v-4.443h4.545v4.443Zm-9.085,0v-4.443h4.542v4.443Zm-9.087,0v-4.443h4.544v4.443Zm-9.085,0v-4.443h4.542v4.443Zm-9.085,0v-4.443h4.542v4.443Zm-9.087,0v-4.443h4.543v4.443Zm-9.085,0v-4.443h4.542v4.443Zm-9.087,0v-4.443h4.542v4.443Zm-9.085,0v-4.443h4.542v4.443Zm-9.087,0v-4.443h4.544v4.443Zm-9.085,0v-4.443h4.542v4.443Zm-9.087,0v-4.443h4.545v4.443Zm-9.085,0v-4.443h4.542v4.443Zm-9.085,0v-4.443h4.542v4.443Zm-9.087,0v-4.443h4.542v4.443Zm-9.085,0v-4.443h4.542v4.443Zm-9.087,0v-4.443h4.542v4.443Zm-9.085,0v-4.443h4.542v4.443Zm-9.087,0v-4.443h4.544v4.443Zm-9.085,0v-4.443h4.542v4.443Zm-9.087,0v-4.443h4.544v4.443Zm-9.085,0v-4.443h4.542v4.443Zm-9.085,0v-4.443h4.542v4.443Zm-9.087,0v-4.443h4.542v4.443Zm-9.085,0v-4.443h4.542v4.443Zm-9.087,0v-4.443h4.542v4.443Zm-9.085,0v-4.443h4.542v4.443Zm-9.087,0v-4.443h4.544v4.443Zm-9.085,0v-4.443h4.542v4.443Zm-9.087,0v-4.443h4.545v4.443Zm-9.085,0v-4.443h4.542v4.443Zm-9.085,0v-4.443h4.542v4.443Zm-9.087,0v-4.443h4.542v4.443Zm-9.085,0v-4.443h4.542v4.443Zm-9.087,0v-4.443h4.542v4.443Zm-9.085,0v-4.443h4.542v4.443Zm472.457-8.883v-4.441h4.542v4.441Zm-9.087,0v-4.441h4.544v4.441Zm-9.085,0v-4.441h4.542v4.441Zm-9.085,0v-4.441h4.542v4.441Zm-9.087,0v-4.441h4.542v4.441Zm-9.085,0v-4.441h4.542v4.441Zm-9.087,0v-4.441h4.542v4.441Zm-9.085,0v-4.441h4.542v4.441Zm-9.087,0v-4.441h4.544v4.441Zm-9.085,0v-4.441h4.542v4.441Zm-9.087,0v-4.441h4.544v4.441Zm-9.085,0v-4.441h4.542v4.441Zm-9.085,0v-4.441h4.542v4.441Zm-9.087,0v-4.441h4.542v4.441Zm-9.085,0v-4.441h4.543v4.441Zm-9.087,0v-4.441h4.542v4.441Zm-9.085,0v-4.441h4.542v4.441Zm-9.087,0v-4.441h4.545v4.441Zm-9.085,0v-4.441h4.542v4.441Zm-9.087,0v-4.441h4.544v4.441Zm-9.085,0v-4.441h4.542v4.441Zm-9.085,0v-4.441h4.542v4.441Zm-9.087,0v-4.441h4.543v4.441Zm-9.085,0v-4.441h4.542v4.441Zm-9.087,0v-4.441h4.542v4.441Zm-9.085,0v-4.441h4.542v4.441Zm-9.087,0v-4.441h4.544v4.441Zm-9.085,0v-4.441h4.542v4.441Zm-9.087,0v-4.441h4.545v4.441Zm-9.085,0v-4.441h4.542v4.441Zm-9.085,0v-4.441h4.542v4.441Zm-9.087,0v-4.441h4.542v4.441Zm-9.085,0v-4.441h4.542v4.441Zm-9.087,0v-4.441h4.542v4.441Zm-9.085,0v-4.441h4.542v4.441Zm-9.087,0v-4.441h4.544v4.441Zm-9.085,0v-4.441h4.542v4.441Zm-9.087,0v-4.441h4.544v4.441Zm-9.085,0v-4.441h4.542v4.441Zm-9.085,0v-4.441h4.542v4.441Zm-9.087,0v-4.441h4.542v4.441Zm-9.085,0v-4.441h4.542v4.441Zm-9.087,0v-4.441h4.542v4.441Zm-9.085,0v-4.441h4.542v4.441Zm-9.087,0v-4.441h4.544v4.441Zm-9.085,0v-4.441h4.542v4.441Zm-9.087,0v-4.441h4.545v4.441Zm-9.085,0v-4.441h4.542v4.441Zm-9.085,0v-4.441h4.542v4.441Zm-9.087,0v-4.441h4.542v4.441Zm-9.085,0v-4.441h4.542v4.441Zm-9.087,0v-4.441h4.542v4.441Zm-9.085,0v-4.441h4.542v4.441Zm472.457-8.882v-4.44h4.542v4.44Zm-9.087,0v-4.44h4.544v4.44Zm-9.085,0v-4.44h4.542v4.44Zm-9.085,0v-4.44h4.542v4.44Zm-9.087,0v-4.44h4.542v4.44Zm-9.085,0v-4.44h4.542v4.44Zm-9.087,0v-4.44h4.542v4.44Zm-9.085,0v-4.44h4.542v4.44Zm-9.087,0v-4.44h4.544v4.44Zm-9.085,0v-4.44h4.542v4.44Zm-9.087,0v-4.44h4.544v4.44Zm-9.085,0v-4.44h4.542v4.44Zm-9.085,0v-4.44h4.542v4.44Zm-9.087,0v-4.44h4.542v4.44Zm-9.085,0v-4.44h4.543v4.44Zm-9.087,0v-4.44h4.542v4.44Zm-9.085,0v-4.44h4.542v4.44Zm-9.087,0v-4.44h4.545v4.44Zm-9.085,0v-4.44h4.542v4.44Zm-9.087,0v-4.44h4.544v4.44Zm-9.085,0v-4.44h4.542v4.44Zm-9.085,0v-4.44h4.542v4.44Zm-9.087,0v-4.44h4.543v4.44Zm-9.085,0v-4.44h4.542v4.44Zm-9.087,0v-4.44h4.542v4.44Zm-9.085,0v-4.44h4.542v4.44Zm-9.087,0v-4.44h4.544v4.44Zm-9.085,0v-4.44h4.542v4.44Zm-9.087,0v-4.44h4.545v4.44Zm-9.085,0v-4.44h4.542v4.44Zm-9.085,0v-4.44h4.542v4.44Zm-9.087,0v-4.44h4.542v4.44Zm-9.085,0v-4.44h4.542v4.44Zm-9.087,0v-4.44h4.542v4.44Zm-9.085,0v-4.44h4.542v4.44Zm-9.087,0v-4.44h4.544v4.44Zm-9.085,0v-4.44h4.542v4.44Zm-9.087,0v-4.44h4.544v4.44Zm-9.085,0v-4.44h4.542v4.44Zm-9.085,0v-4.44h4.542v4.44Zm-9.087,0v-4.44h4.542v4.44Zm-9.085,0v-4.44h4.542v4.44Zm-9.087,0v-4.44h4.542v4.44Zm-9.085,0v-4.44h4.542v4.44Zm-9.087,0v-4.44h4.544v4.44Zm-9.085,0v-4.44h4.542v4.44Zm-9.087,0v-4.44h4.545v4.44Zm-9.085,0v-4.44h4.542v4.44Zm-9.085,0v-4.44h4.542v4.44Zm-9.087,0v-4.44h4.542v4.44Zm-9.085,0v-4.44h4.542v4.44Zm-9.087,0v-4.44h4.542v4.44Zm-9.085,0v-4.44h4.542v4.44Zm472.457-8.884v-4.441h4.542v4.441Zm-9.087,0v-4.441h4.544v4.441Zm-9.085,0v-4.441h4.542v4.441Zm-9.085,0v-4.441h4.542v4.441Zm-9.087,0v-4.441h4.542v4.441Zm-9.085,0v-4.441h4.542v4.441Zm-9.087,0v-4.441h4.542v4.441Zm-9.085,0v-4.441h4.542v4.441Zm-9.087,0v-4.441h4.544v4.441Zm-9.085,0v-4.441h4.542v4.441Zm-9.087,0v-4.441h4.544v4.441Zm-9.085,0v-4.441h4.542v4.441Zm-9.085,0v-4.441h4.542v4.441Zm-9.087,0v-4.441h4.542v4.441Zm-9.085,0v-4.441h4.543v4.441Zm-9.087,0v-4.441h4.542v4.441Zm-9.085,0v-4.441h4.542v4.441Zm-9.087,0v-4.441h4.545v4.441Zm-9.085,0v-4.441h4.542v4.441Zm-9.087,0v-4.441h4.544v4.441Zm-9.085,0v-4.441h4.542v4.441Zm-9.085,0v-4.441h4.542v4.441Zm-9.087,0v-4.441h4.543v4.441Zm-9.085,0v-4.441h4.542v4.441Zm-9.087,0v-4.441h4.542v4.441Zm-9.085,0v-4.441h4.542v4.441Zm-9.087,0v-4.441h4.544v4.441Zm-9.085,0v-4.441h4.542v4.441Zm-9.087,0v-4.441h4.545v4.441Zm-9.085,0v-4.441h4.542v4.441Zm-9.085,0v-4.441h4.542v4.441Zm-9.087,0v-4.441h4.542v4.441Zm-9.085,0v-4.441h4.542v4.441Zm-9.087,0v-4.441h4.542v4.441Zm-9.085,0v-4.441h4.542v4.441Zm-9.087,0v-4.441h4.544v4.441Zm-9.085,0v-4.441h4.542v4.441Zm-9.087,0v-4.441h4.544v4.441Zm-9.085,0v-4.441h4.542v4.441Zm-9.085,0v-4.441h4.542v4.441Zm-9.087,0v-4.441h4.542v4.441Zm-9.085,0v-4.441h4.542v4.441Zm-9.087,0v-4.441h4.542v4.441Zm-9.085,0v-4.441h4.542v4.441Zm-9.087,0v-4.441h4.544v4.441Zm-9.085,0v-4.441h4.542v4.441Zm-9.087,0v-4.441h4.545v4.441Zm-9.085,0v-4.441h4.542v4.441Zm-9.085,0v-4.441h4.542v4.441Zm-9.087,0v-4.441h4.542v4.441Zm-9.085,0v-4.441h4.542v4.441Zm-9.087,0v-4.441h4.542v4.441Zm-9.085,0v-4.441h4.542v4.441Zm472.457-8.881v-4.441h4.542v4.441Zm-9.087,0v-4.441h4.544v4.441Zm-9.085,0v-4.441h4.542v4.441Zm-9.085,0v-4.441h4.542v4.441Zm-9.087,0v-4.441h4.542v4.441Zm-9.085,0v-4.441h4.542v4.441Zm-9.087,0v-4.441h4.542v4.441Zm-9.085,0v-4.441h4.542v4.441Zm-9.087,0v-4.441h4.544v4.441Zm-9.085,0v-4.441h4.542v4.441Zm-9.087,0v-4.441h4.544v4.441Zm-9.085,0v-4.441h4.542v4.441Zm-9.085,0v-4.441h4.542v4.441Zm-9.087,0v-4.441h4.542v4.441Zm-9.085,0v-4.441h4.543v4.441Zm-9.087,0v-4.441h4.542v4.441Zm-9.085,0v-4.441h4.542v4.441Zm-9.087,0v-4.441h4.545v4.441Zm-9.085,0v-4.441h4.542v4.441Zm-9.087,0v-4.441h4.544v4.441Zm-9.085,0v-4.441h4.542v4.441Zm-9.085,0v-4.441h4.542v4.441Zm-9.087,0v-4.441h4.543v4.441Zm-9.085,0v-4.441h4.542v4.441Zm-9.087,0v-4.441h4.542v4.441Zm-9.085,0v-4.441h4.542v4.441Zm-9.087,0v-4.441h4.544v4.441Zm-9.085,0v-4.441h4.542v4.441Zm-9.087,0v-4.441h4.545v4.441Zm-9.085,0v-4.441h4.542v4.441Zm-9.085,0v-4.441h4.542v4.441Zm-9.087,0v-4.441h4.542v4.441Zm-9.085,0v-4.441h4.542v4.441Zm-9.087,0v-4.441h4.542v4.441Zm-9.085,0v-4.441h4.542v4.441Zm-9.087,0v-4.441h4.544v4.441Zm-9.085,0v-4.441h4.542v4.441Zm-9.087,0v-4.441h4.544v4.441Zm-9.085,0v-4.441h4.542v4.441Zm-9.085,0v-4.441h4.542v4.441Zm-9.087,0v-4.441h4.542v4.441Zm-9.085,0v-4.441h4.542v4.441Zm-9.087,0v-4.441h4.542v4.441Zm-9.085,0v-4.441h4.542v4.441Zm-9.087,0v-4.441h4.544v4.441Zm-9.085,0v-4.441h4.542v4.441Zm-9.087,0v-4.441h4.545v4.441Zm-9.085,0v-4.441h4.542v4.441Zm-9.085,0v-4.441h4.542v4.441Zm-9.087,0v-4.441h4.542v4.441Zm-9.085,0v-4.441h4.542v4.441Zm-9.087,0v-4.441h4.542v4.441Zm-9.085,0v-4.441h4.542v4.441Zm472.457-8.884v-4.44h4.542v4.44Zm-9.087,0v-4.44h4.544v4.44Zm-9.085,0v-4.44h4.542v4.44Zm-9.085,0v-4.44h4.542v4.44Zm-9.087,0v-4.44h4.542v4.44Zm-9.085,0v-4.44h4.542v4.44Zm-9.087,0v-4.44h4.542v4.44Zm-9.085,0v-4.44h4.542v4.44Zm-9.087,0v-4.44h4.544v4.44Zm-9.085,0v-4.44h4.542v4.44Zm-9.087,0v-4.44h4.544v4.44Zm-9.085,0v-4.44h4.542v4.44Zm-9.085,0v-4.44h4.542v4.44Zm-9.087,0v-4.44h4.542v4.44Zm-9.085,0v-4.44h4.543v4.44Zm-9.087,0v-4.44h4.542v4.44Zm-9.085,0v-4.44h4.542v4.44Zm-9.087,0v-4.44h4.545v4.44Zm-9.085,0v-4.44h4.542v4.44Zm-9.087,0v-4.44h4.544v4.44Zm-9.085,0v-4.44h4.542v4.44Zm-9.085,0v-4.44h4.542v4.44Zm-9.087,0v-4.44h4.543v4.44Zm-9.085,0v-4.44h4.542v4.44Zm-9.087,0v-4.44h4.542v4.44Zm-9.085,0v-4.44h4.542v4.44Zm-9.087,0v-4.44h4.544v4.44Zm-9.085,0v-4.44h4.542v4.44Zm-9.087,0v-4.44h4.545v4.44Zm-9.085,0v-4.44h4.542v4.44Zm-9.085,0v-4.44h4.542v4.44Zm-9.087,0v-4.44h4.542v4.44Zm-9.085,0v-4.44h4.542v4.44Zm-9.087,0v-4.44h4.542v4.44Zm-9.085,0v-4.44h4.542v4.44Zm-9.087,0v-4.44h4.544v4.44Zm-9.085,0v-4.44h4.542v4.44Zm-9.087,0v-4.44h4.544v4.44Zm-9.085,0v-4.44h4.542v4.44Zm-9.085,0v-4.44h4.542v4.44Zm-9.087,0v-4.44h4.542v4.44Zm-9.085,0v-4.44h4.542v4.44Zm-9.087,0v-4.44h4.542v4.44Zm-9.085,0v-4.44h4.542v4.44Zm-9.087,0v-4.44h4.544v4.44Zm-9.085,0v-4.44h4.542v4.44Zm-9.087,0v-4.44h4.545v4.44Zm-9.085,0v-4.44h4.542v4.44Zm-9.085,0v-4.44h4.542v4.44Zm-9.087,0v-4.44h4.542v4.44Zm-9.085,0v-4.44h4.542v4.44Zm-9.087,0v-4.44h4.542v4.44Zm-9.085,0v-4.44h4.542v4.44Zm472.457-8.881v-4.441h4.542v4.441Zm-9.087,0v-4.441h4.544v4.441Zm-9.085,0v-4.441h4.542v4.441Zm-9.085,0v-4.441h4.542v4.441Zm-9.087,0v-4.441h4.542v4.441Zm-9.085,0v-4.441h4.542v4.441Zm-9.087,0v-4.441h4.542v4.441Zm-9.085,0v-4.441h4.542v4.441Zm-9.087,0v-4.441h4.544v4.441Zm-9.085,0v-4.441h4.542v4.441Zm-9.087,0v-4.441h4.544v4.441Zm-9.085,0v-4.441h4.542v4.441Zm-9.085,0v-4.441h4.542v4.441Zm-9.087,0v-4.441h4.542v4.441Zm-9.085,0v-4.441h4.543v4.441Zm-9.087,0v-4.441h4.542v4.441Zm-9.085,0v-4.441h4.542v4.441Zm-9.087,0v-4.441h4.545v4.441Zm-9.085,0v-4.441h4.542v4.441Zm-9.087,0v-4.441h4.544v4.441Zm-9.085,0v-4.441h4.542v4.441Zm-9.085,0v-4.441h4.542v4.441Zm-9.087,0v-4.441h4.543v4.441Zm-9.085,0v-4.441h4.542v4.441Zm-9.087,0v-4.441h4.542v4.441Zm-9.085,0v-4.441h4.542v4.441Zm-9.087,0v-4.441h4.544v4.441Zm-9.085,0v-4.441h4.542v4.441Zm-9.087,0v-4.441h4.545v4.441Zm-9.085,0v-4.441h4.542v4.441Zm-9.085,0v-4.441h4.542v4.441Zm-9.087,0v-4.441h4.542v4.441Zm-9.085,0v-4.441h4.542v4.441Zm-9.087,0v-4.441h4.542v4.441Zm-9.085,0v-4.441h4.542v4.441Zm-9.087,0v-4.441h4.544v4.441Zm-9.085,0v-4.441h4.542v4.441Zm-9.087,0v-4.441h4.544v4.441Zm-9.085,0v-4.441h4.542v4.441Zm-9.085,0v-4.441h4.542v4.441Zm-9.087,0v-4.441h4.542v4.441Zm-9.085,0v-4.441h4.542v4.441Zm-9.087,0v-4.441h4.542v4.441Zm-9.085,0v-4.441h4.542v4.441Zm-9.087,0v-4.441h4.544v4.441Zm-9.085,0v-4.441h4.542v4.441Zm-9.087,0v-4.441h4.545v4.441Zm-9.085,0v-4.441h4.542v4.441Zm-9.085,0v-4.441h4.542v4.441Zm-9.087,0v-4.441h4.542v4.441Zm-9.085,0v-4.441h4.542v4.441Zm-9.087,0v-4.441h4.542v4.441Zm-9.085,0v-4.441h4.542v4.441Zm472.457-8.882v-4.443h4.542v4.443Zm-9.087,0v-4.443h4.544v4.443Zm-9.085,0v-4.443h4.542v4.443Zm-9.085,0v-4.443h4.542v4.443Zm-9.087,0v-4.443h4.542v4.443Zm-9.085,0v-4.443h4.542v4.443Zm-9.087,0v-4.443h4.542v4.443Zm-9.085,0v-4.443h4.542v4.443Zm-9.087,0v-4.443h4.544v4.443Zm-9.085,0v-4.443h4.542v4.443Zm-9.087,0v-4.443h4.544v4.443Zm-9.085,0v-4.443h4.542v4.443Zm-9.085,0v-4.443h4.542v4.443Zm-9.087,0v-4.443h4.542v4.443Zm-9.085,0v-4.443h4.543v4.443Zm-9.087,0v-4.443h4.542v4.443Zm-9.085,0v-4.443h4.542v4.443Zm-9.087,0v-4.443h4.545v4.443Zm-9.085,0v-4.443h4.542v4.443Zm-9.087,0v-4.443h4.544v4.443Zm-9.085,0v-4.443h4.542v4.443Zm-9.085,0v-4.443h4.542v4.443Zm-9.087,0v-4.443h4.543v4.443Zm-9.085,0v-4.443h4.542v4.443Zm-9.087,0v-4.443h4.542v4.443Zm-9.085,0v-4.443h4.542v4.443Zm-9.087,0v-4.443h4.544v4.443Zm-9.085,0v-4.443h4.542v4.443Zm-9.087,0v-4.443h4.545v4.443Zm-9.085,0v-4.443h4.542v4.443Zm-9.085,0v-4.443h4.542v4.443Zm-9.087,0v-4.443h4.542v4.443Zm-9.085,0v-4.443h4.542v4.443Zm-9.087,0v-4.443h4.542v4.443Zm-9.085,0v-4.443h4.542v4.443Zm-9.087,0v-4.443h4.544v4.443Zm-9.085,0v-4.443h4.542v4.443Zm-9.087,0v-4.443h4.544v4.443Zm-9.085,0v-4.443h4.542v4.443Zm-9.085,0v-4.443h4.542v4.443Zm-9.087,0v-4.443h4.542v4.443Zm-9.085,0v-4.443h4.542v4.443Zm-9.087,0v-4.443h4.542v4.443Zm-9.085,0v-4.443h4.542v4.443Zm-9.087,0v-4.443h4.544v4.443Zm-9.085,0v-4.443h4.542v4.443Zm-9.087,0v-4.443h4.545v4.443Zm-9.085,0v-4.443h4.542v4.443Zm-9.085,0v-4.443h4.542v4.443Zm-9.087,0v-4.443h4.542v4.443Zm-9.085,0v-4.443h4.542v4.443Zm-9.087,0v-4.443h4.542v4.443Zm-9.085,0,4.542-4.441v4.441Zm472.457-8.884v-4.441h4.542v4.441Zm-9.087,0v-4.441h4.544v4.441Zm-9.085,0v-4.441h4.542v4.441Zm-9.085,0v-4.441h4.542v4.441Zm-9.087,0v-4.441h4.542v4.441Zm-9.085,0v-4.441h4.542v4.441Zm-9.087,0v-4.441h4.542v4.441Zm-9.085,0v-4.441h4.542v4.441Zm-9.087,0v-4.441h4.544v4.441Zm-9.085,0v-4.441h4.542v4.441Zm-9.087,0v-4.441h4.544v4.441Zm-9.085,0v-4.441h4.542v4.441Zm-9.085,0v-4.441h4.542v4.441Zm-9.087,0v-4.441h4.542v4.441Zm-9.085,0v-4.441h4.543v4.441Zm-9.087,0v-4.441h4.542v4.441Zm-9.085,0v-4.441h4.542v4.441Zm-9.087,0v-4.441h4.545v4.441Zm-9.085,0v-4.441h4.542v4.441Zm-9.087,0v-4.441h4.544v4.441Zm-9.085,0v-4.441h4.542v4.441Zm-9.085,0v-4.441h4.542v4.441Zm-9.087,0v-4.441h4.543v4.441Zm-9.085,0v-4.441h4.542v4.441Zm-9.087,0v-4.441h4.542v4.441Zm-9.085,0v-4.441h4.542v4.441Zm-9.087,0v-4.441h4.544v4.441Zm-9.085,0v-4.441h4.542v4.441Zm-9.087,0v-4.441h4.545v4.441Zm-9.085,0v-4.441h4.542v4.441Zm-9.085,0v-4.441h4.542v4.441Zm-9.087,0v-4.441h4.542v4.441Zm-9.085,0v-4.441h4.542v4.441Zm-9.087,0v-4.441h4.542v4.441Zm-9.085,0v-4.441h4.542v4.441Zm-9.087,0v-4.441h4.544v4.441Zm-9.085,0v-4.441h4.542v4.441Zm-9.087,0v-4.441h4.544v4.441Zm-9.085,0v-4.441h4.542v4.441Zm-9.085,0v-4.441h4.542v4.441Zm-9.087,0v-4.441h4.542v4.441Zm-9.085,0v-4.441h4.542v4.441Zm-9.087,0v-4.441h4.542v4.441Zm-9.085,0v-4.441h4.542v4.441Zm-9.087,0v-4.441h4.544v4.441Zm-9.085,0v-4.441h4.542v4.441Zm-9.087,0v-4.441h4.545v4.441Zm-9.085,0v-4.441h4.542v4.441Zm-9.085,0v-4.441h4.542v4.441Zm-9.087,0v-4.441h4.542v4.441Zm-9.085,0v-4.441h4.542v4.441Zm-9.085,0,4.54-4.439v4.439Zm463.371-8.882V-1373h4.542v4.441Zm-9.087,0V-1373h4.544v4.441Zm-9.085,0V-1373h4.542v4.441Zm-9.085,0V-1373h4.542v4.441Zm-9.087,0V-1373h4.542v4.441Zm-9.085,0V-1373h4.542v4.441Zm-9.087,0V-1373h4.542v4.441Zm-9.085,0V-1373h4.542v4.441Zm-9.087,0V-1373h4.544v4.441Zm-9.085,0V-1373h4.542v4.441Zm-9.087,0V-1373h4.544v4.441Zm-9.085,0V-1373h4.542v4.441Zm-9.085,0V-1373h4.542v4.441Zm-9.087,0V-1373h4.542v4.441Zm-9.085,0V-1373h4.543v4.441Zm-9.087,0V-1373h4.542v4.441Zm-9.085,0V-1373h4.542v4.441Zm-9.087,0V-1373h4.545v4.441Zm-9.085,0V-1373h4.542v4.441Zm-9.087,0V-1373h4.544v4.441Zm-9.085,0V-1373h4.542v4.441Zm-9.085,0V-1373h4.542v4.441Zm-9.087,0V-1373h4.543v4.441Zm-9.085,0V-1373h4.542v4.441Zm-9.087,0V-1373h4.542v4.441Zm-9.085,0V-1373h4.542v4.441Zm-9.087,0V-1373h4.544v4.441Zm-9.085,0V-1373h4.542v4.441Zm-9.087,0V-1373h4.545v4.441Zm-9.085,0V-1373h4.542v4.441Zm-9.085,0V-1373h4.542v4.441Zm-9.087,0V-1373h4.542v4.441Zm-9.085,0V-1373h4.542v4.441Zm-9.087,0V-1373h4.542v4.441Zm-9.085,0V-1373h4.542v4.441Zm-9.087,0V-1373h4.544v4.441Zm-9.085,0V-1373h4.542v4.441Zm-9.087,0V-1373h4.544v4.441Zm-9.085,0V-1373h4.542v4.441Zm-9.085,0V-1373h4.542v4.441Zm-9.087,0V-1373h4.542v4.441Zm-9.085,0V-1373h4.542v4.441Zm-9.087,0V-1373h4.542v4.441Zm-9.085,0V-1373h4.542v4.441Zm-9.087,0V-1373h4.544v4.441Zm-9.085,0V-1373h4.542v4.441Zm-9.087,0V-1373h4.545v4.441Zm-9.085,0V-1373h4.542v4.441Zm-9.085,0V-1373h4.542v4.441Zm-9.087,0V-1373h4.542v4.441Zm-9.085,0,4.542-4.441v4.441Z" transform="translate(621.75 1403.329)" stroke="rgba(0,0,0,0)" stroke-width="1" opacity="0.27" fill="url(#radial-gradient)"/>
  <path id="路径_16" data-name="路径 16" d="M211.25,446h-465v10H200.536Z" transform="translate(253.75 88.966)" fill="url(#linear-gradient-2)"/>
  <g data-type="innerShadowGroup">
    <path id="路径_17-2" data-name="路径 17" d="M-123.75,186l-5,10h-111l-10,10v55l-4,3V196l10-10Z" transform="translate(253.75 -185.671)" fill="url(#linear-gradient-3)"/>
    <g transform="matrix(1, 0, 0, 1, 0, 0)" filter="url(#路径_17)">
      <path id="路径_17-3" data-name="路径 17" d="M-123.75,186l-5,10h-111l-10,10v55l-4,3V196l10-10Z" transform="translate(253.75 -185.67)" fill="#fff"/>
    </g>
  </g>
  <rect id="矩形_5" data-name="矩形 5" width="10" height="400" transform="translate(486.529 0)" opacity="0.75" fill="url(#linear-gradient-4)"/>
  <path id="路径_18" data-name="路径 18" d="M-23.75,186h-4v45l4,5Z" transform="translate(520.75 -185.671)" fill="#a0bffe"/>
  <path id="路径_19" data-name="路径 19" d="M-48,456h24V432Z" transform="translate(520.75 88.966)" fill="url(#linear-gradient-5)"/>
</svg>
